<?xml version="1.0" encoding="UTF-8"?>
<svg id="Camada_1" data-name="Camada 1" xmlns="http://www.w3.org/2000/svg" viewBox="0 0 897.67 696.91">
  <defs>
    <style>
      .cls-1 {
        fill: #1d1d1b;
      }
    </style>
  </defs>
  <path class="cls-1" d="M3.03,304.19C20.09,167.29,112.92,56.2,235.7,17.2c140.33-44.55,283.91-1.02,376.68,112.66-32.31,33.94-63.17,65.04-96.81,96.57-47.2-59.01-104.76-88.97-172.04-89.09-67.27-.12-130.5,32.85-170.23,89.69-71.73,102.47-42.8,241.3,61.24,308.87,57.33,37.25,124.72,26.52,171.43-22.42l97.11-101.75-27.43-39.9-.06.06,205.37-62.45-35.32,216.28-42.07-26.1c-.72-.48-1.63-.72-2.47-.6-5.36.84-14.11,6.81-17.9,10.97-43.46,48.04-83.55,96.57-135.57,135.57-100.06,74.99-236.53,57.02-326.95-24.83C30.21,538.79-12.16,425.77,3.03,304.19"/>
  <path class="cls-1" d="M587.67,557.24c55.22,15.13,104.22-1.27,139.49-41.53,35.26-40.27,49.25-91.44,31.41-143.95-13.68-40.33-58.47-102.41-109.41-88.43l-185,50.69,150.21-153.71c63.84-65.28,168.78-2.35,214.59,50.88,93.31,108.44,91.2,270.05-4.04,375.24-84.75,93.55-218.75,121.34-332.2,51.12l94.94-100.24v-.06Z"/>
</svg>