<?xml version="1.0" encoding="UTF-8"?>
<svg id="Camada_1" data-name="Camada 1" xmlns="http://www.w3.org/2000/svg" viewBox="0 0 1042.35 155.89">
  <defs>
    <style>
      .cls-1 {
        fill: #1a0e4b;
      }

      .cls-2 {
        fill: #ddd6f5;
      }
    </style>
  </defs>
  <path class="cls-1" d="M58.88,124.65c-10.31,0-19.16-1.8-26.55-5.39-7.39-3.59-13.49-8.33-18.27-14.21-4.79-5.88-8.33-12.26-10.62-19.13-2.29-6.87-3.44-13.53-3.44-19.99v-3.44c0-7.18,1.17-14.24,3.51-21.16,2.34-6.92,5.94-13.2,10.78-18.82,4.84-5.62,10.91-10.1,18.2-13.43,7.29-3.33,15.83-5,25.61-5,10.41,0,19.65,1.95,27.72,5.86,8.07,3.9,14.55,9.37,19.45,16.4,4.43,6.36,7.19,13.63,8.3,21.83.19,1.39-.94,2.62-2.34,2.62h-24.54c-1.1,0-2.01-.77-2.28-1.83-.84-3.19-2.26-6.02-4.28-8.48-2.4-2.91-5.47-5.18-9.22-6.79-3.75-1.61-8.02-2.42-12.81-2.42-4.48,0-8.51.78-12.1,2.34s-6.61,3.77-9.06,6.64c-2.45,2.86-4.32,6.32-5.62,10.39-1.3,4.06-1.95,8.64-1.95,13.74s.65,9.68,1.95,13.74c1.3,4.06,3.23,7.55,5.78,10.46,2.55,2.92,5.65,5.13,9.29,6.64,3.64,1.51,7.81,2.26,12.49,2.26,7.29,0,13.46-1.77,18.51-5.31,4.51-3.16,7.43-7.29,8.74-12.37.28-1.07,1.18-1.85,2.29-1.85h24.47c1.42,0,2.56,1.27,2.33,2.67-1.2,7.5-3.95,14.42-8.23,20.76-4.79,7.08-11.25,12.73-19.37,16.95-8.12,4.22-17.7,6.33-28.74,6.33Z"/>
  <path class="cls-1" d="M159.3,9.86v109.32c0,1.29-1.04,2.35-2.33,2.35h-23.75c-1.29,0-2.35-1.06-2.35-2.35V28.12h-7.33c-1.29,0-2.35-1.04-2.35-2.33v-15.93c0-1.32,1.06-2.35,2.35-2.35h33.43c1.29,0,2.33,1.04,2.33,2.35Z"/>
  <path class="cls-1" d="M207.25,4c-2.4-2.66-6.2-4-11.41-4s-8.88,1.34-11.3,4c-2.45,2.66-3.69,6.07-3.69,10.24s1.24,7.56,3.69,10.22c2.43,2.66,6.27,4,11.48,4s8.83-1.34,11.23-4c2.4-2.66,3.59-6.07,3.59-10.22s-1.19-7.59-3.59-10.24Z"/>
  <path class="cls-1" d="M212.71,37.65v81.53c0,1.29-1.04,2.35-2.33,2.35h-23.75c-1.29,0-2.35-1.06-2.35-2.35v-63.25h-8.57c-1.31,0-2.35-1.06-2.35-2.35v-15.93c0-1.29,1.04-2.35,2.35-2.35h34.67c1.29,0,2.33,1.06,2.33,2.35Z"/>
  <path class="cls-1" d="M273.01,124.65c-7.5,0-14.01-1.22-19.52-3.67-5.52-2.44-10.13-5.75-13.82-9.92-3.7-4.16-6.46-8.9-8.28-14.21-1.82-5.31-2.73-10.83-2.73-16.55v-3.12c0-6.04.96-11.77,2.89-17.18,1.93-5.41,4.76-10.2,8.51-14.37,3.75-4.16,8.38-7.44,13.9-9.84,5.52-2.39,11.87-3.59,19.06-3.59,7.91,0,14.89,1.56,20.93,4.68,6.04,3.12,10.86,7.42,14.45,12.89,3.15,4.8,5.08,10.23,5.79,16.27.16,1.37-.96,2.55-2.34,2.55h-23.23c-1.08,0-2.06-.72-2.27-1.78-.54-2.67-1.73-5-3.57-6.97-2.24-2.39-5.49-3.59-9.76-3.59-3.65,0-6.64.94-8.98,2.81-2.34,1.87-4.09,4.48-5.23,7.81-1.15,3.33-1.72,7.29-1.72,11.87,0,4.27.49,8.07,1.48,11.4.99,3.33,2.65,5.91,5,7.73,2.34,1.82,5.49,2.73,9.45,2.73,2.91,0,5.36-.52,7.34-1.56,1.98-1.04,3.54-2.52,4.68-4.45.86-1.44,1.48-3.08,1.87-4.9.23-1.08,1.12-1.89,2.23-1.89h23.33c1.37,0,2.49,1.18,2.34,2.55-.71,6.24-2.69,11.8-5.95,16.66-3.7,5.52-8.62,9.84-14.76,12.96-6.14,3.12-13.17,4.69-21.08,4.69Z"/>
  <path class="cls-1" d="M372.34,124.65c-7.6,0-14.37-1.15-20.3-3.44-5.93-2.29-10.96-5.47-15.07-9.53-4.11-4.06-7.24-8.75-9.37-14.06-2.14-5.31-3.2-10.98-3.2-17.03v-3.75c0-6.25,1.12-12.08,3.36-17.49,2.24-5.41,5.44-10.15,9.61-14.21,4.16-4.06,9.22-7.24,15.15-9.53,5.94-2.29,12.54-3.44,19.83-3.44s14.03,1.15,19.91,3.44c5.88,2.29,10.91,5.47,15.07,9.53,4.16,4.06,7.37,8.8,9.61,14.21,2.24,5.42,3.36,11.25,3.36,17.49v3.75c0,6.04-1.07,11.71-3.2,17.03-2.13,5.31-5.26,10-9.37,14.06-4.11,4.06-9.14,7.24-15.07,9.53-5.94,2.29-12.7,3.44-20.3,3.44ZM372.34,100.91c4.38,0,7.99-.94,10.86-2.81s5.02-4.5,6.48-7.89c1.46-3.38,2.19-7.21,2.19-11.48s-.76-8.41-2.27-11.79c-1.51-3.38-3.72-6.06-6.63-8.04-2.92-1.98-6.46-2.97-10.62-2.97s-7.71.99-10.62,2.97c-2.91,1.98-5.13,4.66-6.64,8.04-1.51,3.38-2.26,7.32-2.26,11.79s.73,8.1,2.18,11.48c1.46,3.39,3.65,6.01,6.56,7.89s6.51,2.81,10.78,2.81Z"/>
  <path class="cls-2" d="M552.26,9.86v109.32c0,1.29-1.04,2.35-2.35,2.35h-44.03c-.94,0-1.8-.58-2.17-1.44l-36.74-88.03c-.35-.89-1.21-1.44-2.15-1.44h-.78v88.56c0,1.29-1.06,2.35-2.35,2.35h-22.18c-1.29,0-2.35-1.06-2.35-2.35V9.86c0-1.32,1.06-2.35,2.35-2.35h43.72c.96,0,1.8.56,2.17,1.44l36.74,88c.35.89,1.21,1.44,2.17,1.44h.76V9.86c0-1.32,1.06-2.35,2.35-2.35h22.48c1.32,0,2.35,1.04,2.35,2.35Z"/>
  <path class="cls-2" d="M652.08,54.9c-3.44-6.8-8.4-12.29-14.84-16.46-6.45-4.17-14.31-6.25-23.59-6.25-6.98,0-13.23,1.21-18.74,3.67-5.51,2.45-10.17,5.74-13.98,9.91-3.79,4.17-6.7,8.93-8.72,14.29-2.05,5.36-3.06,10.98-3.06,16.79v3.14c0,5.61,1.01,11.08,3.06,16.39,2.02,5.31,4.96,10.12,8.83,14.36,3.84,4.27,8.57,7.66,14.19,10.17,5.64,2.5,12.09,3.74,19.37,3.74s13.93-1.32,19.62-3.89c5.66-2.6,10.34-6.2,14.04-10.8,3.03-3.74,5.26-7.94,6.65-12.54.46-1.52-.66-3.06-2.25-3.06h-21.37c-.83,0-1.67.38-2.12,1.11-1.06,1.77-2.68,3.21-4.8,4.35-2.55,1.37-5.79,2.02-9.76,2.02-4.48,0-8.12-.94-10.92-2.81s-4.88-4.55-6.25-8.04c-.56-1.47-1.01-3.06-1.34-4.75h58.82c1.29,0,2.33-1.06,2.33-2.35v-6.7c0-8.04-1.72-15.45-5.13-22.28ZM595.99,70.91c.35-2.05.89-3.89,1.57-5.54,1.47-3.49,3.57-6.09,6.32-7.81,2.76-1.72,6.02-2.55,9.76-2.55s7.06.89,9.61,2.63c2.55,1.8,4.48,4.35,5.79,7.74.63,1.67,1.11,3.51,1.42,5.54h-34.47Z"/>
  <path class="cls-2" d="M666.33,121.52c-1.78,0-2.91-1.91-2.06-3.47l23.56-43.07-.63,4.06-22.14-40.26c-.86-1.56.27-3.47,2.05-3.47h25.19c.89,0,1.71.51,2.1,1.31l13.26,26.96h2.5l12.49-26.91c.38-.83,1.21-1.36,2.13-1.36h23.39c1.76,0,2.89,1.86,2.08,3.42l-21.19,41.1.62-3.44,24.9,41.59c.94,1.56-.19,3.55-2.01,3.55h-25.1c-.85,0-1.63-.46-2.05-1.2l-16.2-28.94h-2.5l-14.96,28.88c-.4.78-1.21,1.27-2.08,1.27h-23.36Z"/>
  <path class="cls-1" d="M854.64,25.62c-3.84-6.12-9.36-10.85-16.49-14.14-7.13-3.26-15.58-4.91-25.36-4.91h-15.63c-.28,0-.53.05-.78.15-.23-.1-.51-.15-.78-.15h-24.35c-1.29,0-2.35,1.04-2.35,2.35v110.26c0,1.29,1.06,2.35,2.35,2.35h24.35c1.31,0,2.35-1.06,2.35-2.35v-27.97h14.84c9.79,0,18.23-1.64,25.36-4.98,7.13-3.34,12.64-8.07,16.49-14.21,3.84-6.15,5.79-13.43,5.79-21.87v-2.5c0-8.52-1.95-15.88-5.79-22.03ZM828.87,58.11c-1.47,2.6-3.49,4.6-6.09,6.02-2.6,1.39-5.66,2.1-9.21,2.1h-15.63V31.56h15.63c3.54,0,6.6.68,9.21,2.02,2.6,1.37,4.63,3.34,6.09,5.94,1.47,2.6,2.17,5.74,2.17,9.38s-.71,6.6-2.17,9.21Z"/>
  <path class="cls-1" d="M941.71,49.36c-3.29-5.21-8.02-9.1-14.21-11.71-6.2-2.6-13.71-3.89-22.56-3.89-3.14,0-6.55.05-10.24.15-3.69.1-7.26.25-10.7.46-2.5.15-4.73.3-6.73.46-1.24.1-2.17,1.11-2.17,2.35v19.09c0,1.34,1.14,2.4,2.48,2.33,2.86-.15,5.94-.33,9.23-.48,4.27-.2,8.35-.35,12.19-.48,3.84-.1,6.78-.15,8.75-.15,4.17,0,7.16.96,8.98,2.91,1.77,1.87,2.68,4.68,2.73,8.5h-13.58c-7.81,0-14.74.94-20.79,2.81-6.02,1.87-10.77,4.83-14.21,8.83-3.44,4.02-5.16,9.26-5.16,15.7,0,5.72,1.34,10.65,4,14.77,2.66,4.1,6.32,7.26,11,9.43,4.7,2.2,10.06,3.29,16.08,3.29s11.13-1.09,15.25-3.29c4.1-2.17,7.33-5.34,9.69-9.43.96-1.67,1.74-3.52,2.4-5.49v13.68c0,1.29,1.06,2.35,2.35,2.35h17.8c1.29,0,2.35-1.06,2.35-2.35v-49.97c0-8.02-1.64-14.64-4.93-19.85ZM917.28,98.73c-1.26,2.17-2.86,3.72-4.78,4.6-1.92.89-4.12,1.31-6.63,1.31-3.87,0-6.83-.96-8.9-2.88-2.1-1.92-3.14-4.45-3.14-7.56s1.04-5.82,3.14-7.74c2.07-1.92,5.03-2.88,8.9-2.88h13.58v9.41c-.25.3-.46.68-.56,1.11-.35,1.82-.91,3.36-1.62,4.63Z"/>
  <path class="cls-1" d="M978.15,117.98l-23.75-79.65c-.45-1.5.68-3.01,2.25-3.01h23.5c1.05,0,1.97.7,2.26,1.71l22.27,79.65c.42,1.49-.71,2.97-2.26,2.97h-22.03c-1.04,0-1.95-.68-2.25-1.67ZM964.43,153.54v-19.05c0-1.29,1.05-2.34,2.34-2.34h17.49c2.4,0,4.43-.31,6.09-.94s3.02-1.64,4.06-3.05c1.04-1.41,1.82-3.36,2.34-5.86l18.96-85.16c.24-1.07,1.19-1.83,2.29-1.83h22c1.52,0,2.64,1.42,2.28,2.9l-21.94,89.56c-1.67,7.08-3.99,12.68-6.95,16.79-2.97,4.11-7.03,7.03-12.18,8.75-5.15,1.72-11.84,2.58-20.07,2.58h-14.37c-1.29,0-2.34-1.05-2.34-2.34ZM991.77,117.31v-17.18c0-1.29,1.05-2.34,2.34-2.34h13.43c1.29,0,2.34,1.05,2.34,2.34v17.18c0,1.29-1.05,2.34-2.34,2.34h-13.43c-1.29,0-2.34-1.05-2.34-2.34Z"/>
</svg>