<?xml version="1.0" encoding="UTF-8"?>
<svg id="Camada_1" data-name="Camada 1" xmlns="http://www.w3.org/2000/svg" viewBox="0 0 1035.43 154.85">
  <defs>
    <style>
      .cls-1 {
        fill: #1a0e4b;
      }

      .cls-2 {
        fill: #6b4fd6;
      }
    </style>
  </defs>
  <path class="cls-1" d="M58.49,123.82c-10.24,0-19.03-1.78-26.38-5.35-7.34-3.57-13.4-8.27-18.15-14.12-4.76-5.84-8.28-12.18-10.55-19.01-2.28-6.83-3.41-13.44-3.41-19.86v-3.41c0-7.14,1.16-14.14,3.49-21.02,2.33-6.88,5.9-13.11,10.71-18.7,4.81-5.58,10.83-10.03,18.08-13.34,7.24-3.31,15.72-4.97,25.44-4.97,10.34,0,19.52,1.94,27.54,5.82,8.01,3.88,14.45,9.31,19.32,16.29,4.4,6.32,7.14,13.54,8.24,21.68.19,1.38-.93,2.6-2.32,2.6h-24.38c-1.09,0-1.99-.77-2.27-1.82-.83-3.17-2.25-5.98-4.25-8.42-2.38-2.89-5.43-5.14-9.15-6.75-3.72-1.6-7.97-2.4-12.72-2.4-4.45,0-8.46.78-12.02,2.33s-6.57,3.75-9,6.59c-2.43,2.85-4.29,6.28-5.59,10.32-1.29,4.03-1.94,8.59-1.94,13.65s.65,9.62,1.94,13.65c1.29,4.03,3.21,7.5,5.74,10.39,2.53,2.9,5.61,5.1,9.23,6.59,3.62,1.5,7.76,2.25,12.41,2.25,7.24,0,13.37-1.76,18.39-5.28,4.48-3.14,7.38-7.24,8.68-12.28.27-1.06,1.18-1.83,2.27-1.83h24.31c1.41,0,2.54,1.26,2.32,2.65-1.19,7.45-3.92,14.33-8.18,20.62-4.76,7.04-11.17,12.64-19.24,16.83-8.07,4.19-17.59,6.28-28.55,6.28Z"/>
  <path class="cls-1" d="M158.24,9.8v108.6c0,1.28-1.03,2.34-2.31,2.34h-23.59c-1.28,0-2.34-1.06-2.34-2.34V27.93h-7.28c-1.28,0-2.34-1.03-2.34-2.31v-15.83c0-1.31,1.06-2.34,2.34-2.34h33.21c1.28,0,2.31,1.03,2.31,2.34Z"/>
  <path class="cls-1" d="M205.87,3.97c-2.39-2.64-6.15-3.97-11.33-3.97s-8.82,1.33-11.23,3.97c-2.44,2.64-3.67,6.03-3.67,10.17s1.23,7.51,3.67,10.15c2.41,2.64,6.23,3.97,11.4,3.97s8.77-1.33,11.15-3.97c2.39-2.64,3.57-6.03,3.57-10.15s-1.18-7.54-3.57-10.17Z"/>
  <path class="cls-1" d="M211.3,37.4v80.99c0,1.28-1.03,2.34-2.31,2.34h-23.59c-1.28,0-2.34-1.06-2.34-2.34v-62.83h-8.52c-1.31,0-2.34-1.06-2.34-2.34v-15.83c0-1.28,1.03-2.34,2.34-2.34h34.44c1.28,0,2.31,1.06,2.31,2.34Z"/>
  <path class="cls-1" d="M271.2,123.82c-7.45,0-13.91-1.22-19.39-3.65-5.48-2.43-10.06-5.71-13.73-9.85-3.67-4.13-6.42-8.84-8.22-14.12-1.81-5.27-2.71-10.76-2.71-16.44v-3.1c0-6,.95-11.69,2.87-17.07,1.91-5.38,4.73-10.14,8.45-14.27,3.72-4.13,8.32-7.39,13.81-9.77,5.48-2.38,11.79-3.57,18.93-3.57,7.86,0,14.79,1.55,20.79,4.65,6,3.1,10.78,7.37,14.35,12.8,3.13,4.77,5.05,10.16,5.75,16.16.16,1.36-.95,2.53-2.32,2.53h-23.08c-1.07,0-2.04-.72-2.25-1.77-.53-2.66-1.72-4.96-3.55-6.92-2.23-2.38-5.46-3.57-9.7-3.57-3.62,0-6.59.93-8.92,2.79-2.33,1.86-4.06,4.45-5.2,7.76-1.14,3.31-1.71,7.24-1.71,11.79,0,4.24.49,8.02,1.47,11.33.98,3.31,2.64,5.87,4.96,7.68,2.33,1.81,5.45,2.72,9.39,2.72,2.89,0,5.33-.52,7.29-1.55,1.96-1.03,3.51-2.51,4.65-4.42.85-1.43,1.47-3.06,1.86-4.87.23-1.07,1.12-1.88,2.21-1.88h23.18c1.37,0,2.48,1.17,2.32,2.53-.71,6.2-2.68,11.72-5.91,16.55-3.67,5.48-8.56,9.77-14.66,12.88-6.1,3.1-13.09,4.65-20.94,4.65Z"/>
  <path class="cls-1" d="M369.87,123.82c-7.55,0-14.27-1.14-20.17-3.41-5.9-2.27-10.89-5.43-14.97-9.46-4.09-4.03-7.19-8.69-9.31-13.96-2.12-5.28-3.18-10.91-3.18-16.91v-3.72c0-6.21,1.11-12,3.34-17.38,2.22-5.38,5.4-10.08,9.54-14.12,4.14-4.03,9.15-7.19,15.05-9.46,5.9-2.27,12.46-3.41,19.7-3.41s13.94,1.14,19.78,3.41c5.84,2.28,10.83,5.43,14.97,9.46,4.14,4.03,7.32,8.74,9.54,14.12,2.22,5.38,3.34,11.17,3.34,17.38v3.72c0,6-1.06,11.64-3.18,16.91-2.12,5.27-5.23,9.93-9.31,13.96-4.09,4.03-9.08,7.19-14.97,9.46-5.9,2.27-12.62,3.41-20.17,3.41ZM369.87,100.24c4.35,0,7.94-.93,10.78-2.79s4.99-4.47,6.44-7.84c1.45-3.36,2.17-7.16,2.17-11.4s-.75-8.35-2.25-11.71c-1.5-3.36-3.7-6.02-6.59-7.99-2.9-1.96-6.42-2.95-10.55-2.95s-7.65.98-10.55,2.95c-2.89,1.97-5.1,4.63-6.59,7.99-1.5,3.36-2.25,7.27-2.25,11.71s.72,8.04,2.17,11.4c1.45,3.36,3.62,5.97,6.52,7.84,2.89,1.86,6.47,2.79,10.71,2.79Z"/>
  <path class="cls-2" d="M548.6,9.8v108.6c0,1.28-1.03,2.34-2.34,2.34h-43.74c-.93,0-1.78-.58-2.16-1.43l-36.5-87.45c-.35-.88-1.21-1.43-2.14-1.43h-.78v87.97c0,1.28-1.06,2.34-2.34,2.34h-22.03c-1.28,0-2.34-1.06-2.34-2.34V9.8c0-1.31,1.06-2.34,2.34-2.34h43.43c.95,0,1.78.55,2.16,1.43l36.5,87.42c.35.88,1.21,1.43,2.16,1.43h.75V9.8c0-1.31,1.06-2.34,2.34-2.34h22.33c1.31,0,2.34,1.03,2.34,2.34Z"/>
  <path class="cls-2" d="M647.75,54.54c-3.42-6.76-8.34-12.21-14.75-16.35-6.41-4.14-14.22-6.2-23.44-6.2-6.93,0-13.14,1.21-18.61,3.64-5.48,2.44-10.1,5.7-13.89,9.85-3.77,4.14-6.66,8.87-8.67,14.19-2.03,5.33-3.04,10.9-3.04,16.68v3.11c0,5.58,1,11,3.04,16.28,2.01,5.28,4.92,10.05,8.77,14.27,3.82,4.25,8.52,7.61,14.09,10.1,5.6,2.49,12.01,3.72,19.24,3.72s13.84-1.31,19.49-3.87c5.63-2.59,10.27-6.15,13.94-10.73,3.01-3.72,5.23-7.89,6.61-12.46.45-1.51-.65-3.04-2.24-3.04h-21.23c-.83,0-1.66.38-2.11,1.11-1.06,1.76-2.66,3.19-4.77,4.32-2.54,1.36-5.75,2.01-9.7,2.01-4.45,0-8.06-.93-10.85-2.79s-4.85-4.52-6.2-7.99c-.55-1.46-1-3.04-1.33-4.72h58.43c1.28,0,2.31-1.06,2.31-2.34v-6.66c0-7.99-1.71-15.35-5.1-22.13ZM592.03,70.44c.35-2.03.88-3.87,1.56-5.5,1.46-3.47,3.54-6.05,6.28-7.76,2.74-1.71,5.98-2.54,9.7-2.54s7.01.88,9.55,2.61c2.54,1.78,4.45,4.32,5.75,7.69.63,1.66,1.11,3.49,1.41,5.5h-34.24Z"/>
  <path class="cls-2" d="M661.9,120.72c-1.77,0-2.89-1.89-2.04-3.45l23.41-42.79-.62,4.03-21.99-39.99c-.85-1.55.27-3.45,2.04-3.45h25.02c.89,0,1.7.5,2.09,1.3l13.17,26.78h2.48l12.41-26.73c.38-.82,1.21-1.35,2.11-1.35h23.24c1.74,0,2.87,1.85,2.07,3.4l-21.05,40.82.62-3.41,24.73,41.31c.93,1.55-.19,3.52-2,3.52h-24.94c-.84,0-1.62-.46-2.03-1.19l-16.09-28.75h-2.48l-14.86,28.69c-.4.77-1.2,1.26-2.07,1.26h-23.21Z"/>
  <path class="cls-1" d="M848.96,25.45c-3.82-6.08-9.29-10.78-16.38-14.04-7.08-3.24-15.47-4.87-25.2-4.87h-15.52c-.28,0-.53.05-.78.15-.23-.1-.5-.15-.78-.15h-24.19c-1.28,0-2.34,1.03-2.34,2.34v109.53c0,1.28,1.06,2.34,2.34,2.34h24.19c1.31,0,2.34-1.06,2.34-2.34v-27.78h14.75c9.72,0,18.11-1.63,25.2-4.95,7.08-3.32,12.56-8.01,16.38-14.12s5.75-13.34,5.75-21.73v-2.49c0-8.47-1.93-15.78-5.75-21.88ZM823.37,57.73c-1.46,2.59-3.47,4.57-6.05,5.98-2.59,1.38-5.63,2.08-9.14,2.08h-15.52V31.35h15.52c3.52,0,6.56.68,9.14,2.01,2.59,1.36,4.6,3.32,6.05,5.9,1.46,2.59,2.16,5.7,2.16,9.32s-.7,6.56-2.16,9.14Z"/>
  <path class="cls-1" d="M935.45,49.04c-3.27-5.17-7.96-9.04-14.12-11.63-6.15-2.59-13.62-3.87-22.41-3.87-3.11,0-6.51.05-10.17.15-3.67.1-7.21.25-10.63.45-2.49.15-4.7.3-6.68.45-1.23.1-2.16,1.11-2.16,2.34v18.97c0,1.33,1.13,2.39,2.46,2.31,2.84-.15,5.9-.33,9.17-.48,4.25-.2,8.29-.35,12.11-.48,3.82-.1,6.73-.15,8.69-.15,4.14,0,7.11.95,8.92,2.89,1.76,1.86,2.66,4.65,2.71,8.44h-13.49c-7.76,0-14.65.93-20.65,2.79-5.98,1.86-10.7,4.8-14.12,8.77-3.42,3.99-5.12,9.19-5.12,15.6,0,5.68,1.33,10.58,3.97,14.67,2.64,4.07,6.28,7.21,10.93,9.37,4.67,2.19,10,3.27,15.98,3.27s11.05-1.08,15.15-3.27c4.07-2.16,7.28-5.3,9.62-9.37.95-1.66,1.73-3.49,2.39-5.45v13.59c0,1.28,1.06,2.34,2.34,2.34h17.69c1.28,0,2.34-1.06,2.34-2.34v-49.64c0-7.96-1.63-14.54-4.9-19.72ZM911.19,98.07c-1.26,2.16-2.84,3.69-4.75,4.57-1.91.88-4.09,1.31-6.58,1.31-3.84,0-6.78-.95-8.84-2.86-2.09-1.91-3.11-4.42-3.11-7.51s1.03-5.78,3.11-7.69c2.06-1.91,5-2.86,8.84-2.86h13.49v9.34c-.25.3-.45.68-.55,1.11-.35,1.81-.9,3.34-1.61,4.6Z"/>
  <path class="cls-1" d="M971.65,117.19l-23.59-79.12c-.45-1.49.67-2.99,2.23-2.99h23.35c1.04,0,1.96.7,2.24,1.7l22.13,79.12c.42,1.48-.7,2.96-2.24,2.96h-21.88c-1.03,0-1.94-.68-2.23-1.66ZM958.03,152.52v-18.93c0-1.29,1.04-2.33,2.33-2.33h17.38c2.38,0,4.4-.31,6.05-.93s3-1.63,4.04-3.02c1.03-1.4,1.81-3.34,2.33-5.82l18.83-84.6c.24-1.06,1.18-1.82,2.27-1.82h21.85c1.51,0,2.62,1.42,2.26,2.88l-21.79,88.97c-1.66,7.03-3.96,12.59-6.9,16.68-2.95,4.08-6.98,6.98-12.1,8.69-5.12,1.71-11.77,2.56-19.93,2.56h-14.28c-1.29,0-2.33-1.04-2.33-2.33ZM985.18,116.53v-17.06c0-1.29,1.04-2.33,2.33-2.33h13.34c1.29,0,2.33,1.04,2.33,2.33v17.06c0,1.29-1.04,2.33-2.33,2.33h-13.34c-1.29,0-2.33-1.04-2.33-2.33Z"/>
</svg>