<?xml version="1.0" encoding="UTF-8"?>
<svg id="Camada_1" data-name="Camada 1" xmlns="http://www.w3.org/2000/svg" viewBox="0 0 1005.86 150.43">
  <defs>
    <style>
      .cls-1 {
        fill: #9ae62e;
      }

      .cls-2 {
        fill: #ddd6f5;
      }

      .cls-3 {
        fill: #6b4fd6;
      }
    </style>
  </defs>
  <path class="cls-2" d="M56.82,120.29c-9.95,0-18.49-1.73-25.62-5.2-7.14-3.47-13.01-8.04-17.63-13.71-4.62-5.68-8.04-11.83-10.25-18.46-2.21-6.63-3.32-13.06-3.32-19.29v-3.32c0-6.93,1.13-13.74,3.39-20.42,2.26-6.68,5.73-12.74,10.4-18.16,4.67-5.43,10.52-9.74,17.56-12.96,7.03-3.21,15.27-4.82,24.72-4.82,10.05,0,18.96,1.88,26.75,5.65,7.79,3.77,14.04,9.04,18.76,15.83,4.27,6.14,6.94,13.16,8.01,21.06.18,1.34-.9,2.53-2.26,2.53h-23.68c-1.06,0-1.94-.74-2.2-1.77-.81-3.08-2.18-5.81-4.13-8.18-2.31-2.81-5.28-5-8.89-6.56-3.62-1.56-7.74-2.34-12.36-2.34-4.32,0-8.21.75-11.68,2.26s-6.38,3.64-8.74,6.41c-2.36,2.76-4.17,6.1-5.43,10.02-1.26,3.92-1.88,8.34-1.88,13.26s.63,9.34,1.88,13.26c1.25,3.92,3.11,7.29,5.58,10.1,2.46,2.81,5.45,4.95,8.97,6.41,3.52,1.46,7.54,2.19,12.06,2.19,7.03,0,12.99-1.71,17.86-5.12,4.36-3.05,7.17-7.03,8.43-11.93.27-1.03,1.14-1.78,2.21-1.78h23.61c1.37,0,2.47,1.22,2.25,2.58-1.16,7.24-3.81,13.92-7.94,20.03-4.62,6.83-10.85,12.28-18.69,16.35-7.84,4.07-17.08,6.1-27.73,6.1Z"/>
  <path class="cls-2" d="M153.73,9.52v105.5c0,1.24-1,2.27-2.25,2.27h-22.91c-1.24,0-2.27-1.02-2.27-2.27V27.14h-7.08c-1.24,0-2.27-1-2.27-2.25v-15.37c0-1.27,1.03-2.27,2.27-2.27h32.26c1.24,0,2.25,1,2.25,2.27Z"/>
  <path class="cls-2" d="M199.99,3.86c-2.32-2.56-5.98-3.86-11.01-3.86s-8.57,1.29-10.91,3.86c-2.37,2.56-3.56,5.86-3.56,9.88s1.2,7.3,3.56,9.86c2.34,2.56,6.05,3.86,11.08,3.86s8.52-1.29,10.84-3.86c2.32-2.56,3.47-5.86,3.47-9.86s-1.15-7.32-3.47-9.88Z"/>
  <path class="cls-2" d="M205.27,36.34v78.68c0,1.24-1,2.27-2.25,2.27h-22.91c-1.24,0-2.27-1.02-2.27-2.27v-61.03h-8.27c-1.27,0-2.27-1.02-2.27-2.27v-15.37c0-1.24,1-2.27,2.27-2.27h33.46c1.24,0,2.25,1.02,2.25,2.27Z"/>
  <path class="cls-2" d="M263.45,120.29c-7.24,0-13.52-1.18-18.84-3.54-5.33-2.36-9.77-5.55-13.34-9.57-3.57-4.02-6.23-8.59-7.99-13.71-1.76-5.12-2.64-10.45-2.64-15.98v-3.01c0-5.83.93-11.35,2.79-16.58,1.86-5.22,4.6-9.85,8.21-13.87,3.62-4.02,8.09-7.18,13.41-9.49,5.33-2.31,11.45-3.47,18.39-3.47,7.63,0,14.37,1.51,20.2,4.52,5.83,3.01,10.48,7.16,13.94,12.43,3.04,4.63,4.91,9.87,5.59,15.7.15,1.32-.93,2.46-2.25,2.46h-22.42c-1.04,0-1.98-.7-2.19-1.72-.52-2.58-1.67-4.82-3.44-6.72-2.16-2.31-5.3-3.47-9.42-3.47-3.52,0-6.41.9-8.67,2.71-2.26,1.81-3.95,4.32-5.05,7.54-1.11,3.22-1.66,7.03-1.66,11.45,0,4.12.48,7.79,1.43,11,.95,3.22,2.56,5.7,4.82,7.46,2.26,1.76,5.3,2.64,9.12,2.64,2.81,0,5.17-.5,7.08-1.51,1.91-1,3.41-2.44,4.52-4.3.83-1.39,1.43-2.97,1.81-4.73.22-1.04,1.08-1.82,2.15-1.82h22.51c1.33,0,2.41,1.14,2.26,2.46-.69,6.02-2.6,11.38-5.75,16.08-3.57,5.33-8.31,9.49-14.24,12.51-5.93,3.01-12.71,4.52-20.35,4.52Z"/>
  <path class="cls-2" d="M359.3,120.29c-7.34,0-13.87-1.11-19.59-3.32-5.73-2.21-10.58-5.28-14.54-9.19-3.97-3.92-6.98-8.44-9.04-13.56-2.06-5.12-3.09-10.6-3.09-16.43v-3.62c0-6.03,1.08-11.65,3.24-16.88,2.16-5.22,5.25-9.8,9.27-13.71,4.02-3.92,8.89-6.98,14.62-9.19,5.73-2.21,12.11-3.31,19.14-3.31s13.54,1.11,19.22,3.31c5.68,2.21,10.52,5.28,14.54,9.19,4.02,3.92,7.11,8.49,9.27,13.71,2.16,5.23,3.24,10.85,3.24,16.88v3.62c0,5.83-1.03,11.3-3.09,16.43-2.06,5.12-5.08,9.65-9.04,13.56-3.97,3.92-8.82,6.98-14.55,9.19-5.73,2.21-12.26,3.32-19.59,3.32ZM359.3,97.38c4.22,0,7.71-.9,10.48-2.71s4.85-4.34,6.25-7.61c1.41-3.26,2.11-6.96,2.11-11.08s-.73-8.11-2.19-11.38c-1.45-3.26-3.59-5.85-6.4-7.76-2.82-1.91-6.23-2.86-10.25-2.86s-7.44.96-10.25,2.86c-2.81,1.91-4.95,4.5-6.41,7.76-1.46,3.27-2.18,7.06-2.18,11.38s.7,7.81,2.11,11.08c1.41,3.27,3.52,5.8,6.33,7.61,2.81,1.81,6.28,2.71,10.4,2.71Z"/>
  <path class="cls-3" d="M532.93,9.52v105.5c0,1.24-1,2.27-2.27,2.27h-42.49c-.9,0-1.73-.56-2.1-1.39l-35.46-84.95c-.34-.85-1.17-1.39-2.07-1.39h-.76v85.46c0,1.24-1.02,2.27-2.27,2.27h-21.4c-1.24,0-2.27-1.02-2.27-2.27V9.52c0-1.27,1.03-2.27,2.27-2.27h42.19c.93,0,1.73.54,2.1,1.39l35.46,84.92c.34.85,1.17,1.39,2.1,1.39h.73V9.52c0-1.27,1.02-2.27,2.27-2.27h21.69c1.27,0,2.27,1,2.27,2.27Z"/>
  <path class="cls-3" d="M629.25,52.98c-3.32-6.56-8.1-11.86-14.32-15.89-6.22-4.03-13.81-6.03-22.77-6.03-6.74,0-12.76,1.17-18.08,3.54-5.32,2.37-9.81,5.54-13.49,9.57-3.66,4.03-6.47,8.61-8.42,13.79-1.98,5.17-2.95,10.59-2.95,16.2v3.03c0,5.42.98,10.69,2.95,15.81,1.95,5.12,4.78,9.76,8.52,13.86,3.71,4.12,8.27,7.39,13.69,9.81,5.44,2.42,11.66,3.61,18.69,3.61s13.45-1.27,18.94-3.76c5.47-2.51,9.98-5.98,13.54-10.42,2.93-3.61,5.08-7.66,6.42-12.1.44-1.46-.63-2.95-2.17-2.95h-20.62c-.81,0-1.61.37-2.05,1.07-1.03,1.71-2.59,3.1-4.64,4.2-2.46,1.32-5.59,1.95-9.42,1.95-4.32,0-7.83-.9-10.54-2.71s-4.71-4.39-6.03-7.76c-.54-1.42-.98-2.95-1.29-4.59h56.76c1.24,0,2.25-1.03,2.25-2.27v-6.47c0-7.76-1.66-14.91-4.95-21.5ZM575.12,68.43c.34-1.98.85-3.76,1.51-5.34,1.42-3.37,3.44-5.88,6.1-7.54,2.66-1.66,5.81-2.46,9.42-2.46s6.81.85,9.27,2.54c2.46,1.73,4.32,4.2,5.59,7.47.61,1.61,1.07,3.39,1.37,5.34h-33.26Z"/>
  <path class="cls-3" d="M643,117.27c-1.72,0-2.81-1.84-1.98-3.35l22.74-41.57-.61,3.92-21.36-38.85c-.83-1.51.26-3.35,1.98-3.35h24.3c.86,0,1.65.49,2.03,1.26l12.8,26.02h2.41l12.05-25.97c.37-.8,1.17-1.31,2.05-1.31h22.58c1.69,0,2.79,1.79,2.01,3.3l-20.45,39.66.6-3.32,24.03,40.13c.9,1.51-.18,3.42-1.94,3.42h-24.23c-.82,0-1.57-.44-1.97-1.16l-15.63-27.93h-2.41l-14.44,27.87c-.39.75-1.16,1.22-2.01,1.22h-22.54Z"/>
  <path class="cls-1" d="M824.72,24.72c-3.71-5.91-9.03-10.47-15.91-13.64-6.88-3.15-15.03-4.73-24.48-4.73h-15.08c-.27,0-.51.05-.76.15-.22-.1-.49-.15-.76-.15h-23.5c-1.24,0-2.27,1-2.27,2.27v106.4c0,1.24,1.03,2.27,2.27,2.27h23.5c1.27,0,2.27-1.02,2.27-2.27v-26.99h14.32c9.44,0,17.59-1.59,24.48-4.81,6.88-3.22,12.2-7.78,15.91-13.71,3.71-5.93,5.59-12.96,5.59-21.11v-2.42c0-8.22-1.88-15.33-5.59-21.26ZM799.85,56.08c-1.42,2.51-3.37,4.44-5.88,5.81-2.51,1.34-5.47,2.03-8.88,2.03h-15.08V30.46h15.08c3.42,0,6.37.66,8.88,1.95,2.51,1.32,4.47,3.22,5.88,5.73,1.42,2.51,2.1,5.54,2.1,9.05s-.68,6.37-2.1,8.88Z"/>
  <path class="cls-1" d="M908.74,47.64c-3.17-5.03-7.74-8.79-13.71-11.3-5.98-2.51-13.23-3.76-21.77-3.76-3.03,0-6.32.05-9.88.15-3.56.1-7,.24-10.32.44-2.42.15-4.56.29-6.49.44-1.2.1-2.1,1.07-2.1,2.27v18.42c0,1.29,1.1,2.32,2.39,2.25,2.76-.15,5.73-.32,8.91-.46,4.12-.2,8.05-.34,11.76-.46,3.71-.1,6.54-.15,8.44-.15,4.03,0,6.91.93,8.66,2.81,1.71,1.81,2.59,4.51,2.64,8.2h-13.1c-7.54,0-14.23.9-20.06,2.71-5.81,1.81-10.4,4.66-13.71,8.52-3.32,3.88-4.98,8.93-4.98,15.15,0,5.52,1.29,10.27,3.86,14.25,2.56,3.95,6.1,7,10.62,9.1,4.54,2.12,9.71,3.17,15.52,3.17s10.74-1.05,14.72-3.17c3.95-2.1,7.08-5.15,9.35-9.1.93-1.61,1.68-3.39,2.32-5.3v13.2c0,1.24,1.03,2.27,2.27,2.27h17.18c1.24,0,2.27-1.02,2.27-2.27v-48.22c0-7.74-1.59-14.13-4.76-19.16ZM885.17,95.27c-1.22,2.1-2.76,3.59-4.61,4.44-1.85.85-3.98,1.27-6.39,1.27-3.73,0-6.59-.93-8.59-2.78-2.03-1.85-3.03-4.29-3.03-7.3s1-5.61,3.03-7.47c2-1.85,4.86-2.78,8.59-2.78h13.1v9.08c-.24.29-.44.66-.54,1.07-.34,1.76-.88,3.25-1.56,4.47Z"/>
  <path class="cls-1" d="M943.91,113.85l-22.92-76.86c-.43-1.45.65-2.91,2.17-2.91h22.68c1.01,0,1.9.68,2.18,1.65l21.49,76.86c.4,1.44-.68,2.87-2.18,2.87h-21.26c-1,0-1.88-.66-2.17-1.62ZM930.67,148.17v-18.39c0-1.25,1.01-2.26,2.26-2.26h16.88c2.31,0,4.27-.3,5.88-.9s2.92-1.58,3.92-2.94c1-1.36,1.75-3.24,2.26-5.65l18.29-82.18c.23-1.03,1.15-1.77,2.21-1.77h21.23c1.47,0,2.55,1.37,2.2,2.8l-21.17,86.43c-1.61,6.83-3.85,12.23-6.71,16.2-2.86,3.97-6.78,6.78-11.76,8.44-4.97,1.66-11.43,2.49-19.37,2.49h-13.87c-1.25,0-2.26-1.01-2.26-2.26ZM957.05,113.2v-16.58c0-1.25,1.01-2.26,2.26-2.26h12.96c1.25,0,2.26,1.01,2.26,2.26v16.58c0,1.25-1.01,2.26-2.26,2.26h-12.96c-1.25,0-2.26-1.01-2.26-2.26Z"/>
</svg>