<?xml version="1.0" encoding="UTF-8"?>
<svg id="Camada_1" xmlns="http://www.w3.org/2000/svg" version="1.1" viewBox="0 0 240.51 240.51">
  <!-- Generator: Adobe Illustrator 30.2.1, SVG Export Plug-In . SVG Version: 2.1.1 Build 1)  -->
  <defs>
    <style>
      .st0 {
        fill: #fff;
      }

      .st1 {
        fill: #64af00;
      }

      .st2 {
        fill: #1a0e4b;
      }
    </style>
  </defs>
  <rect class="st1" width="240.51" height="240.51" rx="52.8" ry="52.8"/>
  <g>
    <path class="st2" d="M47.23,112.83c2.86-22.97,18.44-41.61,39.04-48.15,23.54-7.47,47.63-.17,63.2,18.9-5.42,5.69-10.6,10.91-16.24,16.2-7.92-9.9-17.58-14.93-28.86-14.95-11.29-.02-21.9,5.51-28.56,15.05-12.03,17.19-7.18,40.48,10.28,51.82,9.62,6.25,20.92,4.45,28.76-3.76l16.29-17.07-4.6-6.69h-.01s34.46-10.47,34.46-10.47l-5.93,36.29-7.06-4.38c-.12-.08-.27-.12-.41-.1-.9.14-2.37,1.14-3,1.84-7.29,8.06-14.02,16.2-22.74,22.74-16.79,12.58-39.68,9.57-54.85-4.17-15.18-13.74-22.29-32.71-19.74-53.1"/>
    <path class="st0" d="M145.32,155.28c9.26,2.54,17.49-.21,23.4-6.97,5.92-6.76,8.26-15.34,5.27-24.15-2.3-6.77-9.81-17.18-18.36-14.84l-31.04,8.51,25.2-25.79c10.71-10.95,28.32-.39,36,8.54,15.66,18.19,15.3,45.31-.68,62.96-14.22,15.7-36.7,20.36-55.73,8.58l15.93-16.82h0Z"/>
  </g>
</svg>