<?xml version="1.0" encoding="UTF-8"?>
<svg id="Camada_1" data-name="Camada 1" xmlns="http://www.w3.org/2000/svg" xmlns:xlink="http://www.w3.org/1999/xlink" viewBox="0 0 1055.85 149.97">
  <defs>
    <style>
      .cls-1 {
        fill: url(#Gradiente_sem_nome_34);
      }

      .cls-2 {
        fill: #ddd6f5;
      }

      .cls-3 {
        fill: #6b4fd6;
      }

      .cls-4 {
        fill: url(#Gradiente_sem_nome_62);
      }
    </style>
    <linearGradient id="Gradiente_sem_nome_62" data-name="Gradiente sem nome 62" x1="0" y1="72.52" x2="142.51" y2="72.52" gradientUnits="userSpaceOnUse">
      <stop offset=".4" stop-color="#6b4fd6"/>
      <stop offset=".49" stop-color="#6f54d7"/>
      <stop offset=".59" stop-color="#7c63da"/>
      <stop offset=".71" stop-color="#917de0"/>
      <stop offset=".84" stop-color="#afa0e8"/>
      <stop offset=".98" stop-color="#d5cdf3"/>
      <stop offset="1" stop-color="#ddd6f5"/>
    </linearGradient>
    <linearGradient id="Gradiente_sem_nome_34" data-name="Gradiente sem nome 34" x1="97.14" y1="88.87" x2="187.86" y2="88.87" gradientUnits="userSpaceOnUse">
      <stop offset="0" stop-color="#6b4fd6"/>
      <stop offset=".47" stop-color="#9ae62e"/>
    </linearGradient>
  </defs>
  <path class="cls-4" d="M.63,63.66C4.2,35.01,23.63,11.76,49.33,3.6c29.37-9.32,59.42-.21,78.83,23.58-6.76,7.1-13.22,13.61-20.26,20.21-9.88-12.35-21.92-18.62-36-18.64s-27.31,6.88-35.62,18.77c-15.01,21.45-8.96,50.5,12.82,64.64,12,7.8,26.1,5.55,35.88-4.69l20.32-21.29-5.74-8.35h-.01s42.98-13.06,42.98-13.06l-7.39,45.26-8.81-5.46c-.15-.1-.34-.15-.52-.13-1.12.18-2.95,1.43-3.75,2.3-9.1,10.05-17.48,20.21-28.37,28.37-20.94,15.69-49.5,11.93-68.42-5.2C6.32,112.76-2.55,89.1.63,63.66"/>
  <path class="cls-1" d="M122.99,116.62c11.56,3.17,21.81-.26,29.19-8.69,7.38-8.43,10.31-19.14,6.57-30.12-2.86-8.44-12.24-21.43-22.9-18.51l-38.71,10.61,31.44-32.17c13.36-13.66,35.32-.49,44.91,10.65,19.53,22.69,19.09,56.51-.85,78.53-17.74,19.58-45.78,25.39-69.52,10.7l19.87-20.98h0Z"/>
  <g>
    <path class="cls-2" d="M279.49,125.31c-8.14,0-15.12-1.42-20.96-4.25-5.84-2.84-10.65-6.57-14.43-11.22-3.78-4.64-6.58-9.68-8.38-15.1-1.81-5.42-2.71-10.68-2.71-15.78v-2.71c0-5.67.93-11.24,2.77-16.71,1.85-5.47,4.69-10.42,8.51-14.86,3.82-4.44,8.61-7.97,14.36-10.6,5.75-2.63,12.49-3.95,20.22-3.95,8.22,0,15.51,1.54,21.88,4.62,6.37,3.08,11.49,7.4,15.35,12.95,3.49,5.02,5.68,10.76,6.55,17.23.15,1.1-.74,2.07-1.85,2.07h-19.37c-.87,0-1.58-.61-1.8-1.45-.66-2.52-1.79-4.75-3.38-6.69-1.89-2.3-4.32-4.09-7.27-5.36-2.96-1.27-6.33-1.91-10.11-1.91-3.54,0-6.72.62-9.56,1.85s-5.22,2.98-7.15,5.24c-1.93,2.26-3.41,4.99-4.44,8.2-1.03,3.21-1.54,6.82-1.54,10.85s.51,7.64,1.54,10.85c1.03,3.2,2.55,5.96,4.56,8.26,2.01,2.3,4.46,4.05,7.34,5.24,2.88,1.19,6.16,1.79,9.86,1.79,5.75,0,10.62-1.4,14.61-4.19,3.56-2.5,5.86-5.75,6.9-9.76.22-.84.94-1.46,1.81-1.46h19.32c1.12,0,2.02,1,1.84,2.11-.95,5.92-3.12,11.38-6.5,16.38-3.78,5.59-8.88,10.05-15.29,13.38-6.41,3.33-13.98,4.99-22.69,4.99Z"/>
    <path class="cls-2" d="M358.77,34.7v86.3c0,1.02-.82,1.86-1.84,1.86h-18.75c-1.02,0-1.86-.84-1.86-1.86V49.11h-5.79c-1.02,0-1.86-.82-1.86-1.84v-12.58c0-1.04.84-1.86,1.86-1.86h26.39c1.02,0,1.84.82,1.84,1.86Z"/>
    <path class="cls-2" d="M396.62,30.06c-1.9-2.1-4.89-3.15-9-3.15s-7.01,1.06-8.92,3.15c-1.94,2.1-2.91,4.79-2.91,8.08s.98,5.97,2.91,8.07c1.92,2.1,4.95,3.15,9.06,3.15s6.97-1.06,8.86-3.15c1.9-2.1,2.83-4.79,2.83-8.07s-.94-5.99-2.83-8.08Z"/>
    <path class="cls-2" d="M400.93,56.64v64.36c0,1.02-.82,1.86-1.84,1.86h-18.75c-1.02,0-1.86-.84-1.86-1.86v-49.93h-6.77c-1.04,0-1.86-.84-1.86-1.86v-12.58c0-1.02.82-1.86,1.86-1.86h27.37c1.02,0,1.84.84,1.84,1.86Z"/>
    <path class="cls-2" d="M448.53,125.31c-5.92,0-11.06-.97-15.41-2.9-4.36-1.93-7.99-4.54-10.91-7.83-2.92-3.29-5.1-7.03-6.53-11.22-1.44-4.19-2.16-8.55-2.16-13.07v-2.47c0-4.77.76-9.29,2.28-13.56,1.52-4.27,3.76-8.05,6.72-11.34,2.96-3.29,6.62-5.87,10.97-7.77,4.36-1.89,9.37-2.84,15.04-2.84,6.25,0,11.75,1.23,16.52,3.7,4.77,2.47,8.57,5.86,11.4,10.17,2.49,3.79,4.01,8.07,4.57,12.84.13,1.08-.76,2.01-1.84,2.01h-18.34c-.85,0-1.62-.57-1.79-1.4-.42-2.11-1.36-3.94-2.82-5.5-1.77-1.89-4.34-2.84-7.71-2.84-2.88,0-5.24.74-7.09,2.22-1.85,1.48-3.23,3.54-4.13,6.17-.9,2.63-1.36,5.75-1.36,9.37,0,3.37.39,6.37,1.17,9,.78,2.63,2.1,4.67,3.94,6.1,1.85,1.44,4.33,2.16,7.46,2.16,2.3,0,4.23-.41,5.79-1.23,1.56-.82,2.79-1.99,3.7-3.51.68-1.14,1.17-2.43,1.48-3.87.18-.85.89-1.49,1.76-1.49h18.42c1.08,0,1.97.93,1.85,2.01-.56,4.93-2.13,9.31-4.7,13.15-2.92,4.36-6.8,7.77-11.65,10.23-4.85,2.47-10.4,3.7-16.64,3.7Z"/>
    <path class="cls-2" d="M526.94,125.31c-6,0-11.34-.91-16.03-2.71-4.68-1.81-8.65-4.32-11.9-7.52-3.25-3.2-5.71-6.9-7.4-11.1-1.69-4.19-2.53-8.67-2.53-13.44v-2.96c0-4.93.88-9.53,2.65-13.81,1.77-4.27,4.29-8.01,7.58-11.22,3.29-3.21,7.27-5.71,11.96-7.52,4.69-1.81,9.9-2.71,15.66-2.71s11.08.9,15.72,2.71c4.64,1.81,8.61,4.32,11.9,7.52s5.82,6.95,7.58,11.22c1.77,4.28,2.65,8.88,2.65,13.81v2.96c0,4.77-.84,9.25-2.53,13.44-1.68,4.19-4.15,7.89-7.4,11.1-3.25,3.21-7.21,5.71-11.9,7.52s-10.03,2.71-16.03,2.71ZM526.94,106.57c3.45,0,6.31-.74,8.57-2.22s3.97-3.55,5.12-6.23c1.15-2.67,1.73-5.69,1.73-9.06s-.6-6.64-1.79-9.31c-1.19-2.67-2.94-4.79-5.24-6.35-2.3-1.56-5.1-2.34-8.39-2.34s-6.08.78-8.38,2.34c-2.3,1.56-4.05,3.68-5.24,6.35-1.19,2.67-1.79,5.78-1.79,9.31s.57,6.39,1.72,9.06c1.15,2.67,2.88,4.75,5.18,6.23s5.14,2.22,8.51,2.22Z"/>
    <path class="cls-3" d="M668.97,34.7v86.3c0,1.02-.82,1.86-1.86,1.86h-34.76c-.74,0-1.42-.46-1.72-1.14l-29.01-69.49c-.28-.7-.96-1.14-1.7-1.14h-.62v69.91c0,1.02-.84,1.86-1.86,1.86h-17.51c-1.02,0-1.86-.84-1.86-1.86V34.7c0-1.04.84-1.86,1.86-1.86h34.52c.76,0,1.42.44,1.72,1.14l29.01,69.47c.28.7.96,1.14,1.72,1.14h.6V34.7c0-1.04.84-1.86,1.86-1.86h17.75c1.04,0,1.86.82,1.86,1.86Z"/>
    <path class="cls-3" d="M747.77,70.25c-2.72-5.37-6.63-9.7-11.72-13-5.09-3.29-11.3-4.93-18.63-4.93-5.51,0-10.44.96-14.79,2.89-4.35,1.94-8.03,4.53-11.04,7.83-2.99,3.29-5.29,7.05-6.89,11.28-1.62,4.23-2.42,8.66-2.42,13.26v2.48c0,4.43.8,8.74,2.42,12.94,1.6,4.19,3.91,7.99,6.97,11.34,3.03,3.37,6.77,6.05,11.2,8.03,4.45,1.98,9.54,2.95,15.29,2.95s11-1.04,15.49-3.07c4.47-2.06,8.16-4.89,11.08-8.52,2.4-2.95,4.15-6.27,5.25-9.9.36-1.2-.52-2.42-1.78-2.42h-16.87c-.66,0-1.32.3-1.68.88-.84,1.4-2.12,2.54-3.79,3.43-2.02,1.08-4.57,1.6-7.71,1.6-3.53,0-6.41-.74-8.62-2.22s-3.85-3.59-4.93-6.35c-.44-1.16-.8-2.42-1.06-3.75h46.43c1.02,0,1.84-.84,1.84-1.86v-5.29c0-6.35-1.36-12.2-4.05-17.59ZM703.49,82.89c.28-1.62.7-3.07,1.24-4.37,1.16-2.75,2.81-4.81,4.99-6.17,2.18-1.36,4.75-2.02,7.71-2.02s5.57.7,7.59,2.08c2.02,1.42,3.53,3.43,4.57,6.11.5,1.32.88,2.77,1.12,4.37h-27.21Z"/>
    <path class="cls-3" d="M759.01,122.84c-1.41,0-2.3-1.51-1.62-2.74l18.6-34-.5,3.21-17.48-31.78c-.68-1.23.21-2.74,1.62-2.74h19.88c.71,0,1.35.4,1.66,1.03l10.47,21.28h1.97l9.86-21.24c.3-.65.96-1.07,1.68-1.07h18.47c1.39,0,2.28,1.47,1.64,2.7l-16.73,32.44.49-2.71,19.66,32.83c.74,1.23-.15,2.8-1.59,2.8h-19.82c-.67,0-1.29-.36-1.61-.95l-12.79-22.85h-1.97l-11.81,22.8c-.32.61-.95,1-1.64,1h-18.44Z"/>
    <path class="cls-2" d="M907.67,47.13c-3.03-4.83-7.39-8.56-13.02-11.16-5.63-2.58-12.3-3.87-20.02-3.87h-12.34c-.22,0-.42.04-.62.12-.18-.08-.4-.12-.62-.12h-19.22c-1.02,0-1.86.82-1.86,1.86v87.04c0,1.02.84,1.86,1.86,1.86h19.22c1.04,0,1.86-.84,1.86-1.86v-22.08h11.72c7.73,0,14.39-1.3,20.02-3.93,5.63-2.64,9.98-6.37,13.02-11.22,3.03-4.85,4.57-10.6,4.57-17.27v-1.98c0-6.73-1.54-12.54-4.57-17.39ZM887.33,72.79c-1.16,2.06-2.75,3.63-4.81,4.75-2.06,1.1-4.47,1.66-7.27,1.66h-12.34v-27.37h12.34c2.79,0,5.21.54,7.27,1.6,2.06,1.08,3.65,2.64,4.81,4.69,1.16,2.06,1.72,4.53,1.72,7.41s-.56,5.21-1.72,7.27Z"/>
    <path class="cls-2" d="M976.4,65.88c-2.6-4.11-6.33-7.19-11.22-9.24-4.89-2.06-10.82-3.07-17.81-3.07-2.48,0-5.17.04-8.09.12-2.91.08-5.73.2-8.44.36-1.98.12-3.73.24-5.31.36-.98.08-1.72.88-1.72,1.86v15.07c0,1.06.9,1.9,1.96,1.84,2.26-.12,4.69-.26,7.29-.38,3.37-.16,6.59-.28,9.62-.38,3.03-.08,5.35-.12,6.91-.12,3.29,0,5.65.76,7.09,2.3,1.4,1.48,2.12,3.69,2.16,6.71h-10.72c-6.17,0-11.64.74-16.41,2.22-4.75,1.48-8.5,3.81-11.22,6.97-2.71,3.17-4.07,7.31-4.07,12.4,0,4.51,1.06,8.4,3.15,11.66,2.1,3.23,4.99,5.73,8.68,7.45,3.71,1.74,7.95,2.6,12.7,2.6s8.78-.86,12.04-2.6c3.23-1.72,5.79-4.21,7.65-7.45.76-1.32,1.38-2.77,1.9-4.33v10.8c0,1.02.84,1.86,1.86,1.86h14.05c1.02,0,1.86-.84,1.86-1.86v-39.45c0-6.33-1.3-11.56-3.89-15.67ZM957.12,104.85c-1,1.72-2.26,2.93-3.77,3.63-1.52.7-3.25,1.04-5.23,1.04-3.05,0-5.39-.76-7.03-2.28-1.66-1.52-2.48-3.51-2.48-5.97s.82-4.59,2.48-6.11c1.64-1.52,3.97-2.28,7.03-2.28h10.72v7.43c-.2.24-.36.54-.44.88-.28,1.44-.72,2.66-1.28,3.65Z"/>
    <path class="cls-2" d="M1005.17,120.04l-18.75-62.88c-.35-1.19.53-2.38,1.77-2.38h18.55c.83,0,1.56.55,1.78,1.35l17.58,62.88c.33,1.18-.56,2.35-1.78,2.35h-17.39c-.82,0-1.54-.54-1.77-1.32ZM994.34,148.12v-15.04c0-1.02.83-1.85,1.85-1.85h13.81c1.89,0,3.49-.25,4.81-.74s2.39-1.29,3.21-2.4c.82-1.11,1.43-2.65,1.85-4.62l14.97-67.23c.19-.85.94-1.45,1.81-1.45h17.37c1.2,0,2.08,1.12,1.8,2.29l-17.32,70.7c-1.32,5.59-3.15,10.01-5.49,13.25-2.34,3.25-5.55,5.55-9.62,6.9-4.07,1.36-9.35,2.03-15.84,2.03h-11.34c-1.02,0-1.85-.83-1.85-1.85ZM1015.92,119.51v-13.56c0-1.02.83-1.85,1.85-1.85h10.6c1.02,0,1.85.83,1.85,1.85v13.56c0,1.02-.83,1.85-1.85,1.85h-10.6c-1.02,0-1.85-.83-1.85-1.85Z"/>
  </g>
</svg>