<?xml version="1.0" encoding="UTF-8"?>
<svg id="Camada_1" xmlns="http://www.w3.org/2000/svg" version="1.1" viewBox="0 0 1065.5 169.71">
  <!-- Generator: Adobe Illustrator 30.2.1, SVG Export Plug-In . SVG Version: 2.1.1 Build 1)  -->
  <defs>
    <style>
      .st0 {
        fill: #1a0e4b;
      }

      .st1 {
        fill: #ddd6f5;
      }
    </style>
  </defs>
  <path class="st0" d="M24.68,73.95c3.44-27.6,22.16-50.01,46.92-57.87,28.3-8.98,57.25-.21,75.96,22.72-6.52,6.84-12.74,13.12-19.52,19.47-9.52-11.9-21.13-17.94-34.69-17.97-13.56-.02-26.32,6.62-34.33,18.09-14.46,20.66-8.63,48.66,12.35,62.28,11.56,7.51,25.15,5.35,34.57-4.52l19.58-20.52-5.53-8.05h-.01s41.41-12.58,41.41-12.58l-7.12,43.61-8.48-5.26c-.15-.1-.33-.15-.5-.12-1.08.17-2.84,1.37-3.61,2.21-8.76,9.69-16.85,19.47-27.34,27.34-20.18,15.12-47.7,11.5-65.93-5.01-18.24-16.52-26.79-39.31-23.73-63.83"/>
  <path class="st1" d="M142.57,124.97c11.13,3.05,21.02-.26,28.13-8.37,7.11-8.12,9.93-18.44,6.33-29.03-2.76-8.13-11.79-20.65-22.06-17.83l-37.3,10.22,30.29-31c12.87-13.16,34.03-.47,43.27,10.26,18.82,21.87,18.39,54.45-.81,75.66-17.09,18.86-44.11,24.47-66.99,10.31l19.14-20.21h0Z"/>
  <g>
    <path class="st0" d="M293.37,133.35c-7.84,0-14.57-1.37-20.2-4.1-5.62-2.73-10.26-6.34-13.9-10.81-3.64-4.47-6.34-9.33-8.08-14.55-1.74-5.23-2.61-10.29-2.61-15.21v-2.61c0-5.46.89-10.83,2.67-16.1,1.78-5.27,4.51-10.04,8.2-14.32,3.68-4.28,8.3-7.68,13.84-10.22,5.54-2.53,12.04-3.8,19.48-3.8,7.92,0,14.95,1.48,21.09,4.45,6.14,2.97,11.07,7.13,14.79,12.47,3.37,4.84,5.47,10.37,6.31,16.6.14,1.06-.71,1.99-1.78,1.99h-18.67c-.83,0-1.53-.59-1.74-1.39-.64-2.43-1.72-4.58-3.25-6.45-1.82-2.22-4.16-3.94-7.01-5.17-2.85-1.23-6.1-1.84-9.74-1.84-3.41,0-6.47.59-9.21,1.78s-5.03,2.87-6.89,5.05c-1.86,2.18-3.29,4.81-4.28,7.9-.99,3.09-1.48,6.57-1.48,10.45s.49,7.37,1.48,10.45c.99,3.09,2.45,5.74,4.4,7.96,1.94,2.22,4.3,3.9,7.07,5.05,2.77,1.15,5.94,1.72,9.5,1.72,5.54,0,10.24-1.35,14.08-4.04,3.43-2.41,5.65-5.54,6.65-9.41.21-.81.9-1.4,1.74-1.4h18.61c1.08,0,1.95.96,1.77,2.03-.91,5.71-3,10.97-6.26,15.79-3.64,5.39-8.55,9.68-14.73,12.89-6.18,3.21-13.47,4.81-21.86,4.81Z"/>
    <path class="st0" d="M369.75,46.04v83.15c0,.98-.79,1.79-1.77,1.79h-18.06c-.98,0-1.79-.81-1.79-1.79V59.93h-5.58c-.98,0-1.79-.79-1.79-1.77v-12.12c0-1,.81-1.79,1.79-1.79h25.43c.98,0,1.77.79,1.77,1.79Z"/>
    <path class="st0" d="M406.22,41.58c-1.83-2.02-4.71-3.04-8.68-3.04s-6.75,1.02-8.6,3.04c-1.87,2.02-2.81,4.62-2.81,7.79s.94,5.75,2.81,7.77c1.85,2.02,4.77,3.04,8.73,3.04s6.71-1.02,8.54-3.04c1.83-2.02,2.73-4.62,2.73-7.77s-.9-5.77-2.73-7.79Z"/>
    <path class="st0" d="M410.38,67.18v62.01c0,.98-.79,1.79-1.77,1.79h-18.06c-.98,0-1.79-.81-1.79-1.79v-48.11h-6.52c-1,0-1.79-.81-1.79-1.79v-12.12c0-.98.79-1.79,1.79-1.79h26.37c.98,0,1.77.81,1.77,1.79Z"/>
    <path class="st0" d="M456.24,133.35c-5.7,0-10.65-.93-14.85-2.79-4.2-1.86-7.7-4.37-10.51-7.54-2.81-3.17-4.91-6.77-6.3-10.81-1.39-4.04-2.08-8.24-2.08-12.59v-2.38c0-4.59.73-8.95,2.2-13.07,1.46-4.12,3.62-7.76,6.47-10.93,2.85-3.17,6.37-5.66,10.57-7.48,4.2-1.82,9.03-2.73,14.49-2.73,6.02,0,11.33,1.19,15.92,3.56,4.59,2.38,8.26,5.64,10.99,9.8,2.4,3.65,3.87,7.78,4.4,12.38.12,1.04-.73,1.94-1.78,1.94h-17.67c-.82,0-1.56-.55-1.73-1.35-.41-2.03-1.31-3.8-2.72-5.3-1.7-1.82-4.18-2.73-7.42-2.73-2.77,0-5.05.71-6.83,2.14-1.78,1.43-3.11,3.41-3.98,5.94-.87,2.53-1.31,5.54-1.31,9.03,0,3.25.37,6.14,1.13,8.67.75,2.54,2.02,4.5,3.8,5.88,1.78,1.39,4.18,2.08,7.19,2.08,2.22,0,4.08-.4,5.58-1.19,1.5-.79,2.69-1.92,3.56-3.39.65-1.1,1.13-2.34,1.43-3.73.18-.82.85-1.44,1.69-1.44h17.75c1.05,0,1.9.9,1.78,1.94-.54,4.75-2.05,8.97-4.53,12.67-2.81,4.2-6.55,7.48-11.23,9.86-4.67,2.38-10.02,3.56-16.04,3.56Z"/>
    <path class="st0" d="M531.8,133.35c-5.78,0-10.93-.87-15.44-2.61-4.51-1.74-8.34-4.16-11.46-7.25-3.13-3.09-5.51-6.65-7.13-10.69-1.62-4.04-2.44-8.36-2.44-12.95v-2.85c0-4.75.85-9.19,2.55-13.31,1.7-4.12,4.14-7.72,7.31-10.81,3.17-3.09,7.01-5.5,11.52-7.25,4.51-1.74,9.54-2.61,15.09-2.61s10.67.87,15.15,2.61c4.47,1.74,8.3,4.16,11.46,7.25,3.17,3.09,5.61,6.69,7.31,10.81,1.7,4.12,2.55,8.55,2.55,13.31v2.85c0,4.59-.81,8.91-2.43,12.95-1.62,4.04-4,7.6-7.13,10.69-3.13,3.09-6.95,5.51-11.47,7.25-4.52,1.74-9.66,2.61-15.44,2.61ZM531.8,115.29c3.33,0,6.08-.71,8.26-2.14s3.82-3.42,4.93-6c1.11-2.57,1.66-5.48,1.66-8.73s-.57-6.4-1.72-8.97c-1.15-2.57-2.83-4.61-5.05-6.12-2.22-1.5-4.91-2.26-8.08-2.26s-5.86.75-8.08,2.26c-2.22,1.51-3.9,3.55-5.05,6.12-1.15,2.57-1.72,5.56-1.72,8.97s.55,6.16,1.66,8.73c1.11,2.58,2.77,4.57,4.99,6s4.95,2.14,8.2,2.14Z"/>
    <path class="st1" d="M668.65,46.04v83.15c0,.98-.79,1.79-1.79,1.79h-33.49c-.71,0-1.37-.44-1.65-1.1l-27.95-66.96c-.27-.67-.92-1.1-1.64-1.1h-.6v67.36c0,.98-.81,1.79-1.79,1.79h-16.87c-.98,0-1.79-.81-1.79-1.79V46.04c0-1,.81-1.79,1.79-1.79h33.26c.73,0,1.37.42,1.65,1.1l27.95,66.94c.27.67.92,1.1,1.65,1.1h.58V46.04c0-1,.81-1.79,1.79-1.79h17.1c1,0,1.79.79,1.79,1.79Z"/>
    <path class="st1" d="M744.57,80.3c-2.62-5.17-6.39-9.35-11.29-12.52-4.9-3.17-10.89-4.75-17.95-4.75-5.31,0-10.06.92-14.25,2.79-4.19,1.87-7.73,4.37-10.64,7.54-2.89,3.17-5.1,6.79-6.64,10.87-1.56,4.08-2.33,8.35-2.33,12.77v2.39c0,4.27.77,8.43,2.33,12.46,1.54,4.04,3.77,7.69,6.71,10.93,2.92,3.25,6.52,5.83,10.79,7.73,4.29,1.9,9.19,2.85,14.73,2.85s10.6-1,14.93-2.96c4.31-1.98,7.87-4.71,10.68-8.21,2.31-2.85,4-6.04,5.06-9.54.35-1.15-.5-2.33-1.71-2.33h-16.25c-.63,0-1.27.29-1.62.85-.81,1.35-2.04,2.44-3.65,3.31-1.94,1.04-4.4,1.54-7.42,1.54-3.4,0-6.17-.71-8.31-2.14s-3.71-3.46-4.75-6.12c-.42-1.12-.77-2.33-1.02-3.62h44.74c.98,0,1.77-.81,1.77-1.79v-5.1c0-6.12-1.31-11.75-3.9-16.95ZM701.91,92.47c.27-1.56.67-2.96,1.19-4.21,1.12-2.65,2.71-4.64,4.81-5.94,2.1-1.31,4.58-1.94,7.42-1.94s5.37.67,7.31,2c1.94,1.37,3.4,3.31,4.4,5.89.48,1.27.85,2.67,1.08,4.21h-26.22Z"/>
    <path class="st1" d="M755.41,130.97c-1.35,0-2.21-1.45-1.56-2.64l17.92-32.76-.48,3.09-16.84-30.62c-.65-1.19.21-2.64,1.56-2.64h19.16c.68,0,1.3.39,1.6,1l10.09,20.51h1.9l9.5-20.47c.29-.63.92-1.03,1.62-1.03h17.79c1.33,0,2.2,1.41,1.58,2.6l-16.12,31.26.47-2.61,18.94,31.63c.71,1.19-.14,2.7-1.53,2.7h-19.1c-.65,0-1.24-.35-1.56-.91l-12.32-22.02h-1.9l-11.38,21.97c-.31.59-.92.96-1.58.96h-17.77Z"/>
    <path class="st0" d="M898.65,58.02c-2.92-4.65-7.12-8.25-12.54-10.75-5.42-2.48-11.85-3.73-19.29-3.73h-11.89c-.21,0-.4.04-.6.12-.17-.08-.38-.12-.6-.12h-18.52c-.98,0-1.79.79-1.79,1.79v83.87c0,.98.81,1.79,1.79,1.79h18.52c1,0,1.79-.81,1.79-1.79v-21.27h11.29c7.44,0,13.87-1.25,19.29-3.79s9.62-6.14,12.54-10.81,4.4-10.21,4.4-16.64v-1.9c0-6.48-1.48-12.08-4.4-16.75ZM879.05,82.74c-1.12,1.98-2.65,3.5-4.64,4.58-1.98,1.06-4.31,1.6-7,1.6h-11.89v-26.37h11.89c2.69,0,5.02.52,7,1.54,1.98,1.04,3.52,2.54,4.64,4.52,1.12,1.98,1.65,4.37,1.65,7.14s-.54,5.02-1.65,7Z"/>
    <path class="st0" d="M964.87,76.08c-2.5-3.96-6.1-6.92-10.81-8.91-4.71-1.98-10.43-2.96-17.16-2.96-2.39,0-4.98.04-7.79.12-2.81.08-5.52.19-8.14.35-1.9.12-3.6.23-5.12.35-.94.08-1.65.85-1.65,1.79v14.52c0,1.02.87,1.83,1.89,1.77,2.17-.12,4.52-.25,7.02-.37,3.25-.15,6.35-.27,9.27-.37,2.92-.08,5.16-.12,6.66-.12,3.17,0,5.44.73,6.83,2.21,1.35,1.42,2.04,3.56,2.08,6.46h-10.33c-5.94,0-11.21.71-15.81,2.14-4.58,1.42-8.19,3.67-10.81,6.71-2.62,3.06-3.92,7.04-3.92,11.95,0,4.35,1.02,8.1,3.04,11.23,2.02,3.12,4.81,5.52,8.37,7.17,3.58,1.67,7.66,2.5,12.23,2.5s8.46-.83,11.6-2.5c3.12-1.65,5.58-4.06,7.37-7.17.73-1.27,1.33-2.67,1.83-4.17v10.41c0,.98.81,1.79,1.79,1.79h13.54c.98,0,1.79-.81,1.79-1.79v-38.01c0-6.1-1.25-11.14-3.75-15.1ZM946.29,113.63c-.96,1.65-2.17,2.83-3.64,3.5-1.46.67-3.14,1-5.04,1-2.94,0-5.19-.73-6.77-2.19-1.6-1.46-2.39-3.39-2.39-5.75s.79-4.42,2.39-5.89c1.58-1.46,3.83-2.19,6.77-2.19h10.33v7.16c-.19.23-.35.52-.42.85-.27,1.38-.69,2.56-1.23,3.52Z"/>
    <path class="st0" d="M992.59,128.27l-18.06-60.59c-.34-1.14.52-2.29,1.71-2.29h17.88c.8,0,1.5.53,1.72,1.3l16.94,60.59c.32,1.14-.54,2.26-1.72,2.26h-16.76c-.79,0-1.48-.52-1.71-1.27ZM982.16,155.32v-14.49c0-.98.8-1.78,1.78-1.78h13.31c1.82,0,3.37-.24,4.63-.71s2.3-1.25,3.09-2.32c.79-1.07,1.38-2.55,1.78-4.46l14.42-64.78c.18-.82.9-1.4,1.74-1.4h16.73c1.16,0,2.01,1.08,1.73,2.21l-16.68,68.12c-1.27,5.39-3.03,9.64-5.29,12.77-2.26,3.13-5.35,5.35-9.27,6.65-3.92,1.31-9.01,1.96-15.26,1.96h-10.93c-.98,0-1.78-.8-1.78-1.78ZM1002.95,127.76v-13.07c0-.98.8-1.78,1.78-1.78h10.21c.98,0,1.78.8,1.78,1.78v13.07c0,.98-.8,1.78-1.78,1.78h-10.21c-.98,0-1.78-.8-1.78-1.78Z"/>
  </g>
</svg>