<?xml version="1.0" encoding="UTF-8"?>
<svg id="Camada_1" xmlns="http://www.w3.org/2000/svg" version="1.1" viewBox="0 0 1065.5 169.71">
  <!-- Generator: Adobe Illustrator 30.2.1, SVG Export Plug-In . SVG Version: 2.1.1 Build 1)  -->
  <defs>
    <style>
      .st0 {
        fill: #64af00;
      }

      .st1 {
        fill: #1a0e4b;
      }

      .st2 {
        fill: #6b4fd6;
      }
    </style>
  </defs>
  <path class="st1" d="M10.27,73.64c3.54-28.39,22.79-51.42,48.25-59.51,29.1-9.24,58.87-.21,78.11,23.36-6.7,7.04-13.1,13.49-20.07,20.02-9.79-12.24-21.72-18.45-35.67-18.47-13.95-.02-27.06,6.81-35.3,18.6-14.87,21.25-8.87,50.04,12.7,64.05,11.89,7.72,25.86,5.5,35.55-4.65l20.14-21.1-5.69-8.27h-.01s42.59-12.94,42.59-12.94l-7.32,44.85-8.72-5.41c-.15-.1-.34-.15-.51-.13-1.11.17-2.92,1.41-3.71,2.27-9.01,9.96-17.32,20.02-28.11,28.11-20.75,15.55-49.05,11.82-67.8-5.15C15.91,122.28,7.12,98.85,10.27,73.64"/>
  <path class="st0" d="M131.5,126.11c11.45,3.14,21.61-.26,28.92-8.61,7.31-8.35,10.21-18.96,6.51-29.85-2.84-8.36-12.12-21.24-22.69-18.34l-38.36,10.51,31.15-31.87c13.24-13.54,35-.49,44.5,10.55,19.35,22.49,18.91,56-.84,77.81-17.57,19.4-45.36,25.16-68.89,10.6l19.69-20.79h0Z"/>
  <g>
    <path class="st1" d="M286.58,134.72c-8.06,0-14.99-1.41-20.77-4.21-5.78-2.81-10.55-6.51-14.29-11.12-3.75-4.6-6.52-9.59-8.31-14.97-1.79-5.37-2.69-10.59-2.69-15.64v-2.69c0-5.62.92-11.14,2.75-16.55,1.83-5.42,4.64-10.32,8.43-14.72,3.79-4.4,8.53-7.9,14.23-10.51,5.7-2.61,12.38-3.91,20.04-3.91,8.14,0,15.37,1.53,21.68,4.58,6.31,3.05,11.38,7.33,15.21,12.83,3.46,4.97,5.62,10.66,6.49,17.07.15,1.09-.73,2.05-1.83,2.05h-19.2c-.86,0-1.57-.6-1.79-1.43-.65-2.5-1.77-4.71-3.35-6.63-1.87-2.28-4.28-4.05-7.21-5.31-2.93-1.26-6.27-1.89-10.02-1.89-3.5,0-6.66.61-9.47,1.83s-5.17,2.95-7.09,5.19c-1.92,2.24-3.38,4.95-4.4,8.12-1.02,3.18-1.53,6.76-1.53,10.75s.51,7.57,1.53,10.75c1.02,3.18,2.52,5.91,4.52,8.18,1.99,2.28,4.42,4.01,7.27,5.19,2.85,1.18,6.11,1.77,9.77,1.77,5.7,0,10.53-1.38,14.48-4.15,3.53-2.47,5.81-5.7,6.83-9.67.22-.83.93-1.44,1.79-1.44h19.14c1.11,0,2,.99,1.83,2.09-.94,5.87-3.09,11.28-6.44,16.24-3.75,5.54-8.8,9.96-15.15,13.26-6.35,3.3-13.85,4.95-22.48,4.95Z"/>
    <path class="st1" d="M365.13,44.94v85.51c0,1.01-.81,1.84-1.82,1.84h-18.57c-1.01,0-1.84-.83-1.84-1.84V59.22h-5.74c-1.01,0-1.84-.81-1.84-1.82v-12.46c0-1.03.83-1.84,1.84-1.84h26.15c1.01,0,1.82.81,1.82,1.84Z"/>
    <path class="st1" d="M402.64,40.35c-1.88-2.08-4.85-3.13-8.92-3.13s-6.94,1.05-8.84,3.13c-1.92,2.08-2.89,4.75-2.89,8.01s.97,5.91,2.89,7.99c1.9,2.08,4.91,3.13,8.98,3.13s6.9-1.05,8.78-3.13c1.88-2.08,2.81-4.75,2.81-7.99s-.93-5.93-2.81-8.01Z"/>
    <path class="st1" d="M406.91,66.68v63.77c0,1.01-.81,1.84-1.82,1.84h-18.57c-1.01,0-1.84-.83-1.84-1.84v-49.47h-6.71c-1.03,0-1.84-.83-1.84-1.84v-12.46c0-1.01.81-1.84,1.84-1.84h27.12c1.01,0,1.82.83,1.82,1.84Z"/>
    <path class="st1" d="M454.07,134.72c-5.86,0-10.96-.96-15.27-2.87-4.32-1.91-7.92-4.5-10.81-7.76-2.89-3.26-5.05-6.96-6.48-11.12-1.43-4.15-2.14-8.47-2.14-12.95v-2.44c0-4.72.75-9.2,2.26-13.44,1.51-4.23,3.73-7.98,6.66-11.24,2.93-3.26,6.56-5.82,10.87-7.7,4.32-1.87,9.28-2.81,14.91-2.81,6.19,0,11.65,1.22,16.37,3.66,4.72,2.44,8.49,5.8,11.3,10.08,2.47,3.76,3.98,8,4.53,12.73.12,1.07-.75,2-1.83,2h-18.17c-.84,0-1.61-.57-1.77-1.39-.42-2.09-1.35-3.91-2.79-5.45-1.75-1.87-4.3-2.81-7.64-2.81-2.85,0-5.19.73-7.02,2.2-1.83,1.47-3.2,3.5-4.09,6.11-.9,2.61-1.34,5.7-1.34,9.28,0,3.34.39,6.31,1.16,8.92.77,2.61,2.08,4.62,3.91,6.05,1.83,1.43,4.3,2.14,7.39,2.14,2.28,0,4.19-.41,5.74-1.22,1.55-.81,2.77-1.97,3.66-3.48.67-1.13,1.16-2.41,1.47-3.84.18-.85.88-1.48,1.74-1.48h18.25c1.07,0,1.95.93,1.83,1.99-.56,4.88-2.11,9.23-4.66,13.03-2.89,4.32-6.74,7.7-11.54,10.14-4.81,2.44-10.3,3.67-16.49,3.67Z"/>
    <path class="st1" d="M531.77,134.72c-5.95,0-11.24-.9-15.88-2.69-4.64-1.79-8.57-4.28-11.79-7.45-3.22-3.18-5.66-6.84-7.33-10.99-1.67-4.15-2.5-8.59-2.5-13.32v-2.93c0-4.89.87-9.45,2.63-13.68,1.75-4.23,4.25-7.94,7.51-11.12,3.26-3.18,7.21-5.66,11.85-7.45,4.64-1.79,9.81-2.69,15.51-2.69s10.98.9,15.58,2.69c4.6,1.79,8.53,4.28,11.79,7.45s5.76,6.88,7.51,11.12c1.75,4.24,2.63,8.8,2.63,13.68v2.93c0,4.72-.83,9.16-2.5,13.32-1.67,4.15-4.11,7.82-7.33,10.99-3.22,3.18-7.15,5.66-11.79,7.45-4.64,1.79-9.94,2.69-15.88,2.69ZM531.77,116.15c3.42,0,6.25-.73,8.49-2.2s3.93-3.52,5.07-6.17c1.14-2.65,1.71-5.64,1.71-8.98s-.59-6.58-1.77-9.22c-1.18-2.65-2.91-4.74-5.19-6.29-2.28-1.55-5.05-2.32-8.31-2.32s-6.03.77-8.31,2.32c-2.28,1.55-4.01,3.65-5.19,6.29-1.18,2.65-1.77,5.72-1.77,9.22s.57,6.33,1.71,8.98c1.14,2.65,2.85,4.7,5.13,6.17s5.09,2.2,8.43,2.2Z"/>
    <path class="st2" d="M672.5,44.94v85.51c0,1.01-.81,1.84-1.84,1.84h-34.44c-.73,0-1.4-.45-1.7-1.13l-28.74-68.86c-.28-.69-.95-1.13-1.68-1.13h-.61v69.27c0,1.01-.83,1.84-1.84,1.84h-17.35c-1.01,0-1.84-.83-1.84-1.84V44.94c0-1.03.83-1.84,1.84-1.84h34.2c.75,0,1.4.44,1.7,1.13l28.74,68.84c.28.69.95,1.13,1.7,1.13h.59V44.94c0-1.03.83-1.84,1.84-1.84h17.59c1.03,0,1.84.81,1.84,1.84Z"/>
    <path class="st2" d="M750.58,80.17c-2.69-5.32-6.57-9.61-11.61-12.88-5.04-3.26-11.2-4.89-18.46-4.89-5.46,0-10.35.95-14.66,2.87-4.31,1.92-7.95,4.49-10.94,7.75-2.97,3.26-5.24,6.98-6.82,11.18-1.6,4.19-2.39,8.58-2.39,13.13v2.45c0,4.39.79,8.66,2.39,12.82,1.58,4.15,3.88,7.91,6.9,11.24,3.01,3.34,6.71,5.99,11.1,7.95,4.41,1.96,9.46,2.93,15.15,2.93s10.9-1.03,15.35-3.05c4.43-2.04,8.09-4.85,10.98-8.45,2.37-2.93,4.11-6.21,5.2-9.81.36-1.19-.51-2.39-1.76-2.39h-16.71c-.65,0-1.31.3-1.66.87-.83,1.38-2.1,2.51-3.76,3.4-2,1.07-4.53,1.58-7.64,1.58-3.5,0-6.35-.73-8.55-2.2s-3.82-3.56-4.89-6.29c-.44-1.15-.79-2.39-1.05-3.72h46.01c1.01,0,1.82-.83,1.82-1.84v-5.24c0-6.29-1.35-12.09-4.02-17.43ZM706.71,92.69c.28-1.6.69-3.05,1.23-4.33,1.15-2.73,2.79-4.77,4.95-6.11,2.16-1.35,4.71-2,7.64-2s5.52.69,7.52,2.06c2,1.4,3.5,3.4,4.53,6.05.49,1.31.87,2.75,1.11,4.33h-26.96Z"/>
    <path class="st2" d="M761.73,132.28c-1.39,0-2.28-1.49-1.61-2.71l18.43-33.69-.49,3.18-17.32-31.49c-.67-1.22.21-2.72,1.61-2.72h19.7c.7,0,1.34.4,1.64,1.02l10.37,21.09h1.95l9.77-21.05c.3-.65.95-1.06,1.66-1.06h18.3c1.37,0,2.26,1.45,1.63,2.67l-16.58,32.14.49-2.69,19.48,32.53c.73,1.22-.15,2.77-1.57,2.77h-19.64c-.66,0-1.28-.36-1.6-.94l-12.67-22.64h-1.95l-11.7,22.59c-.32.61-.94.99-1.63.99h-18.27Z"/>
    <path class="st1" d="M909.02,57.26c-3.01-4.79-7.32-8.49-12.9-11.06-5.58-2.55-12.18-3.84-19.84-3.84h-12.22c-.22,0-.42.04-.61.12-.18-.08-.4-.12-.61-.12h-19.05c-1.01,0-1.84.81-1.84,1.84v86.24c0,1.01.83,1.84,1.84,1.84h19.05c1.03,0,1.84-.83,1.84-1.84v-21.88h11.61c7.66,0,14.26-1.29,19.84-3.9,5.58-2.61,9.89-6.31,12.9-11.12s4.53-10.5,4.53-17.11v-1.96c0-6.67-1.52-12.42-4.53-17.23ZM888.87,82.68c-1.15,2.04-2.73,3.6-4.77,4.71-2.04,1.09-4.43,1.64-7.2,1.64h-12.22v-27.12h12.22c2.77,0,5.16.53,7.2,1.58,2.04,1.07,3.62,2.61,4.77,4.65,1.15,2.04,1.7,4.49,1.7,7.34s-.55,5.16-1.7,7.2Z"/>
    <path class="st1" d="M977.13,75.83c-2.57-4.07-6.27-7.12-11.12-9.16-4.85-2.04-10.72-3.05-17.64-3.05-2.45,0-5.12.04-8.01.12-2.89.08-5.68.2-8.37.36-1.96.12-3.7.24-5.26.36-.97.08-1.7.87-1.7,1.84v14.93c0,1.05.89,1.88,1.94,1.82,2.24-.12,4.65-.26,7.22-.38,3.34-.16,6.53-.28,9.53-.38,3.01-.08,5.3-.12,6.84-.12,3.26,0,5.6.75,7.02,2.27,1.38,1.46,2.1,3.66,2.14,6.65h-10.62c-6.11,0-11.53.73-16.26,2.2-4.71,1.46-8.43,3.78-11.12,6.9-2.69,3.15-4.04,7.24-4.04,12.28,0,4.47,1.05,8.33,3.13,11.55,2.08,3.2,4.95,5.68,8.6,7.38,3.68,1.72,7.87,2.57,12.58,2.57s8.7-.85,11.93-2.57c3.2-1.7,5.74-4.17,7.58-7.38.75-1.31,1.36-2.75,1.88-4.29v10.7c0,1.01.83,1.84,1.84,1.84h13.93c1.01,0,1.84-.83,1.84-1.84v-39.09c0-6.27-1.29-11.45-3.86-15.53ZM958.02,114.45c-.99,1.7-2.24,2.91-3.74,3.6-1.5.69-3.22,1.03-5.18,1.03-3.03,0-5.34-.75-6.96-2.26-1.64-1.5-2.45-3.48-2.45-5.91s.81-4.55,2.45-6.05c1.62-1.5,3.94-2.25,6.96-2.25h10.62v7.36c-.2.24-.36.53-.44.87-.28,1.42-.71,2.63-1.27,3.62Z"/>
    <path class="st1" d="M1005.63,129.5l-18.58-62.3c-.35-1.18.53-2.36,1.76-2.36h18.38c.82,0,1.54.55,1.77,1.34l17.42,62.3c.33,1.17-.55,2.33-1.77,2.33h-17.23c-.81,0-1.53-.53-1.76-1.31ZM994.9,157.32v-14.9c0-1.01.82-1.83,1.83-1.83h13.68c1.87,0,3.46-.24,4.76-.73s2.36-1.28,3.18-2.38c.81-1.1,1.42-2.63,1.83-4.58l14.83-66.61c.19-.84.93-1.43,1.79-1.43h17.21c1.19,0,2.06,1.11,1.78,2.27l-17.16,70.05c-1.31,5.54-3.12,9.92-5.44,13.13-2.32,3.22-5.5,5.5-9.53,6.84-4.03,1.34-9.26,2.02-15.7,2.02h-11.24c-1.01,0-1.83-.82-1.83-1.83ZM1016.28,128.98v-13.44c0-1.01.82-1.83,1.83-1.83h10.5c1.01,0,1.83.82,1.83,1.83v13.44c0,1.01-.82,1.83-1.83,1.83h-10.5c-1.01,0-1.83-.82-1.83-1.83Z"/>
  </g>
</svg>