<svg width="512" height="512" version="1.1" xmlns="http://www.w3.org/2000/svg" desc="Created with imagetracer.js version 1.2.6" ><path fill="rgb(0,0,0)" stroke="rgb(0,0,0)" stroke-width="1" opacity="0" d="M 0 0 L 0.5 0 L 180.5 0 L 181 0.5 Q 179.5 2.5 174.5 1 L 173.5 2 L 167.5 2 L 166.5 3 L 162.5 3 L 161.5 4 Q 156.5 3.5 154.5 6 L 151.5 6 Q 133.1 11.6 117.5 20 Q 87.5 37 66 62.5 Q 54.3 75.3 45 90.5 Q 31.8 111.3 22 135.5 Q 12.9 158.4 7 184.5 L 7 188.5 L 6 189.5 Q 7 193.5 5 194.5 L 5 199.5 L 4 200.5 L 4 205.5 L 3 206.5 L 3 213.5 L 2 214.5 L 2 222.5 L 1 223.5 L 1 234.5 L 0.5 235 L 0 234.5 L 0 0.5 L 0 0 Z " /><path fill="rgb(0,0,0)" stroke="rgb(0,0,0)" stroke-width="1" opacity="0" d="M 212.5 0 L 511.5 0 L 512 0 L 512 0.5 L 512 285.5 Q 511.5 286.5 511 285.5 L 511 276.5 Q 508.3 274.7 510 268.5 L 509 267.5 L 509 262.5 L 508 261.5 L 508 256.5 L 507 255.5 Q 507.6 249.4 505 246.5 L 505 242.5 L 504 241.5 L 504 238.5 Q 502.3 237.8 503 234.5 L 502 233.5 L 502 231.5 L 501 230.5 L 501 228.5 L 500 227.5 Q 500.3 223.2 498 221.5 L 498 218.5 Q 494.8 214.7 494 208.5 Q 491.8 206.7 491 203.5 L 491 201.5 Q 474.2 162.8 444.5 137 Q 428.6 122.4 406.5 114 L 402.5 114 L 401.5 113 Q 397.5 114 396.5 112 L 380.5 112 Q 361.7 116.2 352 129.5 L 352 130.5 L 348 134.5 L 348 135.5 L 345 138.5 L 345 139.5 L 342 142.5 L 342 143.5 Q 334.7 150.2 330 159.5 L 326 163.5 Q 296.3 205.8 264 245.5 Q 264.3 246.3 265.5 246 Q 274 241 285.5 239 L 288.5 237 L 290.5 237 L 291.5 236 L 293.5 236 L 294.5 235 L 296.5 235 L 297.5 234 L 299.5 234 Q 301.2 231.7 305.5 232 L 308.5 230 L 310.5 230 L 311.5 229 L 313.5 229 L 314.5 228 L 316.5 228 Q 318.2 225.7 322.5 226 L 325.5 224 L 327.5 224 L 328.5 223 L 330.5 223 L 331.5 222 L 333.5 222 Q 335.2 219.7 339.5 220 L 342.5 218 L 344.5 218 L 345.5 217 L 347.5 217 L 348.5 216 L 350.5 216 Q 352.2 213.7 356.5 214 L 359.5 212 L 361.5 212 L 362.5 211 L 364.5 211 L 365.5 210 L 367.5 210 L 368.5 209 Q 372.8 209.3 374.5 207 L 382.5 207 L 383.5 208 L 386.5 208 Q 387.9 210.1 391.5 210 Q 399.6 214.9 406 221.5 L 406 222.5 Q 412.6 228.4 417 236.5 L 417 237.5 Q 420.9 241.1 422 247.5 L 424 249.5 Q 425.2 256.8 429 261.5 L 429 263.5 L 430 264.5 Q 429.7 268.8 432 270.5 L 432 273.5 L 433 274.5 L 433 278.5 Q 434.8 279.3 434 282.5 L 435 283.5 Q 433.7 288.3 436 289.5 L 436 299.5 L 437 300.5 L 437 308.5 L 436 309.5 L 436 322.5 Q 433.5 324 435 329.5 Q 432.1 334.6 432 342.5 Q 427.9 349.4 426 358.5 Q 416.7 379.7 401.5 395 Q 391.4 404.4 377.5 410 Q 373.2 409.7 371.5 412 L 366.5 412 L 365.5 413 L 350.5 413 L 349.5 412 L 344.5 412 L 343.5 411 L 340.5 411 L 339.5 410 Q 336.2 410.8 335.5 409 Q 311.7 438.7 290 470.5 L 287 473.5 Q 285.5 478 282 480.5 Q 280.7 482 281 484 L 282.5 484 Q 287.3 489.2 293.5 493 L 294.5 493 Q 298.3 494.2 300.5 497 Q 310 500 317.5 505 L 319.5 505 L 320.5 506 L 322.5 506 L 323.5 507 Q 327.8 506.7 329.5 509 L 332.5 509 L 333.5 510 L 338.5 510 L 339.5 511 Q 344.5 509.5 346 511.5 L 345.5 512 L 0.5 512 L 0 512 L 0 511.5 L 0 283.5 L 0.5 283 L 1 283.5 L 1 294.5 L 2 295.5 L 2 303.5 L 3 304.5 Q 1.8 309.3 4 310.5 L 4 316.5 L 5 317.5 L 5 321.5 L 6 322.5 L 6 326.5 Q 8 327.5 7 331.5 L 8 332.5 L 8 335.5 L 9 336.5 L 9 339.5 L 10 340.5 L 10 343.5 Q 11.8 344.3 11 347.5 Q 12.7 348.7 13 351.5 L 13 354.5 Q 18.5 373.5 27 389.5 L 27 391.5 Q 48 438 82.5 471 Q 101 489 126.5 500 L 128.5 500 L 131.5 502 L 133.5 502 L 134.5 503 Q 138.8 502.7 140.5 505 L 143.5 505 Q 144.7 506.7 147.5 507 L 152.5 507 L 153.5 508 Q 158.3 506.7 159.5 509 L 170.5 509 Q 171 510.5 173.5 510 L 174.5 509 L 186.5 509 L 187.5 508 L 192.5 508 Q 193.7 505.8 198.5 507 Q 199.7 505.2 202.5 505 L 205.5 505 Q 207.2 502.7 211.5 503 L 212.5 502 Q 217 501.5 219.5 499 L 221.5 499 Q 235.9 491.9 247.5 482 L 274 455.5 L 274 454.5 Q 286.6 441.6 297 426.5 Q 296.8 423.3 299 422.5 Q 317.2 399.7 333 374.5 L 337.5 370 L 338.5 370 Q 340 367.5 343.5 367 Q 353 373 360.5 381 L 361.5 381 Q 361.7 384.3 365.5 384 L 368.5 387 Q 370.5 385.5 369 380.5 L 370 379.5 L 370 372.5 L 371 371.5 L 371 364.5 L 372 363.5 L 372 356.5 L 373 355.5 L 373 348.5 L 374 347.5 L 374 340.5 L 375 339.5 L 375 332.5 L 376 331.5 L 376 324.5 L 377 323.5 L 377 316.5 L 378 315.5 Q 376.5 310 379 308.5 L 379 301.5 L 380 300.5 L 380 293.5 L 381 292.5 L 381 285.5 L 382 284.5 L 382 277.5 L 383 276.5 L 383 269.5 L 384 268.5 L 384 261.5 L 385 260.5 L 385 253.5 L 386 252.5 L 386 245.5 L 387 244.5 L 387 237.5 L 388 236.5 Q 387.4 230.1 389 227 Q 367.8 233.6 348.5 243 Q 345.2 242.7 343.5 244 L 340.5 246 L 338.5 246 L 335.5 248 L 333.5 248 L 330.5 250 L 328.5 250 L 327.5 251 Q 323 251.5 320.5 254 Q 317.2 253.7 315.5 255 L 312.5 257 L 310.5 257 L 307.5 259 L 305.5 259 L 302.5 261 L 300.5 261 L 299.5 262 Q 295 262.5 292.5 265 Q 289.2 264.7 287.5 266 Q 281.6 270.6 272.5 272 L 271 273.5 Q 278.5 285 284 298.5 Q 286.1 299.9 287 302.5 L 284 305.5 L 284 306.5 Q 278.8 310.8 276 317.5 L 273 320.5 L 273 321.5 L 270 324.5 L 270 325.5 L 267 328.5 L 267 329.5 L 264 332.5 L 264 333.5 L 261 336.5 L 261 337.5 L 258 340.5 L 258 341.5 L 255 344.5 L 255 345.5 Q 247.7 352.2 243 361.5 L 240 364.5 L 240 365.5 Q 236.8 371.3 232 375.5 L 232 376.5 Q 225 383 219.5 391 Q 208.8 401.3 193.5 407 Q 191.4 408.4 187.5 408 L 186.5 409 L 180.5 409 L 179.5 410 L 171.5 410 L 170.5 409 L 164.5 409 L 163.5 408 L 160.5 408 Q 158.8 405.7 154.5 406 L 153.5 405 L 152.5 405 Q 148.9 401.1 142.5 400 Q 131.6 392.9 123 383.5 Q 109.2 368.8 99 350.5 Q 90.9 335.1 85 317.5 L 85 314.5 L 84 313.5 L 84 310.5 L 83 309.5 L 83 306.5 L 82 305.5 Q 82.8 302.3 81 301.5 L 81 297.5 Q 79 296.5 80 292.5 L 79 291.5 Q 80.7 285.3 78 283.5 L 78 275.5 L 77 274.5 L 77 240.5 L 78 239.5 L 78 232.5 L 79 231.5 L 79 225.5 L 80 224.5 L 80 220.5 L 81 219.5 L 81 215.5 Q 83 214.5 82 210.5 Q 83.7 209.2 84 206.5 L 84 203.5 L 85 202.5 L 85 200.5 L 86 199.5 L 86 197.5 L 87 196.5 L 87 194.5 Q 89.3 192.8 89 188.5 L 90 187.5 Q 91.2 180.7 95 176.5 L 95 174.5 Q 109.2 145.2 132.5 125 Q 147.8 112.3 168.5 105 Q 173.5 105.5 175.5 103 L 180.5 103 L 181.5 102 L 191.5 102 Q 193.3 99.2 199.5 101 L 200.5 102 L 210.5 102 L 211.5 103 L 215.5 103 L 216.5 104 L 219.5 104 Q 220.3 105.8 223.5 105 Q 234.4 108.6 243.5 114 Q 262.3 125.2 276 141.5 Q 285.8 152.7 293.5 166 Q 296.7 166.2 297 163.5 Q 324.7 130.7 350 95.5 Q 335 70.5 314.5 51 Q 293.9 30.1 266.5 16 Q 255.5 10 241.5 7 L 238.5 5 L 234.5 5 Q 228.8 1.7 219.5 2 L 218.5 1 L 212.5 1 Q 211.5 0.5 212.5 0 Z " /><path fill="rgb(0,0,0)" stroke="rgb(0,0,0)" stroke-width="1" opacity="0" d="M 511.5 328 L 512 328.5 L 512 511.5 L 512 512 L 511.5 512 L 372.5 512 L 372 511.5 Q 373.2 509.7 377.5 511 L 378.5 510 L 382.5 510 L 383.5 509 L 386.5 509 Q 390.3 506.3 396.5 506 Q 409.1 501.6 419.5 495 Q 440.5 482.5 456 464.5 Q 480.2 437.7 495 401.5 L 495 399.5 L 497 396.5 L 497 394.5 L 498 393.5 L 498 391.5 L 499 390.5 L 499 388.5 L 500 387.5 Q 499.7 383.2 502 381.5 L 502 378.5 L 503 377.5 L 503 374.5 L 504 373.5 L 504 370.5 L 505 369.5 L 505 366.5 L 506 365.5 Q 505.3 362.3 507 361.5 L 507 356.5 L 508 355.5 L 508 351.5 L 509 350.5 Q 508 346.5 510 345.5 L 510 337.5 L 511 336.5 L 511 328.5 L 511.5 328 Z " /><path fill="rgb(28,28,26)" stroke="rgb(28,28,26)" stroke-width="1" opacity="0.5843137254901961" d="M 181.5 0 L 190.5 0 L 191 0.5 L 190.5 1 L 181.5 1 Q 180.5 0.5 181.5 0 Z " /><path fill="rgb(28,28,26)" stroke="rgb(28,28,26)" stroke-width="1" opacity="0.5843137254901961" d="M 201.5 0 L 211.5 0 L 212 0.5 L 211.5 1 L 201.5 1 Q 200.5 0.5 201.5 0 Z " /><path fill="rgb(28,28,26)" stroke="rgb(28,28,26)" stroke-width="1" opacity="0.5843137254901961" d="M 174.5 1 Q 177.3 0.3 178 1.5 Q 177.3 2.8 174.5 2 Q 173.5 1.5 174.5 1 Z " /><path fill="rgb(28,28,26)" stroke="rgb(28,28,26)" stroke-width="1" opacity="0.5843137254901961" d="M 214.5 1 Q 218 0 219 1.5 Q 218 3 214.5 2 Q 213.5 1.5 214.5 1 Z " /><path fill="rgb(28,28,26)" stroke="rgb(28,28,26)" stroke-width="1" opacity="0.5843137254901961" d="M 167.5 2 Q 170.3 1.3 171 2.5 Q 170.3 3.8 167.5 3 Q 166.5 2.5 167.5 2 Z " /><path fill="rgb(28,28,26)" stroke="rgb(28,28,26)" stroke-width="1" opacity="0.5843137254901961" d="M 222.5 2 Q 224.5 1.5 225 2.5 Q 224.5 3.5 222.5 3 Q 221.5 2.5 222.5 2 Z " /><path fill="rgb(28,28,26)" stroke="rgb(28,28,26)" stroke-width="1" opacity="0.5843137254901961" d="M 162.5 3 Q 164.5 2.5 165 3.5 Q 164.5 4.5 162.5 4 Q 161.5 3.5 162.5 3 Z " /><path fill="rgb(28,28,26)" stroke="rgb(28,28,26)" stroke-width="1" opacity="0.5843137254901961" d="M 227.5 3 Q 229.5 2.5 230 3.5 Q 229.5 4.5 227.5 4 Q 226.5 3.5 227.5 3 Z " /><path fill="rgb(28,28,26)" stroke="rgb(28,28,26)" stroke-width="1" opacity="0.5843137254901961" d="M 158.5 4 Q 160.5 3.5 161 4.5 Q 160.5 5.5 158.5 5 Q 157.5 4.5 158.5 4 Z " /><path fill="rgb(28,28,26)" stroke="rgb(28,28,26)" stroke-width="1" opacity="0.5843137254901961" d="M 231.5 4 Q 233.5 3.5 234 4.5 Q 233.5 5.5 231.5 5 Q 230.5 4.5 231.5 4 Z " /><path fill="rgb(28,28,26)" stroke="rgb(28,28,26)" stroke-width="1" opacity="0.5843137254901961" d="M 235.5 5 Q 239.6 4.4 241 6.5 Q 240.8 7.3 239.5 7 Q 238.8 5.2 235.5 6 Q 234.5 5.5 235.5 5 Z " /><path fill="rgb(28,28,26)" stroke="rgb(28,28,26)" stroke-width="1" opacity="0.5843137254901961" d="M 151.5 6 Q 153.5 5.5 154 6.5 Q 153.5 7.5 151.5 7 Q 150.5 6.5 151.5 6 Z " /><path fill="rgb(28,28,26)" stroke="rgb(28,28,26)" stroke-width="1" opacity="0.5843137254901961" d="M 142.5 9 Q 143.8 8.8 144 9.5 Q 141.5 11.5 137.5 12 Q 136.5 11.5 137.5 11 Q 141.1 11 142.5 9 Z " /><path fill="rgb(28,28,26)" stroke="rgb(28,28,26)" stroke-width="1" opacity="0.5843137254901961" d="M 251.5 10 Q 254.2 9.8 255 11.5 Q 254.8 12.3 253.5 12 Q 252.8 10.8 251 10.5 L 251.5 10 Z " /><path fill="rgb(28,28,26)" stroke="rgb(28,28,26)" stroke-width="1" opacity="0.5843137254901961" d="M 134.5 12 Q 135.8 11.8 136 12.5 Q 135.2 14.2 132.5 14 Q 131.5 13.5 132.5 13 Q 134.2 13.2 134.5 12 Z " /><path fill="rgb(28,28,26)" stroke="rgb(28,28,26)" stroke-width="1" opacity="0.5843137254901961" d="M 256.5 12 L 257.5 12 Q 259.1 13.9 262 14.5 Q 261.8 15.3 260.5 15 Q 259.2 13.2 256.5 13 Q 255.5 12.5 256.5 12 Z " /><path fill="rgb(28,28,26)" stroke="rgb(28,28,26)" stroke-width="1" opacity="0.5843137254901961" d="M 127.5 15 Q 128.8 14.8 129 15.5 Q 126 16 124.5 18 L 123.5 18 Q 122.5 17.5 123.5 17 Q 126.3 16.8 127.5 15 Z " /><path fill="rgb(28,28,26)" stroke="rgb(28,28,26)" stroke-width="1" opacity="0.5843137254901961" d="M 265.5 16 Q 267.8 15.8 268 17.5 Q 267.2 18.7 266.5 17 Q 264.1 16.9 265.5 16 Z " /><path fill="rgb(28,28,26)" stroke="rgb(28,28,26)" stroke-width="1" opacity="0.5843137254901961" d="M 269.5 18 Q 274.3 19.3 277 22.5 Q 276.2 23.7 275.5 22 Q 269.9 21.2 269.5 18 Z " /><path fill="rgb(28,28,26)" stroke="rgb(28,28,26)" stroke-width="1" opacity="0.5843137254901961" d="M 119.5 19 Q 121 20 118.5 21 Q 116.7 20.7 116.5 22 Q 115 21 117.5 20 Q 119.2 20.2 119.5 19 Z " /><path fill="rgb(28,28,26)" stroke="rgb(28,28,26)" stroke-width="1" opacity="0.5843137254901961" d="M 114.5 22 Q 116 23 113.5 24 Q 110.3 23.8 109.5 26 Q 108 25 110.5 24 Q 113.7 24.2 114.5 22 Z " /><path fill="rgb(28,28,26)" stroke="rgb(28,28,26)" stroke-width="1" opacity="0.5843137254901961" d="M 278.5 23 Q 296.4 33.1 310 47.5 L 309.5 48 L 302.5 41 Q 292.2 31.8 279.5 25 Q 277 24 278.5 23 Z " /><path fill="rgb(28,28,26)" stroke="rgb(28,28,26)" stroke-width="1" opacity="0.5843137254901961" d="M 107.5 26 Q 109.5 27.5 105.5 29 Q 99.3 31.3 95.5 36 L 95 35.5 L 98.5 32 L 99.5 32 Q 102.8 28.3 107.5 26 Z " /><path fill="rgb(28,28,26)" stroke="rgb(28,28,26)" stroke-width="1" opacity="0.5843137254901961" d="M 93.5 36 L 94 36.5 L 90.5 40 L 90 39.5 L 93.5 36 Z " /><path fill="rgb(28,28,26)" stroke="rgb(28,28,26)" stroke-width="1" opacity="0.5843137254901961" d="M 87.5 41 L 88 41.5 L 79.5 50 L 79 49.5 L 87.5 41 Z " /><path fill="rgb(28,28,26)" stroke="rgb(28,28,26)" stroke-width="1" opacity="0.5843137254901961" d="M 314.5 51 L 318 54.5 L 317.5 55 L 314 51.5 L 314.5 51 Z " /><path fill="rgb(28,28,26)" stroke="rgb(28,28,26)" stroke-width="1" opacity="0.5843137254901961" d="M 72.5 56 L 73 56.5 L 66.5 63 L 66 62.5 L 72.5 56 Z " /><path fill="rgb(28,28,26)" stroke="rgb(28,28,26)" stroke-width="1" opacity="0.5843137254901961" d="M 321.5 59 Q 328.1 64.4 333 71.5 L 332.5 72 L 329 68.5 L 329 67.5 L 321 59.5 L 321.5 59 Z " /><path fill="rgb(28,28,26)" stroke="rgb(28,28,26)" stroke-width="1" opacity="0.5843137254901961" d="M 65.5 64 L 66 64.5 L 61.5 69 L 61 68.5 L 65.5 64 Z " /><path fill="rgb(28,28,26)" stroke="rgb(28,28,26)" stroke-width="1" opacity="0.5843137254901961" d="M 60.5 70 L 61 70.5 L 57.5 74 L 57 73.5 L 60.5 70 Z " /><path fill="rgb(28,28,26)" stroke="rgb(28,28,26)" stroke-width="1" opacity="0.5843137254901961" d="M 333.5 73 Q 338.5 77.5 342 83.5 Q 340.5 85.5 339 81.5 L 339 80.5 Q 335.5 77.5 333 73.5 L 333.5 73 Z " /><path fill="rgb(28,28,26)" stroke="rgb(28,28,26)" stroke-width="1" opacity="0.5843137254901961" d="M 56.5 75 L 57 75.5 L 54 78.5 L 54 79.5 L 52 81.5 L 52 82.5 Q 47.3 86.8 44.5 93 Q 43.2 92.2 45 91.5 Q 49.1 81.6 56.5 75 Z " /><path fill="rgb(28,28,26)" stroke="rgb(28,28,26)" stroke-width="1" opacity="0.5843137254901961" d="M 342.5 85 Q 345 86 343.5 87 Q 341 86 342.5 85 Z " /><path fill="rgb(28,28,26)" stroke="rgb(28,28,26)" stroke-width="1" opacity="0.5843137254901961" d="M 344.5 88 Q 347 89 345.5 90 Q 343 89 344.5 88 Z " /><path fill="rgb(28,28,26)" stroke="rgb(28,28,26)" stroke-width="1" opacity="0.5843137254901961" d="M 346.5 91 Q 349 92 347.5 93 Q 345 92 346.5 91 Z " /><path fill="rgb(28,28,26)" stroke="rgb(28,28,26)" stroke-width="1" opacity="0.5843137254901961" d="M 43.5 94 Q 44.7 94.7 43 95.5 Q 42.6 98.6 40.5 100 Q 39.2 99.2 41 98.5 Q 41.4 95.4 43.5 94 Z " /><path fill="rgb(28,28,26)" stroke="rgb(28,28,26)" stroke-width="1" opacity="0.5843137254901961" d="M 348.5 94 Q 352 96 347.5 98 Q 345.7 96.7 349 95.5 Q 347.2 94.7 348.5 94 Z " /><path fill="rgb(28,28,26)" stroke="rgb(28,28,26)" stroke-width="1" opacity="0.5843137254901961" d="M 346.5 99 Q 348.5 100.5 344.5 102 L 344 101.5 L 346.5 99 Z " /><path fill="rgb(28,28,26)" stroke="rgb(28,28,26)" stroke-width="1" opacity="0.5843137254901961" d="M 39.5 101 Q 40.7 101.7 39 102.5 Q 39.3 104.8 37.5 105 Q 36.2 104.2 38 103.5 Q 37.8 101.3 39.5 101 Z " /><path fill="rgb(28,28,26)" stroke="rgb(28,28,26)" stroke-width="1" opacity="0.5843137254901961" d="M 184.5 101 L 191.5 101 L 192 101.5 L 191.5 102 L 184.5 102 Q 183.5 101.5 184.5 101 Z " /><path fill="rgb(28,28,26)" stroke="rgb(28,28,26)" stroke-width="1" opacity="0.5843137254901961" d="M 200.5 101 L 207.5 101 L 208 101.5 L 207.5 102 L 200.5 102 Q 199.5 101.5 200.5 101 Z " /><path fill="rgb(28,28,26)" stroke="rgb(28,28,26)" stroke-width="1" opacity="0.5843137254901961" d="M 177.5 102 Q 180.3 101.3 181 102.5 Q 180.3 103.8 177.5 103 Q 176.5 102.5 177.5 102 Z " /><path fill="rgb(28,28,26)" stroke="rgb(28,28,26)" stroke-width="1" opacity="0.5843137254901961" d="M 211.5 102 Q 213.5 101.5 214 102.5 Q 213.5 103.5 211.5 103 Q 210.5 102.5 211.5 102 Z " /><path fill="rgb(28,28,26)" stroke="rgb(28,28,26)" stroke-width="1" opacity="0.5843137254901961" d="M 216.5 103 Q 218.5 102.5 219 103.5 Q 218.5 104.5 216.5 104 Q 215.5 103.5 216.5 103 Z " /><path fill="rgb(28,28,26)" stroke="rgb(28,28,26)" stroke-width="1" opacity="0.5843137254901961" d="M 343.5 103 Q 345.5 104.5 341.5 106 Q 339.5 104.5 343.5 103 Z " /><path fill="rgb(28,28,26)" stroke="rgb(28,28,26)" stroke-width="1" opacity="0.5843137254901961" d="M 169.5 104 Q 171.5 103.5 172 104.5 Q 171.5 105.5 169.5 105 Q 168.5 104.5 169.5 104 Z " /><path fill="rgb(28,28,26)" stroke="rgb(28,28,26)" stroke-width="1" opacity="0.5843137254901961" d="M 220.5 104 Q 222.5 103.5 223 104.5 Q 222.5 105.5 220.5 105 Q 219.5 104.5 220.5 104 Z " /><path fill="rgb(28,28,26)" stroke="rgb(28,28,26)" stroke-width="1" opacity="0.5843137254901961" d="M 166.5 105 Q 167.8 104.8 168 105.5 Q 165.5 107.5 161.5 108 Q 160.5 107.5 161.5 107 Q 165.1 107 166.5 105 Z " /><path fill="rgb(28,28,26)" stroke="rgb(28,28,26)" stroke-width="1" opacity="0.5843137254901961" d="M 227.5 106 Q 230.2 105.8 231 107.5 Q 230.8 108.3 229.5 108 Q 228.8 106.8 227 106.5 L 227.5 106 Z " /><path fill="rgb(28,28,26)" stroke="rgb(28,28,26)" stroke-width="1" opacity="0.5843137254901961" d="M 340.5 107 Q 342.5 108.5 338.5 110 L 338 109.5 L 340.5 107 Z " /><path fill="rgb(28,28,26)" stroke="rgb(28,28,26)" stroke-width="1" opacity="0.5843137254901961" d="M 156.5 109 Q 157.8 108.8 158 109.5 Q 150.1 112.1 144.5 117 Q 143 116 145.5 115 L 146.5 115 Q 150.2 110.7 156.5 109 Z " /><path fill="rgb(28,28,26)" stroke="rgb(28,28,26)" stroke-width="1" opacity="0.5843137254901961" d="M 234.5 109 Q 246.7 113.3 255 121.5 Q 253.7 123.2 252.5 120 Q 244.8 113.7 234.5 110 Q 233.5 109.5 234.5 109 Z " /><path fill="rgb(28,28,26)" stroke="rgb(28,28,26)" stroke-width="1" opacity="0.5843137254901961" d="M 337.5 111 L 338 111.5 L 335 114.5 Q 326.1 129.1 314.5 141 L 314 140.5 L 318 136.5 L 318 135.5 Q 327.6 126.6 334 114.5 L 337.5 111 Z " /><path fill="rgb(28,28,26)" stroke="rgb(28,28,26)" stroke-width="1" opacity="0.5843137254901961" d="M 33.5 112 Q 34.7 112.7 33 113.5 L 33 114.5 Q 29.6 117.6 28.5 123 Q 27.8 122.8 28 121.5 Q 31.2 118.7 32 113.5 L 33.5 112 Z " /><path fill="rgb(28,28,26)" stroke="rgb(28,28,26)" stroke-width="1" opacity="0.5843137254901961" d="M 380.5 112 Q 383.3 111.3 384 112.5 Q 383.3 113.8 380.5 113 Q 379.5 112.5 380.5 112 Z " /><path fill="rgb(28,28,26)" stroke="rgb(28,28,26)" stroke-width="1" opacity="0.5843137254901961" d="M 392.5 112 Q 396 111 397 112.5 Q 396 114 392.5 113 Q 391.5 112.5 392.5 112 Z " /><path fill="rgb(28,28,26)" stroke="rgb(28,28,26)" stroke-width="1" opacity="0.5843137254901961" d="M 399.5 113 Q 401.5 112.5 402 113.5 Q 401.5 114.5 399.5 114 Q 398.5 113.5 399.5 113 Z " /><path fill="rgb(28,28,26)" stroke="rgb(28,28,26)" stroke-width="1" opacity="0.5843137254901961" d="M 403.5 114 Q 407.6 113.4 409 115.5 Q 408.8 116.3 407.5 116 Q 406.8 114.3 403.5 115 Q 402.5 114.5 403.5 114 Z " /><path fill="rgb(28,28,26)" stroke="rgb(28,28,26)" stroke-width="1" opacity="0.5843137254901961" d="M 370.5 115 Q 371.8 114.8 372 115.5 Q 365.6 117.6 361.5 122 L 361 121.5 L 363.5 119 L 364.5 119 Q 366.7 116.2 370.5 115 Z " /><path fill="rgb(28,28,26)" stroke="rgb(28,28,26)" stroke-width="1" opacity="0.5843137254901961" d="M 410.5 116 Q 413.2 115.8 414 117.5 Q 413.8 118.3 412.5 118 Q 411.8 116.8 410 116.5 L 410.5 116 Z " /><path fill="rgb(28,28,26)" stroke="rgb(28,28,26)" stroke-width="1" opacity="0.5843137254901961" d="M 142.5 117 Q 144 118 141.5 119 Q 140 118 142.5 117 Z " /><path fill="rgb(28,28,26)" stroke="rgb(28,28,26)" stroke-width="1" opacity="0.5843137254901961" d="M 139.5 119 Q 141 120 138.5 121 Q 137 120 139.5 119 Z " /><path fill="rgb(28,28,26)" stroke="rgb(28,28,26)" stroke-width="1" opacity="0.5843137254901961" d="M 419.5 120 Q 433.1 126.4 443 136.5 L 442.5 137 L 438.5 133 L 437.5 133 Q 432.5 127.4 425.5 124 L 424.5 124 Q 423.2 122.2 420.5 122 Q 418 121 419.5 120 Z " /><path fill="rgb(28,28,26)" stroke="rgb(28,28,26)" stroke-width="1" opacity="0.5843137254901961" d="M 136.5 121 L 137 121.5 L 133.5 125 L 133 124.5 L 136.5 121 Z " /><path fill="rgb(28,28,26)" stroke="rgb(28,28,26)" stroke-width="1" opacity="0.5843137254901961" d="M 256.5 122 L 260 125.5 L 259.5 126 L 256 122.5 L 256.5 122 Z " /><path fill="rgb(28,28,26)" stroke="rgb(28,28,26)" stroke-width="1" opacity="0.5843137254901961" d="M 359.5 122 L 360 122.5 L 353 129.5 L 353 130.5 Q 345.5 137.5 340 146.5 L 340 147.5 L 336.5 151 L 336 150.5 L 339 147.5 Q 347.4 132.9 359.5 122 Z " /><path fill="rgb(28,28,26)" stroke="rgb(28,28,26)" stroke-width="1" opacity="0.5843137254901961" d="M 26.5 126 Q 27.3 126.3 27 127.5 Q 25.8 128.3 25.5 130 Q 24.8 129.8 25 128.5 Q 26.3 127.8 26.5 126 Z " /><path fill="rgb(28,28,26)" stroke="rgb(28,28,26)" stroke-width="1" opacity="0.5843137254901961" d="M 130.5 126 L 131 126.5 L 117 140.5 L 117 141.5 Q 108.5 150 102.5 161 Q 101.2 160.2 103 159.5 Q 113.9 139.9 130.5 126 Z " /><path fill="rgb(28,28,26)" stroke="rgb(28,28,26)" stroke-width="1" opacity="0.5843137254901961" d="M 261.5 126 L 275 139.5 L 274.5 140 L 261 126.5 L 261.5 126 Z " /><path fill="rgb(28,28,26)" stroke="rgb(28,28,26)" stroke-width="1" opacity="0.5843137254901961" d="M 23.5 133 Q 24.3 133.3 24 134.5 Q 22.8 135.3 22.5 137 Q 21.8 136.8 22 135.5 Q 23.3 134.8 23.5 133 Z " /><path fill="rgb(28,28,26)" stroke="rgb(28,28,26)" stroke-width="1" opacity="0.5843137254901961" d="M 444.5 137 Q 458.3 148.7 469 163.5 L 468.5 164 L 465 160.5 Q 456.7 146.8 444 137.5 L 444.5 137 Z " /><path fill="rgb(28,28,26)" stroke="rgb(28,28,26)" stroke-width="1" opacity="0.5843137254901961" d="M 20.5 141 Q 21.3 141.3 21 142.5 L 20 143.5 Q 20.4 146.9 18.5 148 Q 17.8 147.8 18 146.5 L 19 145.5 Q 18.6 142.1 20.5 141 Z " /><path fill="rgb(28,28,26)" stroke="rgb(28,28,26)" stroke-width="1" opacity="0.5843137254901961" d="M 276.5 142 L 280 145.5 L 279.5 146 L 276 142.5 L 276.5 142 Z " /><path fill="rgb(28,28,26)" stroke="rgb(28,28,26)" stroke-width="1" opacity="0.5843137254901961" d="M 313.5 142 L 314 142.5 L 310.5 146 L 310 145.5 L 313.5 142 Z " /><path fill="rgb(28,28,26)" stroke="rgb(28,28,26)" stroke-width="1" opacity="0.5843137254901961" d="M 280.5 147 L 284 150.5 L 283.5 151 L 280 147.5 L 280.5 147 Z " /><path fill="rgb(28,28,26)" stroke="rgb(28,28,26)" stroke-width="1" opacity="0.5843137254901961" d="M 309.5 147 L 310 147.5 L 306.5 151 L 306 150.5 L 309.5 147 Z " /><path fill="rgb(28,28,26)" stroke="rgb(28,28,26)" stroke-width="1" opacity="0.5843137254901961" d="M 284.5 152 Q 287.3 154.3 289 157.5 Q 287.5 159.5 286 155.5 Q 286.2 152.7 284 152.5 L 284.5 152 Z " /><path fill="rgb(28,28,26)" stroke="rgb(28,28,26)" stroke-width="1" opacity="0.5843137254901961" d="M 305.5 152 L 306 152.5 L 302.5 156 L 302 155.5 L 305.5 152 Z " /><path fill="rgb(28,28,26)" stroke="rgb(28,28,26)" stroke-width="1" opacity="0.5843137254901961" d="M 335.5 152 Q 337.5 153.5 333.5 155 L 333 154.5 L 335.5 152 Z " /><path fill="rgb(28,28,26)" stroke="rgb(28,28,26)" stroke-width="1" opacity="0.5843137254901961" d="M 332.5 156 Q 334.5 157.5 330.5 159 L 330 158.5 L 332.5 156 Z " /><path fill="rgb(28,28,26)" stroke="rgb(28,28,26)" stroke-width="1" opacity="0.5843137254901961" d="M 301.5 157 L 302 157.5 L 297.5 162 L 297 161.5 L 301.5 157 Z " /><path fill="rgb(28,28,26)" stroke="rgb(28,28,26)" stroke-width="1" opacity="0.5843137254901961" d="M 14.5 158 Q 15.5 158.5 15 160.5 Q 13.4 161.4 13.5 164 Q 12.5 163.5 13 161.5 Q 14.6 160.6 14.5 158 Z " /><path fill="rgb(28,28,26)" stroke="rgb(28,28,26)" stroke-width="1" opacity="0.5843137254901961" d="M 289.5 159 Q 291.3 160.3 292 162.5 Q 291 164 290 161.5 Q 288.1 159.9 289.5 159 Z " /><path fill="rgb(28,28,26)" stroke="rgb(28,28,26)" stroke-width="1" opacity="0.5843137254901961" d="M 329.5 160 L 330 160.5 L 327 163.5 Q 322.1 173.1 314.5 180 L 314 179.5 L 317 176.5 Q 321.9 166.9 329.5 160 Z " /><path fill="rgb(28,28,26)" stroke="rgb(28,28,26)" stroke-width="1" opacity="0.5843137254901961" d="M 101.5 162 Q 102.7 162.7 101 163.5 Q 101.3 165.8 99.5 166 Q 98.2 165.2 100 164.5 Q 99.8 162.3 101.5 162 Z " /><path fill="rgb(28,28,26)" stroke="rgb(28,28,26)" stroke-width="1" opacity="0.5843137254901961" d="M 296.5 163 Q 298.5 164.5 294.5 166 Q 292.3 166.3 292 164.5 Q 292.7 163.2 293.5 165 Q 296.2 165.2 296.5 163 Z " /><path fill="rgb(28,28,26)" stroke="rgb(28,28,26)" stroke-width="1" opacity="0.5843137254901961" d="M 469.5 165 Q 474.3 169.2 477 175.5 Q 476 177 475 174.5 L 475 173.5 Q 471.3 170.2 469 165.5 L 469.5 165 Z " /><path fill="rgb(28,28,26)" stroke="rgb(28,28,26)" stroke-width="1" opacity="0.5843137254901961" d="M 11.5 168 Q 12.5 168.5 12 170.5 Q 11.5 171.5 11 170.5 Q 10.5 168.5 11.5 168 Z " /><path fill="rgb(28,28,26)" stroke="rgb(28,28,26)" stroke-width="1" opacity="0.5843137254901961" d="M 10.5 172 Q 11.5 172.5 11 174.5 Q 10.5 175.5 10 174.5 Q 9.5 172.5 10.5 172 Z " /><path fill="rgb(28,28,26)" stroke="rgb(28,28,26)" stroke-width="1" opacity="0.5843137254901961" d="M 94.5 175 Q 95.3 175.3 95 176.5 Q 92.3 178.8 91.5 183 Q 90.8 182.8 91 181.5 Q 93.7 179.2 94.5 175 Z " /><path fill="rgb(28,28,26)" stroke="rgb(28,28,26)" stroke-width="1" opacity="0.5843137254901961" d="M 9.5 176 Q 10.5 176.5 10 178.5 Q 9.5 179.5 9 178.5 Q 8.5 176.5 9.5 176 Z " /><path fill="rgb(28,28,26)" stroke="rgb(28,28,26)" stroke-width="1" opacity="0.5843137254901961" d="M 477.5 177 Q 479.3 178.3 480 180.5 Q 479 182 478 179.5 Q 476.1 177.9 477.5 177 Z " /><path fill="rgb(28,28,26)" stroke="rgb(28,28,26)" stroke-width="1" opacity="0.5843137254901961" d="M 8.5 180 Q 9.5 180.5 9 182.5 Q 8.5 183.5 8 182.5 Q 7.5 180.5 8.5 180 Z " /><path fill="rgb(28,28,26)" stroke="rgb(28,28,26)" stroke-width="1" opacity="0.5843137254901961" d="M 313.5 181 Q 315.5 182.5 311.5 184 L 311 183.5 L 313.5 181 Z " /><path fill="rgb(28,28,26)" stroke="rgb(28,28,26)" stroke-width="1" opacity="0.5843137254901961" d="M 480.5 182 Q 482.3 183.3 483 185.5 Q 482 187 481 184.5 Q 479.1 182.9 480.5 182 Z " /><path fill="rgb(28,28,26)" stroke="rgb(28,28,26)" stroke-width="1" opacity="0.5843137254901961" d="M 7.5 184 Q 8.5 184.5 8 186.5 Q 7.5 187.5 7 186.5 Q 6.5 184.5 7.5 184 Z " /><path fill="rgb(28,28,26)" stroke="rgb(28,28,26)" stroke-width="1" opacity="0.5843137254901961" d="M 90.5 184 Q 91.3 184.3 91 185.5 Q 89.8 186.3 89.5 188 Q 88.8 187.8 89 186.5 Q 90.3 185.8 90.5 184 Z " /><path fill="rgb(28,28,26)" stroke="rgb(28,28,26)" stroke-width="1" opacity="0.5843137254901961" d="M 310.5 185 L 311 185.5 L 308 188.5 L 308 189.5 Q 300.7 196.2 296 205.5 L 292.5 209 L 292 208.5 L 295 205.5 L 295 204.5 Q 302.3 197.8 307 188.5 L 310.5 185 Z " /><path fill="rgb(28,28,26)" stroke="rgb(28,28,26)" stroke-width="1" opacity="0.5843137254901961" d="M 483.5 187 Q 484.6 192.4 488 195.5 L 488 196.5 L 489 197.5 L 489 198.5 L 490 199.5 L 490 200.5 L 491 201.5 L 491 202.5 Q 490.5 203.5 490 202.5 L 490 201.5 L 489 200.5 L 489 199.5 L 488 198.5 L 488 197.5 L 487 196.5 L 487 195.5 Q 484.1 192.9 483 188.5 Q 482.8 187.3 483.5 187 Z " /><path fill="rgb(28,28,26)" stroke="rgb(28,28,26)" stroke-width="1" opacity="0.5843137254901961" d="M 6.5 189 Q 7.5 189.5 7 191.5 Q 6.5 192.5 6 191.5 Q 5.5 189.5 6.5 189 Z " /><path fill="rgb(28,28,26)" stroke="rgb(28,28,26)" stroke-width="1" opacity="0.5843137254901961" d="M 87.5 192 Q 88.3 192.3 88 193.5 L 87 194.5 Q 87.3 198.3 85.5 200 Q 84.5 199.5 85 197.5 L 86 196.5 Q 85.6 193.1 87.5 192 Z " /><path fill="rgb(28,28,26)" stroke="rgb(28,28,26)" stroke-width="1" opacity="0.5843137254901961" d="M 5.5 194 Q 6.8 194.8 6 197.5 Q 5.5 198.5 5 197.5 Q 4.3 194.8 5.5 194 Z " /><path fill="rgb(28,28,26)" stroke="rgb(28,28,26)" stroke-width="1" opacity="0.5843137254901961" d="M 4.5 200 Q 5.8 200.8 5 203.5 Q 4.5 204.5 4 203.5 Q 3.3 200.8 4.5 200 Z " /><path fill="rgb(28,28,26)" stroke="rgb(28,28,26)" stroke-width="1" opacity="0.5843137254901961" d="M 83.5 204 Q 84.5 204.5 84 206.5 Q 83.5 207.5 83 206.5 Q 82.5 204.5 83.5 204 Z " /><path fill="rgb(28,28,26)" stroke="rgb(28,28,26)" stroke-width="1" opacity="0.5843137254901961" d="M 3.5 206 Q 5 207 4 210.5 Q 3.5 211.5 3 210.5 Q 2 207 3.5 206 Z " /><path fill="rgb(28,28,26)" stroke="rgb(28,28,26)" stroke-width="1" opacity="0.5843137254901961" d="M 376.5 206 Q 380 205 381 206.5 Q 380 208 376.5 207 Q 375.5 206.5 376.5 206 Z " /><path fill="rgb(28,28,26)" stroke="rgb(28,28,26)" stroke-width="1" opacity="0.5843137254901961" d="M 492.5 206 Q 494.2 206.8 494 209.5 Q 493.5 210.5 493 209.5 Q 491.3 208 492.5 206 Z " /><path fill="rgb(28,28,26)" stroke="rgb(28,28,26)" stroke-width="1" opacity="0.5843137254901961" d="M 383.5 207 Q 385.5 206.5 386 207.5 Q 385.5 208.5 383.5 208 Q 382.5 207.5 383.5 207 Z " /><path fill="rgb(28,28,26)" stroke="rgb(28,28,26)" stroke-width="1" opacity="0.5843137254901961" d="M 291.5 210 Q 293.5 211.5 289.5 213 L 289 212.5 L 291.5 210 Z " /><path fill="rgb(28,28,26)" stroke="rgb(28,28,26)" stroke-width="1" opacity="0.5843137254901961" d="M 392.5 210 Q 395.4 211.1 397 213.5 Q 395.7 215.2 394.5 212 Q 390.7 211.3 392.5 210 Z " /><path fill="rgb(28,28,26)" stroke="rgb(28,28,26)" stroke-width="1" opacity="0.5843137254901961" d="M 81.5 211 Q 82.8 211.8 82 214.5 Q 81.5 215.5 81 214.5 Q 80.3 211.8 81.5 211 Z " /><path fill="rgb(28,28,26)" stroke="rgb(28,28,26)" stroke-width="1" opacity="0.5843137254901961" d="M 494.5 211 Q 496.2 211.8 496 214.5 Q 495.5 215.5 495 214.5 Q 493.3 213 494.5 211 Z " /><path fill="rgb(28,28,26)" stroke="rgb(28,28,26)" stroke-width="1" opacity="0.5843137254901961" d="M 357.5 212 Q 358.8 211.8 359 212.5 Q 356.5 214.5 352.5 215 Q 351.5 214.5 352.5 214 Q 356.1 214.1 357.5 212 Z " /><path fill="rgb(28,28,26)" stroke="rgb(28,28,26)" stroke-width="1" opacity="0.5843137254901961" d="M 2.5 214 Q 4.2 215.2 3 219.5 Q 2.5 220.5 2 219.5 Q 0.7 215.2 2.5 214 Z " /><path fill="rgb(28,28,26)" stroke="rgb(28,28,26)" stroke-width="1" opacity="0.5843137254901961" d="M 288.5 214 L 289 214.5 L 286 217.5 L 286 218.5 Q 278.7 225.2 274 234.5 L 270.5 238 L 270 237.5 L 273 234.5 L 273 233.5 Q 280.3 226.8 285 217.5 L 288.5 214 Z " /><path fill="rgb(28,28,26)" stroke="rgb(28,28,26)" stroke-width="1" opacity="0.5843137254901961" d="M 398.5 214 L 404 219.5 L 403.5 220 L 398 214.5 L 398.5 214 Z " /><path fill="rgb(28,28,26)" stroke="rgb(28,28,26)" stroke-width="1" opacity="0.5843137254901961" d="M 80.5 216 Q 81.8 216.8 81 219.5 Q 80.5 220.5 80 219.5 Q 79.3 216.8 80.5 216 Z " /><path fill="rgb(28,28,26)" stroke="rgb(28,28,26)" stroke-width="1" opacity="0.5843137254901961" d="M 496.5 216 Q 498.4 217.1 498 220.5 Q 497.5 221.5 497 220.5 Q 495.2 218.2 496.5 216 Z " /><path fill="rgb(28,28,26)" stroke="rgb(28,28,26)" stroke-width="1" opacity="0.5843137254901961" d="M 340.5 218 Q 341.8 217.8 342 218.5 Q 341.2 220.2 338.5 220 Q 337.5 219.5 338.5 219 Q 340.2 219.2 340.5 218 Z " /><path fill="rgb(28,28,26)" stroke="rgb(28,28,26)" stroke-width="1" opacity="0.5843137254901961" d="M 79.5 222 Q 80.5 222.5 80 224.5 Q 79.5 225.5 79 224.5 Q 78.5 222.5 79.5 222 Z " /><path fill="rgb(28,28,26)" stroke="rgb(28,28,26)" stroke-width="1" opacity="0.5843137254901961" d="M 406.5 222 L 410 225.5 L 409.5 226 L 406 222.5 L 406.5 222 Z " /><path fill="rgb(28,28,26)" stroke="rgb(28,28,26)" stroke-width="1" opacity="0.5843137254901961" d="M 1.5 223 L 2 223.5 L 2 230.5 Q 1.5 231.5 1 230.5 L 1 223.5 L 1.5 223 Z " /><path fill="rgb(28,28,26)" stroke="rgb(28,28,26)" stroke-width="1" opacity="0.5843137254901961" d="M 323.5 224 Q 324.8 223.8 325 224.5 Q 324.2 226.2 321.5 226 Q 320.5 225.5 321.5 225 Q 323.2 225.2 323.5 224 Z " /><path fill="rgb(28,28,26)" stroke="rgb(28,28,26)" stroke-width="1" opacity="0.5843137254901961" d="M 78.5 227 Q 80 228 79 231.5 Q 78.5 232.5 78 231.5 Q 77 228 78.5 227 Z " /><path fill="rgb(28,28,26)" stroke="rgb(28,28,26)" stroke-width="1" opacity="0.5843137254901961" d="M 387.5 227 Q 390.1 226.2 389 229.5 Q 388.5 230.5 388 229.5 Q 386.1 227.9 387.5 227 Z " /><path fill="rgb(28,28,26)" stroke="rgb(28,28,26)" stroke-width="1" opacity="0.5843137254901961" d="M 410.5 227 Q 414.7 230.3 417 235.5 Q 416 237 415 234.5 Q 413.5 230 410 227.5 L 410.5 227 Z " /><path fill="rgb(28,28,26)" stroke="rgb(28,28,26)" stroke-width="1" opacity="0.5843137254901961" d="M 384.5 228 Q 385.8 227.8 386 228.5 Q 385.2 230.2 382.5 230 Q 381.5 229.5 382.5 229 Q 384.2 229.2 384.5 228 Z " /><path fill="rgb(28,28,26)" stroke="rgb(28,28,26)" stroke-width="1" opacity="0.5843137254901961" d="M 306.5 230 Q 307.8 229.8 308 230.5 Q 307.2 232.2 304.5 232 Q 303.5 231.5 304.5 231 Q 306.2 231.2 306.5 230 Z " /><path fill="rgb(28,28,26)" stroke="rgb(28,28,26)" stroke-width="1" opacity="0.5843137254901961" d="M 501.5 231 Q 503.3 232.7 503 236.5 Q 502.5 237.5 502 236.5 Q 500.3 234 501.5 231 Z " /><path fill="rgb(28,28,26)" stroke="rgb(28,28,26)" stroke-width="1" opacity="0.5843137254901961" d="M 387.5 233 Q 388.8 233.8 388 236.5 Q 387.5 237.5 387 236.5 Q 386.3 233.8 387.5 233 Z " /><path fill="rgb(28,28,26)" stroke="rgb(28,28,26)" stroke-width="1" opacity="0.5843137254901961" d="M 0.5 235 L 1 235.5 L 1 249.5 Q 0.5 250.5 0 249.5 L 0 235.5 L 0.5 235 Z " /><path fill="rgb(28,28,26)" stroke="rgb(28,28,26)" stroke-width="1" opacity="0.5843137254901961" d="M 77.5 235 Q 79 236 78 239.5 Q 77.5 240.5 77 239.5 Q 76 236 77.5 235 Z " /><path fill="rgb(28,28,26)" stroke="rgb(28,28,26)" stroke-width="1" opacity="0.5843137254901961" d="M 366.5 235 Q 367.8 234.8 368 235.5 Q 367.2 237.2 364.5 237 Q 363.5 236.5 364.5 236 Q 366.2 236.2 366.5 235 Z " /><path fill="rgb(28,28,26)" stroke="rgb(28,28,26)" stroke-width="1" opacity="0.5843137254901961" d="M 361.5 237 Q 362.8 236.8 363 237.5 Q 362.2 239.2 359.5 239 Q 358.5 238.5 359.5 238 Q 361.2 238.2 361.5 237 Z " /><path fill="rgb(28,28,26)" stroke="rgb(28,28,26)" stroke-width="1" opacity="0.5843137254901961" d="M 417.5 237 L 419 238.5 L 419 239.5 L 420 240.5 L 420 241.5 Q 422.9 244.1 424 248.5 Q 423 250 422 247.5 L 422 246.5 L 421 245.5 L 421 244.5 Q 418.1 241.9 417 237.5 L 417.5 237 Z " /><path fill="rgb(28,28,26)" stroke="rgb(28,28,26)" stroke-width="1" opacity="0.5843137254901961" d="M 503.5 238 Q 504.5 238.5 504 240.5 Q 503.5 241.5 503 240.5 Q 502.5 238.5 503.5 238 Z " /><path fill="rgb(28,28,26)" stroke="rgb(28,28,26)" stroke-width="1" opacity="0.5843137254901961" d="M 269.5 239 L 270 239.5 L 267 242.5 Q 266.3 244.8 268.5 244 Q 269.5 244.5 268.5 245 Q 266.7 245.2 266.5 244 Q 265.5 244.6 266 246 Q 264.6 246.5 264 245.5 Q 266.2 241.7 269.5 239 Z " /><path fill="rgb(28,28,26)" stroke="rgb(28,28,26)" stroke-width="1" opacity="0.5843137254901961" d="M 356.5 239 Q 357.8 238.8 358 239.5 Q 357.2 241.2 354.5 241 Q 353.5 240.5 354.5 240 Q 356.2 240.2 356.5 239 Z " /><path fill="rgb(28,28,26)" stroke="rgb(28,28,26)" stroke-width="1" opacity="0.5843137254901961" d="M 386.5 241 Q 387.8 241.8 387 244.5 Q 386.5 245.5 386 244.5 Q 385.3 241.8 386.5 241 Z " /><path fill="rgb(28,28,26)" stroke="rgb(28,28,26)" stroke-width="1" opacity="0.5843137254901961" d="M 76.5 242 L 77 242.5 L 77 269.5 Q 76.5 270.5 76 269.5 L 76 242.5 L 76.5 242 Z " /><path fill="rgb(28,28,26)" stroke="rgb(28,28,26)" stroke-width="1" opacity="0.5843137254901961" d="M 504.5 242 Q 505.5 242.5 505 244.5 Q 504.5 245.5 504 244.5 Q 503.5 242.5 504.5 242 Z " /><path fill="rgb(28,28,26)" stroke="rgb(28,28,26)" stroke-width="1" opacity="0.5843137254901961" d="M 343.5 244 Q 344.8 243.8 345 244.5 Q 344.2 246.2 341.5 246 Q 340.5 245.5 341.5 245 Q 343.2 245.2 343.5 244 Z " /><path fill="rgb(28,28,26)" stroke="rgb(28,28,26)" stroke-width="1" opacity="0.5843137254901961" d="M 338.5 246 Q 339.8 245.8 340 246.5 Q 339.2 248.2 336.5 248 Q 335.5 247.5 336.5 247 Q 338.2 247.2 338.5 246 Z " /><path fill="rgb(28,28,26)" stroke="rgb(28,28,26)" stroke-width="1" opacity="0.5843137254901961" d="M 333.5 248 Q 334.8 247.8 335 248.5 Q 334.2 250.2 331.5 250 Q 330.5 249.5 331.5 249 Q 333.2 249.2 333.5 248 Z " /><path fill="rgb(28,28,26)" stroke="rgb(28,28,26)" stroke-width="1" opacity="0.5843137254901961" d="M 385.5 249 Q 386.8 249.8 386 252.5 Q 385.5 253.5 385 252.5 Q 384.3 249.8 385.5 249 Z " /><path fill="rgb(28,28,26)" stroke="rgb(28,28,26)" stroke-width="1" opacity="0.5843137254901961" d="M 424.5 250 Q 426.2 250.8 426 253.5 Q 425.5 254.5 425 253.5 Q 423.3 252 424.5 250 Z " /><path fill="rgb(28,28,26)" stroke="rgb(28,28,26)" stroke-width="1" opacity="0.5843137254901961" d="M 506.5 251 Q 507.5 251.5 507 253.5 Q 506.5 254.5 506 253.5 Q 505.5 251.5 506.5 251 Z " /><path fill="rgb(28,28,26)" stroke="rgb(28,28,26)" stroke-width="1" opacity="0.5843137254901961" d="M 315.5 255 Q 316.8 254.8 317 255.5 Q 316.2 257.2 313.5 257 Q 312.5 256.5 313.5 256 Q 315.2 256.2 315.5 255 Z " /><path fill="rgb(28,28,26)" stroke="rgb(28,28,26)" stroke-width="1" opacity="0.5843137254901961" d="M 426.5 255 Q 427 257.9 429 259.5 L 429 260.5 Q 428.5 261.5 428 260.5 Q 428.2 257.3 426 256.5 Q 425.8 255.3 426.5 255 Z " /><path fill="rgb(28,28,26)" stroke="rgb(28,28,26)" stroke-width="1" opacity="0.5843137254901961" d="M 507.5 256 Q 508.8 256.8 508 259.5 Q 507.5 260.5 507 259.5 Q 506.3 256.8 507.5 256 Z " /><path fill="rgb(28,28,26)" stroke="rgb(28,28,26)" stroke-width="1" opacity="0.5843137254901961" d="M 310.5 257 Q 311.8 256.8 312 257.5 Q 311.2 259.2 308.5 259 Q 307.5 258.5 308.5 258 Q 310.2 258.2 310.5 257 Z " /><path fill="rgb(28,28,26)" stroke="rgb(28,28,26)" stroke-width="1" opacity="0.5843137254901961" d="M 384.5 257 Q 385.8 257.8 385 260.5 Q 384.5 261.5 384 260.5 Q 383.3 257.8 384.5 257 Z " /><path fill="rgb(28,28,26)" stroke="rgb(28,28,26)" stroke-width="1" opacity="0.5843137254901961" d="M 305.5 259 Q 306.8 258.8 307 259.5 Q 306.2 261.2 303.5 261 Q 302.5 260.5 303.5 260 Q 305.2 260.2 305.5 259 Z " /><path fill="rgb(28,28,26)" stroke="rgb(28,28,26)" stroke-width="1" opacity="0.5843137254901961" d="M 508.5 262 Q 509.8 262.8 509 265.5 Q 508.5 266.5 508 265.5 Q 507.3 262.8 508.5 262 Z " /><path fill="rgb(28,28,26)" stroke="rgb(28,28,26)" stroke-width="1" opacity="0.5843137254901961" d="M 383.5 264 Q 385 265 384 268.5 Q 383.5 269.5 383 268.5 Q 382 265 383.5 264 Z " /><path fill="rgb(28,28,26)" stroke="rgb(28,28,26)" stroke-width="1" opacity="0.5843137254901961" d="M 287.5 266 Q 288.8 265.8 289 266.5 Q 288.2 268.2 285.5 268 Q 284.5 267.5 285.5 267 Q 287.2 267.2 287.5 266 Z " /><path fill="rgb(28,28,26)" stroke="rgb(28,28,26)" stroke-width="1" opacity="0.5843137254901961" d="M 282.5 268 Q 283.8 267.8 284 268.5 Q 283.2 270.2 280.5 270 Q 279.5 269.5 280.5 269 Q 282.2 269.2 282.5 268 Z " /><path fill="rgb(28,28,26)" stroke="rgb(28,28,26)" stroke-width="1" opacity="0.5843137254901961" d="M 509.5 268 Q 510.8 268.8 510 271.5 Q 509.5 272.5 509 271.5 Q 508.3 268.8 509.5 268 Z " /><path fill="rgb(28,28,26)" stroke="rgb(28,28,26)" stroke-width="1" opacity="0.5843137254901961" d="M 277.5 270 Q 278.8 269.8 279 270.5 Q 278.2 272.2 275.5 272 Q 274.5 271.5 275.5 271 Q 277.2 271.2 277.5 270 Z " /><path fill="rgb(28,28,26)" stroke="rgb(28,28,26)" stroke-width="1" opacity="0.5843137254901961" d="M 0.5 271 L 1 271.5 L 1 282.5 Q 0.5 283.5 0 282.5 L 0 271.5 L 0.5 271 Z " /><path fill="rgb(28,28,26)" stroke="rgb(28,28,26)" stroke-width="1" opacity="0.5843137254901961" d="M 432.5 271 Q 433.5 271.5 433 273.5 Q 432.5 274.5 432 273.5 Q 431.5 271.5 432.5 271 Z " /><path fill="rgb(28,28,26)" stroke="rgb(28,28,26)" stroke-width="1" opacity="0.5843137254901961" d="M 272.5 272 Q 273.8 271.8 274 272.5 Q 273.4 273.5 272 273 Q 271.5 274.8 273 275.5 Q 272 277 271 274.5 Q 270.8 272.3 272.5 272 Z " /><path fill="rgb(28,28,26)" stroke="rgb(28,28,26)" stroke-width="1" opacity="0.5843137254901961" d="M 382.5 272 Q 384 273 383 276.5 Q 382.5 277.5 382 276.5 Q 381 273 382.5 272 Z " /><path fill="rgb(28,28,26)" stroke="rgb(28,28,26)" stroke-width="1" opacity="0.5843137254901961" d="M 77.5 275 Q 79.2 276.2 78 280.5 Q 77.5 281.5 77 280.5 Q 75.8 276.2 77.5 275 Z " /><path fill="rgb(28,28,26)" stroke="rgb(28,28,26)" stroke-width="1" opacity="0.5843137254901961" d="M 433.5 275 Q 434.8 275.8 434 278.5 Q 433.5 279.5 433 278.5 Q 432.3 275.8 433.5 275 Z " /><path fill="rgb(28,28,26)" stroke="rgb(28,28,26)" stroke-width="1" opacity="0.5843137254901961" d="M 510.5 276 Q 512.5 277.5 511 282.5 Q 510.5 283.5 510 282.5 Q 508.5 277.5 510.5 276 Z " /><path fill="rgb(28,28,26)" stroke="rgb(28,28,26)" stroke-width="1" opacity="0.5843137254901961" d="M 381.5 280 Q 383 281 382 284.5 Q 381.5 285.5 381 284.5 Q 380 281 381.5 280 Z " /><path fill="rgb(28,28,26)" stroke="rgb(28,28,26)" stroke-width="1" opacity="0.5843137254901961" d="M 434.5 280 Q 435.5 280.5 435 282.5 Q 434.5 283.5 434 282.5 Q 433.5 280.5 434.5 280 Z " /><path fill="rgb(28,28,26)" stroke="rgb(28,28,26)" stroke-width="1" opacity="0.5843137254901961" d="M 275.5 281 Q 278.8 283.8 280 288.5 Q 279 290 278 287.5 L 278 286.5 Q 275.8 284.7 275 281.5 L 275.5 281 Z " /><path fill="rgb(28,28,26)" stroke="rgb(28,28,26)" stroke-width="1" opacity="0.5843137254901961" d="M 78.5 284 Q 80.2 285.2 79 289.5 Q 78.5 290.5 78 289.5 Q 76.8 285.2 78.5 284 Z " /><path fill="rgb(28,28,26)" stroke="rgb(28,28,26)" stroke-width="1" opacity="0.5843137254901961" d="M 435.5 285 Q 436.8 285.8 436 288.5 Q 435.5 289.5 435 288.5 Q 434.3 285.8 435.5 285 Z " /><path fill="rgb(28,28,26)" stroke="rgb(28,28,26)" stroke-width="1" opacity="0.5843137254901961" d="M 511.5 286 L 512 286.5 L 512 300.5 Q 511.5 301.5 511 300.5 L 511 286.5 L 511.5 286 Z " /><path fill="rgb(28,28,26)" stroke="rgb(28,28,26)" stroke-width="1" opacity="0.5843137254901961" d="M 1.5 288 Q 3.5 289.5 2 294.5 Q 1.5 295.5 1 294.5 Q -0.5 289.5 1.5 288 Z " /><path fill="rgb(28,28,26)" stroke="rgb(28,28,26)" stroke-width="1" opacity="0.5843137254901961" d="M 380.5 288 Q 382 289 381 292.5 Q 380.5 293.5 380 292.5 Q 379 289 380.5 288 Z " /><path fill="rgb(28,28,26)" stroke="rgb(28,28,26)" stroke-width="1" opacity="0.5843137254901961" d="M 79.5 292 Q 80.5 292.5 80 294.5 Q 79.5 295.5 79 294.5 Q 78.5 292.5 79.5 292 Z " /><path fill="rgb(28,28,26)" stroke="rgb(28,28,26)" stroke-width="1" opacity="0.5843137254901961" d="M 436.5 293 Q 438.5 294.5 437 299.5 Q 436.5 300.5 436 299.5 Q 434.5 294.5 436.5 293 Z " /><path fill="rgb(28,28,26)" stroke="rgb(28,28,26)" stroke-width="1" opacity="0.5843137254901961" d="M 379.5 295 Q 381.2 296.2 380 300.5 Q 379.5 301.5 379 300.5 Q 377.8 296.2 379.5 295 Z " /><path fill="rgb(28,28,26)" stroke="rgb(28,28,26)" stroke-width="1" opacity="0.5843137254901961" d="M 283.5 296 Q 285.3 297.3 286 299.5 Q 285 301 284 298.5 Q 282.1 296.9 283.5 296 Z " /><path fill="rgb(28,28,26)" stroke="rgb(28,28,26)" stroke-width="1" opacity="0.5843137254901961" d="M 80.5 297 Q 81.5 297.5 81 299.5 Q 80.5 300.5 80 299.5 Q 79.5 297.5 80.5 297 Z " /><path fill="rgb(28,28,26)" stroke="rgb(28,28,26)" stroke-width="1" opacity="0.5843137254901961" d="M 2.5 298 Q 4.2 299.3 3 303.5 Q 2.5 304.5 2 303.5 Q 0.7 299.3 2.5 298 Z " /><path fill="rgb(28,28,26)" stroke="rgb(28,28,26)" stroke-width="1" opacity="0.5843137254901961" d="M 81.5 302 Q 82.5 302.5 82 304.5 Q 81.5 305.5 81 304.5 Q 80.5 302.5 81.5 302 Z " /><path fill="rgb(28,28,26)" stroke="rgb(28,28,26)" stroke-width="1" opacity="0.5843137254901961" d="M 286.5 303 Q 288.5 304.5 284.5 306 L 284 305.5 L 286.5 303 Z " /><path fill="rgb(28,28,26)" stroke="rgb(28,28,26)" stroke-width="1" opacity="0.5843137254901961" d="M 378.5 303 Q 380.3 304.2 379 308.5 Q 378.5 309.5 378 308.5 Q 376.8 304.3 378.5 303 Z " /><path fill="rgb(28,28,26)" stroke="rgb(28,28,26)" stroke-width="1" opacity="0.5843137254901961" d="M 3.5 306 Q 4.8 306.8 4 309.5 Q 3.5 310.5 3 309.5 Q 2.3 306.8 3.5 306 Z " /><path fill="rgb(28,28,26)" stroke="rgb(28,28,26)" stroke-width="1" opacity="0.5843137254901961" d="M 82.5 306 Q 83.5 306.5 83 308.5 Q 82.5 309.5 82 308.5 Q 81.5 306.5 82.5 306 Z " /><path fill="rgb(28,28,26)" stroke="rgb(28,28,26)" stroke-width="1" opacity="0.5843137254901961" d="M 283.5 307 Q 285.5 308.5 281.5 310 L 281 309.5 L 283.5 307 Z " /><path fill="rgb(28,28,26)" stroke="rgb(28,28,26)" stroke-width="1" opacity="0.5843137254901961" d="M 436.5 309 L 437 309.5 L 437 319.5 Q 436.5 320.5 436 319.5 L 436 309.5 L 436.5 309 Z " /><path fill="rgb(28,28,26)" stroke="rgb(28,28,26)" stroke-width="1" opacity="0.5843137254901961" d="M 83.5 310 Q 84.5 310.5 84 312.5 Q 83.5 313.5 83 312.5 Q 82.5 310.5 83.5 310 Z " /><path fill="rgb(28,28,26)" stroke="rgb(28,28,26)" stroke-width="1" opacity="0.5843137254901961" d="M 280.5 311 Q 282.5 312.5 278.5 314 Q 276.5 312.5 280.5 311 Z " /><path fill="rgb(28,28,26)" stroke="rgb(28,28,26)" stroke-width="1" opacity="0.5843137254901961" d="M 377.5 311 Q 379 312 378 315.5 Q 377.5 316.5 377 315.5 Q 376 312 377.5 311 Z " /><path fill="rgb(28,28,26)" stroke="rgb(28,28,26)" stroke-width="1" opacity="0.5843137254901961" d="M 4.5 312 Q 6 313 5 316.5 Q 4.5 317.5 4 316.5 Q 3 313 4.5 312 Z " /><path fill="rgb(28,28,26)" stroke="rgb(28,28,26)" stroke-width="1" opacity="0.5843137254901961" d="M 84.5 314 Q 85.5 314.5 85 316.5 Q 84.5 317.5 84 316.5 Q 83.5 314.5 84.5 314 Z " /><path fill="rgb(28,28,26)" stroke="rgb(28,28,26)" stroke-width="1" opacity="0.5843137254901961" d="M 511.5 314 L 512 314.5 L 512 327.5 Q 511.5 328.5 511 327.5 L 511 314.5 L 511.5 314 Z " /><path fill="rgb(28,28,26)" stroke="rgb(28,28,26)" stroke-width="1" opacity="0.5843137254901961" d="M 277.5 315 Q 279 316 276.5 317 Q 275 316 277.5 315 Z " /><path fill="rgb(28,28,26)" stroke="rgb(28,28,26)" stroke-width="1" opacity="0.5843137254901961" d="M 5.5 319 Q 6.5 319.5 6 321.5 Q 5.5 322.5 5 321.5 Q 4.5 319.5 5.5 319 Z " /><path fill="rgb(28,28,26)" stroke="rgb(28,28,26)" stroke-width="1" opacity="0.5843137254901961" d="M 274.5 319 Q 276 320 273.5 321 Q 272 320 274.5 319 Z " /><path fill="rgb(28,28,26)" stroke="rgb(28,28,26)" stroke-width="1" opacity="0.5843137254901961" d="M 376.5 319 Q 378 320 377 323.5 Q 376.5 324.5 376 323.5 Q 375 320 376.5 319 Z " /><path fill="rgb(28,28,26)" stroke="rgb(28,28,26)" stroke-width="1" opacity="0.5843137254901961" d="M 86.5 321 Q 88.2 321.8 88 324.5 Q 87.5 325.5 87 324.5 Q 85.3 323 86.5 321 Z " /><path fill="rgb(28,28,26)" stroke="rgb(28,28,26)" stroke-width="1" opacity="0.5843137254901961" d="M 271.5 323 Q 273 324 270.5 325 Q 269 324 271.5 323 Z " /><path fill="rgb(28,28,26)" stroke="rgb(28,28,26)" stroke-width="1" opacity="0.5843137254901961" d="M 435.5 323 Q 437 324 436 327.5 Q 435.5 328.5 435 327.5 Q 434 324 435.5 323 Z " /><path fill="rgb(28,28,26)" stroke="rgb(28,28,26)" stroke-width="1" opacity="0.5843137254901961" d="M 6.5 324 Q 7.5 324.5 7 326.5 Q 6.5 327.5 6 326.5 Q 5.5 324.5 6.5 324 Z " /><path fill="rgb(28,28,26)" stroke="rgb(28,28,26)" stroke-width="1" opacity="0.5843137254901961" d="M 269.5 326 Q 271.5 327.5 267.5 329 L 267 328.5 L 269.5 326 Z " /><path fill="rgb(28,28,26)" stroke="rgb(28,28,26)" stroke-width="1" opacity="0.5843137254901961" d="M 375.5 326 Q 377.2 327.2 376 331.5 Q 375.5 332.5 375 331.5 Q 373.7 327.3 375.5 326 Z " /><path fill="rgb(28,28,26)" stroke="rgb(28,28,26)" stroke-width="1" opacity="0.5843137254901961" d="M 7.5 329 Q 8.5 329.5 8 331.5 Q 7.5 332.5 7 331.5 Q 6.5 329.5 7.5 329 Z " /><path fill="rgb(28,28,26)" stroke="rgb(28,28,26)" stroke-width="1" opacity="0.5843137254901961" d="M 89.5 329 Q 91.2 329.8 91 332.5 Q 90.5 333.5 90 332.5 Q 88.3 331 89.5 329 Z " /><path fill="rgb(28,28,26)" stroke="rgb(28,28,26)" stroke-width="1" opacity="0.5843137254901961" d="M 266.5 330 Q 268.5 331.5 264.5 333 Q 262.5 331.5 266.5 330 Z " /><path fill="rgb(28,28,26)" stroke="rgb(28,28,26)" stroke-width="1" opacity="0.5843137254901961" d="M 434.5 330 Q 435.5 330.5 435 332.5 Q 434.5 333.5 434 332.5 Q 433.5 330.5 434.5 330 Z " /><path fill="rgb(28,28,26)" stroke="rgb(28,28,26)" stroke-width="1" opacity="0.5843137254901961" d="M 510.5 331 Q 512.2 332.2 511 336.5 Q 510.5 337.5 510 336.5 Q 508.7 332.2 510.5 331 Z " /><path fill="rgb(28,28,26)" stroke="rgb(28,28,26)" stroke-width="1" opacity="0.5843137254901961" d="M 8.5 333 Q 9.5 333.5 9 335.5 Q 8.5 336.5 8 335.5 Q 7.5 333.5 8.5 333 Z " /><path fill="rgb(28,28,26)" stroke="rgb(28,28,26)" stroke-width="1" opacity="0.5843137254901961" d="M 91.5 334 Q 92.3 338.2 95 340.5 L 95 341.5 Q 94.5 342.5 94 341.5 L 94 340.5 Q 91.8 338.7 91 335.5 Q 90.8 334.3 91.5 334 Z " /><path fill="rgb(28,28,26)" stroke="rgb(28,28,26)" stroke-width="1" opacity="0.5843137254901961" d="M 263.5 334 Q 265.5 335.5 261.5 337 L 261 336.5 L 263.5 334 Z " /><path fill="rgb(28,28,26)" stroke="rgb(28,28,26)" stroke-width="1" opacity="0.5843137254901961" d="M 374.5 334 Q 376.2 335.2 375 339.5 Q 374.5 340.5 374 339.5 Q 372.8 335.2 374.5 334 Z " /><path fill="rgb(28,28,26)" stroke="rgb(28,28,26)" stroke-width="1" opacity="0.5843137254901961" d="M 433.5 334 Q 434.5 334.5 434 336.5 Q 433.5 337.5 433 336.5 Q 432.5 334.5 433.5 334 Z " /><path fill="rgb(28,28,26)" stroke="rgb(28,28,26)" stroke-width="1" opacity="0.5843137254901961" d="M 9.5 337 Q 10.5 337.5 10 339.5 Q 9.5 340.5 9 339.5 Q 8.5 337.5 9.5 337 Z " /><path fill="rgb(28,28,26)" stroke="rgb(28,28,26)" stroke-width="1" opacity="0.5843137254901961" d="M 260.5 338 Q 262.5 339.5 258.5 341 L 258 340.5 L 260.5 338 Z " /><path fill="rgb(28,28,26)" stroke="rgb(28,28,26)" stroke-width="1" opacity="0.5843137254901961" d="M 432.5 339 Q 433.5 339.5 433 341.5 Q 432.5 342.5 432 341.5 Q 431.5 339.5 432.5 339 Z " /><path fill="rgb(28,28,26)" stroke="rgb(28,28,26)" stroke-width="1" opacity="0.5843137254901961" d="M 509.5 340 Q 511.2 341.2 510 345.5 Q 509.5 346.5 509 345.5 Q 507.7 341.2 509.5 340 Z " /><path fill="rgb(28,28,26)" stroke="rgb(28,28,26)" stroke-width="1" opacity="0.5843137254901961" d="M 10.5 341 Q 11.5 341.5 11 343.5 Q 10.5 344.5 10 343.5 Q 9.5 341.5 10.5 341 Z " /><path fill="rgb(28,28,26)" stroke="rgb(28,28,26)" stroke-width="1" opacity="0.5843137254901961" d="M 257.5 342 Q 259.5 343.5 255.5 345 L 255 344.5 L 257.5 342 Z " /><path fill="rgb(28,28,26)" stroke="rgb(28,28,26)" stroke-width="1" opacity="0.5843137254901961" d="M 373.5 342 Q 375.2 343.2 374 347.5 Q 373.5 348.5 373 347.5 Q 371.7 343.3 373.5 342 Z " /><path fill="rgb(28,28,26)" stroke="rgb(28,28,26)" stroke-width="1" opacity="0.5843137254901961" d="M 11.5 345 Q 12.5 345.5 12 347.5 Q 11.5 348.5 11 347.5 Q 10.5 345.5 11.5 345 Z " /><path fill="rgb(28,28,26)" stroke="rgb(28,28,26)" stroke-width="1" opacity="0.5843137254901961" d="M 96.5 345 Q 97.1 347.9 99 349.5 Q 98 351 97 348.5 Q 95.3 347 96.5 345 Z " /><path fill="rgb(28,28,26)" stroke="rgb(28,28,26)" stroke-width="1" opacity="0.5843137254901961" d="M 254.5 346 Q 256.2 347.2 253 348.5 L 253 349.5 L 250 352.5 L 250 353.5 Q 243.3 359.8 238.5 368 Q 236.7 366.7 240 365.5 L 240 364.5 L 243 361.5 L 243 360.5 Q 249.7 354.2 254.5 346 Z " /><path fill="rgb(28,28,26)" stroke="rgb(28,28,26)" stroke-width="1" opacity="0.5843137254901961" d="M 430.5 346 Q 431.3 346.3 431 347.5 L 430 348.5 Q 430.4 351.9 428.5 353 Q 427.8 352.8 428 351.5 L 429 350.5 Q 428.6 347.1 430.5 346 Z " /><path fill="rgb(28,28,26)" stroke="rgb(28,28,26)" stroke-width="1" opacity="0.5843137254901961" d="M 508.5 348 Q 509.5 348.5 509 350.5 Q 508.5 351.5 508 350.5 Q 507.5 348.5 508.5 348 Z " /><path fill="rgb(28,28,26)" stroke="rgb(28,28,26)" stroke-width="1" opacity="0.5843137254901961" d="M 372.5 350 Q 374.2 351.2 373 355.5 Q 372.5 356.5 372 355.5 Q 370.7 351.2 372.5 350 Z " /><path fill="rgb(28,28,26)" stroke="rgb(28,28,26)" stroke-width="1" opacity="0.5843137254901961" d="M 99.5 351 Q 101.3 352.3 102 354.5 Q 101 356 100 353.5 Q 98.1 351.9 99.5 351 Z " /><path fill="rgb(28,28,26)" stroke="rgb(28,28,26)" stroke-width="1" opacity="0.5843137254901961" d="M 13.5 352 Q 15.3 353.7 15 357.5 Q 14.5 358.5 14 357.5 Q 12.3 355 13.5 352 Z " /><path fill="rgb(28,28,26)" stroke="rgb(28,28,26)" stroke-width="1" opacity="0.5843137254901961" d="M 507.5 353 Q 508.5 353.5 508 355.5 Q 507.5 356.5 507 355.5 Q 506.5 353.5 507.5 353 Z " /><path fill="rgb(28,28,26)" stroke="rgb(28,28,26)" stroke-width="1" opacity="0.5843137254901961" d="M 427.5 354 Q 428.3 354.3 428 355.5 Q 426.8 356.3 426.5 358 Q 425.8 357.8 426 356.5 Q 427.3 355.8 427.5 354 Z " /><path fill="rgb(28,28,26)" stroke="rgb(28,28,26)" stroke-width="1" opacity="0.5843137254901961" d="M 102.5 356 Q 104 360 107 362.5 Q 105.5 364.5 104 360.5 Q 104.2 357.3 102 356.5 L 102.5 356 Z " /><path fill="rgb(28,28,26)" stroke="rgb(28,28,26)" stroke-width="1" opacity="0.5843137254901961" d="M 371.5 358 Q 373.2 359.2 372 363.5 Q 371.5 364.5 371 363.5 Q 369.8 359.2 371.5 358 Z " /><path fill="rgb(28,28,26)" stroke="rgb(28,28,26)" stroke-width="1" opacity="0.5843137254901961" d="M 506.5 358 Q 507.8 358.8 507 361.5 Q 506.5 362.5 506 361.5 Q 505.3 358.8 506.5 358 Z " /><path fill="rgb(28,28,26)" stroke="rgb(28,28,26)" stroke-width="1" opacity="0.5843137254901961" d="M 423.5 363 Q 424.3 363.3 424 364.5 Q 422 369.5 418.5 373 Q 417.2 372.2 419 371.5 L 419 370.5 Q 422.4 367.9 423.5 363 Z " /><path fill="rgb(28,28,26)" stroke="rgb(28,28,26)" stroke-width="1" opacity="0.5843137254901961" d="M 505.5 363 Q 506.5 363.5 506 365.5 Q 505.5 366.5 505 365.5 Q 504.5 363.5 505.5 363 Z " /><path fill="rgb(28,28,26)" stroke="rgb(28,28,26)" stroke-width="1" opacity="0.5843137254901961" d="M 107.5 364 Q 110.3 366.3 112 369.5 Q 110.5 371.5 109 367.5 Q 109.2 364.7 107 364.5 L 107.5 364 Z " /><path fill="rgb(28,28,26)" stroke="rgb(28,28,26)" stroke-width="1" opacity="0.5843137254901961" d="M 342.5 366 Q 345.7 365.8 346.5 368 Q 354.5 373.5 361 380.5 L 360.5 381 L 356.5 377 L 355.5 377 Q 351.5 372.5 346.5 369 Q 343.3 369.2 342.5 367 Q 337 369.5 333.5 374 L 333 373.5 L 337.5 369 L 338.5 369 Q 339.9 366.9 342.5 366 Z " /><path fill="rgb(28,28,26)" stroke="rgb(28,28,26)" stroke-width="1" opacity="0.5843137254901961" d="M 370.5 366 Q 372.2 367.2 371 371.5 Q 370.5 372.5 370 371.5 Q 368.8 367.2 370.5 366 Z " /><path fill="rgb(28,28,26)" stroke="rgb(28,28,26)" stroke-width="1" opacity="0.5843137254901961" d="M 504.5 367 Q 505.5 367.5 505 369.5 Q 504.5 370.5 504 369.5 Q 503.5 367.5 504.5 367 Z " /><path fill="rgb(28,28,26)" stroke="rgb(28,28,26)" stroke-width="1" opacity="0.5843137254901961" d="M 18.5 368 Q 20.2 368.8 20 371.5 Q 19.5 372.5 19 371.5 Q 17.3 370 18.5 368 Z " /><path fill="rgb(28,28,26)" stroke="rgb(28,28,26)" stroke-width="1" opacity="0.5843137254901961" d="M 237.5 369 Q 239.5 370.5 235.5 372 L 235 371.5 L 237.5 369 Z " /><path fill="rgb(28,28,26)" stroke="rgb(28,28,26)" stroke-width="1" opacity="0.5843137254901961" d="M 112.5 371 L 116 374.5 L 115.5 375 L 112 371.5 L 112.5 371 Z " /><path fill="rgb(28,28,26)" stroke="rgb(28,28,26)" stroke-width="1" opacity="0.5843137254901961" d="M 503.5 371 Q 504.5 371.5 504 373.5 Q 503.5 374.5 503 373.5 Q 502.5 371.5 503.5 371 Z " /><path fill="rgb(28,28,26)" stroke="rgb(28,28,26)" stroke-width="1" opacity="0.5843137254901961" d="M 20.5 373 Q 22.2 373.8 22 376.5 Q 21.5 377.5 21 376.5 Q 19.3 375 20.5 373 Z " /><path fill="rgb(28,28,26)" stroke="rgb(28,28,26)" stroke-width="1" opacity="0.5843137254901961" d="M 234.5 373 Q 236.5 374.5 232.5 376 Q 230.5 374.5 234.5 373 Z " /><path fill="rgb(28,28,26)" stroke="rgb(28,28,26)" stroke-width="1" opacity="0.5843137254901961" d="M 369.5 373 Q 371.5 374.5 370 379.5 Q 369.5 380.5 369 379.5 Q 367.5 374.5 369.5 373 Z " /><path fill="rgb(28,28,26)" stroke="rgb(28,28,26)" stroke-width="1" opacity="0.5843137254901961" d="M 417.5 374 Q 418.7 374.7 417 375.5 Q 417.3 377.8 415.5 378 Q 414.2 377.2 416 376.5 Q 415.8 374.3 417.5 374 Z " /><path fill="rgb(28,28,26)" stroke="rgb(28,28,26)" stroke-width="1" opacity="0.5843137254901961" d="M 332.5 375 Q 334.2 376.2 331 377.5 Q 331.2 380.7 328.5 381 Q 326.7 379.7 330 378.5 Q 329.7 375.2 332.5 375 Z " /><path fill="rgb(28,28,26)" stroke="rgb(28,28,26)" stroke-width="1" opacity="0.5843137254901961" d="M 502.5 375 Q 503.5 375.5 503 377.5 Q 502.5 378.5 502 377.5 Q 501.5 375.5 502.5 375 Z " /><path fill="rgb(28,28,26)" stroke="rgb(28,28,26)" stroke-width="1" opacity="0.5843137254901961" d="M 116.5 376 L 123 382.5 L 122.5 383 L 116 376.5 L 116.5 376 Z " /><path fill="rgb(28,28,26)" stroke="rgb(28,28,26)" stroke-width="1" opacity="0.5843137254901961" d="M 231.5 377 L 232 377.5 L 229 380.5 L 229 381.5 L 222.5 388 L 222 387.5 L 228 381.5 L 228 380.5 L 231.5 377 Z " /><path fill="rgb(28,28,26)" stroke="rgb(28,28,26)" stroke-width="1" opacity="0.5843137254901961" d="M 22.5 378 Q 24.2 378.8 24 381.5 Q 23.5 382.5 23 381.5 Q 21.3 380 22.5 378 Z " /><path fill="rgb(28,28,26)" stroke="rgb(28,28,26)" stroke-width="1" opacity="0.5843137254901961" d="M 414.5 379 Q 416.2 380.2 413 381.5 L 413 382.5 L 409.5 386 L 409 385.5 L 412 382.5 Q 411.7 379.2 414.5 379 Z " /><path fill="rgb(28,28,26)" stroke="rgb(28,28,26)" stroke-width="1" opacity="0.5843137254901961" d="M 501.5 379 Q 502.5 379.5 502 381.5 L 501 382.5 L 501 384.5 L 500 385.5 L 500 387.5 L 499 388.5 L 499 390.5 L 498 391.5 L 498 393.5 L 497 394.5 Q 497.4 397.9 495.5 399 Q 494.8 398.8 495 397.5 L 496 396.5 L 496 394.5 L 497 393.5 L 497 391.5 L 498 390.5 L 498 388.5 L 499 387.5 L 499 385.5 L 500 384.5 Q 499.7 380.7 501.5 379 Z " /><path fill="rgb(28,28,26)" stroke="rgb(28,28,26)" stroke-width="1" opacity="0.5843137254901961" d="M 362.5 381 L 365 383.5 L 364.5 384 Q 360.5 382.5 362.5 381 Z " /><path fill="rgb(28,28,26)" stroke="rgb(28,28,26)" stroke-width="1" opacity="0.5843137254901961" d="M 368.5 381 Q 370.2 382.2 369 386.5 Q 368 388 367 385.5 Q 368.9 384.4 368.5 381 Z " /><path fill="rgb(28,28,26)" stroke="rgb(28,28,26)" stroke-width="1" opacity="0.5843137254901961" d="M 327.5 382 Q 329.2 383.2 326 384.5 Q 324.7 388.7 321.5 391 Q 319.7 389.7 323 388.5 Q 324.3 384.3 327.5 382 Z " /><path fill="rgb(28,28,26)" stroke="rgb(28,28,26)" stroke-width="1" opacity="0.5843137254901961" d="M 24.5 383 Q 25.1 385.9 27 387.5 L 27 388.5 Q 26.5 389.5 26 388.5 Q 26.2 385.3 24 384.5 Q 23.8 383.3 24.5 383 Z " /><path fill="rgb(28,28,26)" stroke="rgb(28,28,26)" stroke-width="1" opacity="0.5843137254901961" d="M 126.5 386 L 135 394.5 L 134.5 395 L 126 386.5 L 126.5 386 Z " /><path fill="rgb(28,28,26)" stroke="rgb(28,28,26)" stroke-width="1" opacity="0.5843137254901961" d="M 408.5 387 L 409 387.5 L 403.5 393 L 403 392.5 L 408.5 387 Z " /><path fill="rgb(28,28,26)" stroke="rgb(28,28,26)" stroke-width="1" opacity="0.5843137254901961" d="M 27.5 390 Q 28.6 395.4 32 398.5 L 32 399.5 L 33 400.5 L 33 401.5 L 34 402.5 L 34 403.5 L 35 404.5 L 35 405.5 Q 34.5 406.5 34 405.5 L 34 404.5 L 33 403.5 L 33 402.5 Q 29.1 398.9 28 392.5 L 27 391.5 Q 26.8 390.3 27.5 390 Z " /><path fill="rgb(28,28,26)" stroke="rgb(28,28,26)" stroke-width="1" opacity="0.5843137254901961" d="M 218.5 391 L 219 391.5 L 214.5 396 L 213.5 396 Q 210.4 399.9 205.5 402 Q 204 401 206.5 400 Q 213.9 396.9 218.5 391 Z " /><path fill="rgb(28,28,26)" stroke="rgb(28,28,26)" stroke-width="1" opacity="0.5843137254901961" d="M 320.5 392 Q 322.2 393.2 319 394.5 Q 317.7 398.7 314.5 401 Q 312.7 399.7 316 398.5 Q 317.3 394.3 320.5 392 Z " /><path fill="rgb(28,28,26)" stroke="rgb(28,28,26)" stroke-width="1" opacity="0.5843137254901961" d="M 136.5 395 Q 138.6 397.9 142 399.5 Q 141.2 400.7 140.5 399 L 139.5 399 L 136 395.5 L 136.5 395 Z " /><path fill="rgb(28,28,26)" stroke="rgb(28,28,26)" stroke-width="1" opacity="0.5843137254901961" d="M 400.5 395 L 401 395.5 L 396.5 400 Q 393.7 399.7 393.5 402 Q 391.5 400.5 395.5 399 L 396.5 399 L 400.5 395 Z " /><path fill="rgb(28,28,26)" stroke="rgb(28,28,26)" stroke-width="1" opacity="0.5843137254901961" d="M 143.5 400 L 144.5 401 L 145.5 401 Q 148.6 404.4 154 405.5 Q 153.8 406.3 152.5 406 Q 149.7 402.8 144.5 402 Q 142 401 143.5 400 Z " /><path fill="rgb(28,28,26)" stroke="rgb(28,28,26)" stroke-width="1" opacity="0.5843137254901961" d="M 494.5 400 Q 495.3 400.3 495 401.5 Q 493.8 402.3 493.5 404 Q 492.8 403.8 493 402.5 Q 494.3 401.8 494.5 400 Z " /><path fill="rgb(28,28,26)" stroke="rgb(28,28,26)" stroke-width="1" opacity="0.5843137254901961" d="M 313.5 402 Q 315.2 403.2 312 404.5 Q 312.2 407.7 309.5 408 Q 307.7 406.7 311 405.5 Q 310.7 402.2 313.5 402 Z " /><path fill="rgb(28,28,26)" stroke="rgb(28,28,26)" stroke-width="1" opacity="0.5843137254901961" d="M 391.5 402 Q 393.5 403.5 389.5 405 Q 386.3 404.8 385.5 407 Q 384 406 386.5 405 Q 390 404.5 391.5 402 Z " /><path fill="rgb(28,28,26)" stroke="rgb(28,28,26)" stroke-width="1" opacity="0.5843137254901961" d="M 196.5 405 Q 197.8 404.8 198 405.5 Q 197.2 407.2 194.5 407 Q 193.5 406.5 194.5 406 Q 196.2 406.2 196.5 405 Z " /><path fill="rgb(28,28,26)" stroke="rgb(28,28,26)" stroke-width="1" opacity="0.5843137254901961" d="M 155.5 406 Q 158.6 405.8 160 407.5 Q 159.5 408.5 157.5 408 Q 156.8 406.8 155 406.5 L 155.5 406 Z " /><path fill="rgb(28,28,26)" stroke="rgb(28,28,26)" stroke-width="1" opacity="0.5843137254901961" d="M 35.5 407 Q 37.3 408.3 38 410.5 Q 37 412 36 409.5 Q 34.1 407.9 35.5 407 Z " /><path fill="rgb(28,28,26)" stroke="rgb(28,28,26)" stroke-width="1" opacity="0.5843137254901961" d="M 491.5 407 Q 492.3 407.3 492 408.5 Q 490.8 409.3 490.5 411 Q 489.8 410.8 490 409.5 Q 491.3 408.8 491.5 407 Z " /><path fill="rgb(28,28,26)" stroke="rgb(28,28,26)" stroke-width="1" opacity="0.5843137254901961" d="M 161.5 408 Q 163.5 407.5 164 408.5 Q 163.5 409.5 161.5 409 Q 160.5 408.5 161.5 408 Z " /><path fill="rgb(28,28,26)" stroke="rgb(28,28,26)" stroke-width="1" opacity="0.5843137254901961" d="M 380.5 408 Q 381.8 407.8 382 408.5 Q 381.2 410.2 378.5 410 Q 377.5 409.5 378.5 409 Q 380.2 409.2 380.5 408 Z " /><path fill="rgb(28,28,26)" stroke="rgb(28,28,26)" stroke-width="1" opacity="0.5843137254901961" d="M 165.5 409 Q 169.8 407.7 171 409.5 Q 169.7 411.2 165.5 410 Q 164.5 409.5 165.5 409 Z " /><path fill="rgb(28,28,26)" stroke="rgb(28,28,26)" stroke-width="1" opacity="0.5843137254901961" d="M 180.5 409 Q 184 408 185 409.5 Q 184 411 180.5 410 Q 179.5 409.5 180.5 409 Z " /><path fill="rgb(28,28,26)" stroke="rgb(28,28,26)" stroke-width="1" opacity="0.5843137254901961" d="M 308.5 409 Q 310.2 410.2 307 411.5 Q 307.2 414.7 304.5 415 Q 302.7 413.7 306 412.5 Q 305.7 409.2 308.5 409 Z " /><path fill="rgb(28,28,26)" stroke="rgb(28,28,26)" stroke-width="1" opacity="0.5843137254901961" d="M 335.5 409 Q 337.5 410.5 333.5 412 L 333 411.5 L 335.5 409 Z " /><path fill="rgb(28,28,26)" stroke="rgb(28,28,26)" stroke-width="1" opacity="0.5843137254901961" d="M 341.5 411 Q 343.5 410.5 344 411.5 Q 343.5 412.5 341.5 412 Q 340.5 411.5 341.5 411 Z " /><path fill="rgb(28,28,26)" stroke="rgb(28,28,26)" stroke-width="1" opacity="0.5843137254901961" d="M 38.5 412 Q 41 414 42 417.5 Q 41 419 40 416.5 Q 40.2 413.3 38 412.5 L 38.5 412 Z " /><path fill="rgb(28,28,26)" stroke="rgb(28,28,26)" stroke-width="1" opacity="0.5843137254901961" d="M 345.5 412 Q 349 411 350 412.5 Q 349 414 345.5 413 Q 344.5 412.5 345.5 412 Z " /><path fill="rgb(28,28,26)" stroke="rgb(28,28,26)" stroke-width="1" opacity="0.5843137254901961" d="M 366.5 412 Q 369.3 411.3 370 412.5 Q 369.3 413.8 366.5 413 Q 365.5 412.5 366.5 412 Z " /><path fill="rgb(28,28,26)" stroke="rgb(28,28,26)" stroke-width="1" opacity="0.5843137254901961" d="M 332.5 413 Q 334.5 414.5 330.5 416 L 330 415.5 L 332.5 413 Z " /><path fill="rgb(28,28,26)" stroke="rgb(28,28,26)" stroke-width="1" opacity="0.5843137254901961" d="M 352.5 413 L 363.5 413 L 364 413.5 L 363.5 414 L 352.5 414 Q 351.5 413.5 352.5 413 Z " /><path fill="rgb(28,28,26)" stroke="rgb(28,28,26)" stroke-width="1" opacity="0.5843137254901961" d="M 488.5 414 Q 489.3 414.3 489 415.5 Q 488 418 487 416.5 Q 488.3 415.8 488.5 414 Z " /><path fill="rgb(28,28,26)" stroke="rgb(28,28,26)" stroke-width="1" opacity="0.5843137254901961" d="M 303.5 416 Q 305.2 417.2 302 418.5 Q 302.2 421.7 299.5 422 Q 297.7 420.7 301 419.5 Q 300.7 416.3 303.5 416 Z " /><path fill="rgb(28,28,26)" stroke="rgb(28,28,26)" stroke-width="1" opacity="0.5843137254901961" d="M 329.5 417 Q 331.2 418.2 328 419.5 L 328 420.5 Q 324.8 423.3 322.5 427 Q 320.7 425.7 324 424.5 L 324 423.5 Q 327.3 420.8 329.5 417 Z " /><path fill="rgb(28,28,26)" stroke="rgb(28,28,26)" stroke-width="1" opacity="0.5843137254901961" d="M 42.5 419 Q 44.3 420.3 45 422.5 Q 44 424 43 421.5 Q 41.1 419.9 42.5 419 Z " /><path fill="rgb(28,28,26)" stroke="rgb(28,28,26)" stroke-width="1" opacity="0.5843137254901961" d="M 485.5 420 Q 486.7 420.7 485 421.5 Q 484.1 427 480.5 430 Q 479.2 429.2 481 428.5 Q 482 422.9 485.5 420 Z " /><path fill="rgb(28,28,26)" stroke="rgb(28,28,26)" stroke-width="1" opacity="0.5843137254901961" d="M 298.5 423 Q 300.2 424.2 297 425.5 Q 289.5 438 279.5 448 L 279 447.5 L 283 443.5 L 283 442.5 L 287 438.5 L 287 437.5 Q 293.7 431.2 298.5 423 Z " /><path fill="rgb(28,28,26)" stroke="rgb(28,28,26)" stroke-width="1" opacity="0.5843137254901961" d="M 45.5 424 Q 48 425 46.5 426 Q 44 425 45.5 424 Z " /><path fill="rgb(28,28,26)" stroke="rgb(28,28,26)" stroke-width="1" opacity="0.5843137254901961" d="M 47.5 427 Q 49.3 428.3 50 430.5 Q 49 432 48 429.5 Q 46.1 427.9 47.5 427 Z " /><path fill="rgb(28,28,26)" stroke="rgb(28,28,26)" stroke-width="1" opacity="0.5843137254901961" d="M 321.5 428 Q 323.5 429.5 319.5 431 Q 317.5 429.5 321.5 428 Z " /><path fill="rgb(28,28,26)" stroke="rgb(28,28,26)" stroke-width="1" opacity="0.5843137254901961" d="M 479.5 431 Q 480.7 431.7 479 432.5 L 479 433.5 Q 476.8 435.3 475.5 438 Q 474.2 437.2 476 436.5 L 476 435.5 Q 478.3 433.8 479.5 431 Z " /><path fill="rgb(28,28,26)" stroke="rgb(28,28,26)" stroke-width="1" opacity="0.5843137254901961" d="M 50.5 432 Q 55 436 58 441.5 Q 56.5 443.5 55 439.5 L 55 438.5 Q 51.9 436.1 50 432.5 L 50.5 432 Z " /><path fill="rgb(28,28,26)" stroke="rgb(28,28,26)" stroke-width="1" opacity="0.5843137254901961" d="M 318.5 432 Q 320.5 433.5 316.5 435 L 316 434.5 L 318.5 432 Z " /><path fill="rgb(28,28,26)" stroke="rgb(28,28,26)" stroke-width="1" opacity="0.5843137254901961" d="M 315.5 436 Q 317.2 437.2 314 438.5 L 314 439.5 Q 307.3 445.8 302.5 454 Q 300.7 452.7 304 451.5 L 304 450.5 Q 310.7 444.2 315.5 436 Z " /><path fill="rgb(28,28,26)" stroke="rgb(28,28,26)" stroke-width="1" opacity="0.5843137254901961" d="M 474.5 439 Q 475.7 439.7 474 440.5 Q 472.7 444.7 469.5 447 Q 467.7 445.7 471 444.5 L 471 443.5 Q 473.3 441.8 474.5 439 Z " /><path fill="rgb(28,28,26)" stroke="rgb(28,28,26)" stroke-width="1" opacity="0.5843137254901961" d="M 58.5 443 Q 64 451 71 457.5 L 70.5 458 L 65 452.5 L 65 451.5 Q 61 448 58 443.5 L 58.5 443 Z " /><path fill="rgb(28,28,26)" stroke="rgb(28,28,26)" stroke-width="1" opacity="0.5843137254901961" d="M 468.5 448 L 469 448.5 L 466 451.5 L 466 452.5 L 462.5 456 L 462 455.5 L 465 452.5 L 465 451.5 L 468.5 448 Z " /><path fill="rgb(28,28,26)" stroke="rgb(28,28,26)" stroke-width="1" opacity="0.5843137254901961" d="M 278.5 449 L 279 449.5 L 274.5 454 L 274 453.5 L 278.5 449 Z " /><path fill="rgb(28,28,26)" stroke="rgb(28,28,26)" stroke-width="1" opacity="0.5843137254901961" d="M 273.5 455 L 274 455.5 L 268.5 461 L 268 460.5 L 273.5 455 Z " /><path fill="rgb(28,28,26)" stroke="rgb(28,28,26)" stroke-width="1" opacity="0.5843137254901961" d="M 301.5 455 Q 303.2 456.2 300 457.5 L 300 458.5 L 297 461.5 L 297 462.5 Q 290.3 468.8 285.5 477 Q 283.7 475.7 287 474.5 L 287 473.5 L 290 470.5 L 290 469.5 Q 296.7 463.2 301.5 455 Z " /><path fill="rgb(28,28,26)" stroke="rgb(28,28,26)" stroke-width="1" opacity="0.5843137254901961" d="M 461.5 457 L 462 457.5 L 457.5 462 L 457 461.5 L 461.5 457 Z " /><path fill="rgb(28,28,26)" stroke="rgb(28,28,26)" stroke-width="1" opacity="0.5843137254901961" d="M 71.5 459 L 83 470.5 L 82.5 471 L 71 459.5 L 71.5 459 Z " /><path fill="rgb(28,28,26)" stroke="rgb(28,28,26)" stroke-width="1" opacity="0.5843137254901961" d="M 455.5 464 L 456 464.5 L 440.5 480 Q 436.7 479.7 436.5 483 L 436 482.5 L 439.5 479 L 440.5 479 L 455.5 464 Z " /><path fill="rgb(28,28,26)" stroke="rgb(28,28,26)" stroke-width="1" opacity="0.5843137254901961" d="M 85.5 472 L 91 477.5 L 90.5 478 L 85 472.5 L 85.5 472 Z " /><path fill="rgb(28,28,26)" stroke="rgb(28,28,26)" stroke-width="1" opacity="0.5843137254901961" d="M 253.5 475 L 254 475.5 L 247.5 482 L 247 481.5 L 253.5 475 Z " /><path fill="rgb(28,28,26)" stroke="rgb(28,28,26)" stroke-width="1" opacity="0.5843137254901961" d="M 92.5 478 Q 96.8 480.8 100 484.5 L 99.5 485 L 96.5 482 L 95.5 482 L 92 478.5 L 92.5 478 Z " /><path fill="rgb(28,28,26)" stroke="rgb(28,28,26)" stroke-width="1" opacity="0.5843137254901961" d="M 284.5 478 Q 286.2 479.2 283 480.5 Q 283.2 483.2 281.5 484 Q 280.8 483.8 281 482.5 Q 282.1 479.6 284.5 478 Z " /><path fill="rgb(28,28,26)" stroke="rgb(28,28,26)" stroke-width="1" opacity="0.5843137254901961" d="M 245.5 482 L 246 482.5 L 242.5 486 Q 239.7 485.7 239.5 488 L 239 487.5 L 241.5 485 Q 245.2 485.2 245.5 482 Z " /><path fill="rgb(28,28,26)" stroke="rgb(28,28,26)" stroke-width="1" opacity="0.5843137254901961" d="M 434.5 483 L 435 483.5 L 431.5 487 L 431 486.5 L 434.5 483 Z " /><path fill="rgb(28,28,26)" stroke="rgb(28,28,26)" stroke-width="1" opacity="0.5843137254901961" d="M 283.5 484 Q 287.5 485.5 285.5 487 Q 281.5 485.5 283.5 484 Z " /><path fill="rgb(28,28,26)" stroke="rgb(28,28,26)" stroke-width="1" opacity="0.5843137254901961" d="M 101.5 485 Q 105.4 486.6 108 489.5 Q 107.2 490.7 106.5 489 Q 101.9 487.8 101.5 485 Z " /><path fill="rgb(28,28,26)" stroke="rgb(28,28,26)" stroke-width="1" opacity="0.5843137254901961" d="M 287.5 487 L 290 489.5 L 289.5 490 Q 285.5 488.5 287.5 487 Z " /><path fill="rgb(28,28,26)" stroke="rgb(28,28,26)" stroke-width="1" opacity="0.5843137254901961" d="M 429.5 487 Q 431.5 488.5 427.5 490 Q 425.7 489.7 425.5 491 Q 424 490 426.5 489 Q 429.2 489.2 429.5 487 Z " /><path fill="rgb(28,28,26)" stroke="rgb(28,28,26)" stroke-width="1" opacity="0.5843137254901961" d="M 237.5 488 Q 239.5 489.5 235.5 491 Q 233.7 490.7 233.5 492 Q 232 491 234.5 490 Q 237.2 490.2 237.5 488 Z " /><path fill="rgb(28,28,26)" stroke="rgb(28,28,26)" stroke-width="1" opacity="0.5843137254901961" d="M 109.5 490 Q 111.8 490.8 113 492.5 Q 112.2 493.7 111.5 492 Q 107.7 491.3 109.5 490 Z " /><path fill="rgb(28,28,26)" stroke="rgb(28,28,26)" stroke-width="1" opacity="0.5843137254901961" d="M 291.5 490 Q 294 493 298 494.5 Q 297.2 495.7 296.5 494 Q 291.9 493.3 291.5 490 Z " /><path fill="rgb(28,28,26)" stroke="rgb(28,28,26)" stroke-width="1" opacity="0.5843137254901961" d="M 423.5 491 Q 425 492 422.5 493 Q 421 492 423.5 491 Z " /><path fill="rgb(28,28,26)" stroke="rgb(28,28,26)" stroke-width="1" opacity="0.5843137254901961" d="M 231.5 492 Q 233 493 230.5 494 Q 227.3 493.8 226.5 496 Q 225 495 227.5 494 Q 230.7 494.2 231.5 492 Z " /><path fill="rgb(28,28,26)" stroke="rgb(28,28,26)" stroke-width="1" opacity="0.5843137254901961" d="M 420.5 493 Q 422 494 419.5 495 Q 417.7 494.7 417.5 496 Q 416 495 418.5 494 Q 420.2 494.2 420.5 493 Z " /><path fill="rgb(28,28,26)" stroke="rgb(28,28,26)" stroke-width="1" opacity="0.5843137254901961" d="M 299.5 495 L 300.5 496 L 301.5 496 L 302.5 497 L 303.5 497 Q 306.6 500.4 312 501.5 Q 311.8 502.3 310.5 502 Q 306.9 498.1 300.5 497 Q 298 496 299.5 495 Z " /><path fill="rgb(28,28,26)" stroke="rgb(28,28,26)" stroke-width="1" opacity="0.5843137254901961" d="M 222.5 497 Q 224 498 221.5 499 Q 220.3 499.3 220 498.5 Q 221.8 498.3 222.5 497 Z " /><path fill="rgb(28,28,26)" stroke="rgb(28,28,26)" stroke-width="1" opacity="0.5843137254901961" d="M 124.5 498 Q 127.2 497.8 128 499.5 Q 127.8 500.3 126.5 500 Q 125.8 498.8 124 498.5 L 124.5 498 Z " /><path fill="rgb(28,28,26)" stroke="rgb(28,28,26)" stroke-width="1" opacity="0.5843137254901961" d="M 411.5 498 Q 413 499 410.5 500 L 409.5 500 Q 408.2 501.7 405.5 502 Q 404.5 501.5 405.5 501 L 406.5 501 Q 408.3 498.8 411.5 498 Z " /><path fill="rgb(28,28,26)" stroke="rgb(28,28,26)" stroke-width="1" opacity="0.5843137254901961" d="M 217.5 499 Q 218.8 498.8 219 499.5 Q 218.2 501.2 215.5 501 Q 214.5 500.5 215.5 500 Q 217.2 500.2 217.5 499 Z " /><path fill="rgb(28,28,26)" stroke="rgb(28,28,26)" stroke-width="1" opacity="0.5843137254901961" d="M 129.5 500 Q 132.2 499.8 133 501.5 Q 132.8 502.3 131.5 502 Q 130.8 500.8 129 500.5 L 129.5 500 Z " /><path fill="rgb(28,28,26)" stroke="rgb(28,28,26)" stroke-width="1" opacity="0.5843137254901961" d="M 212.5 501 Q 213.8 500.8 214 501.5 Q 213.2 503.2 210.5 503 Q 209.5 502.5 210.5 502 Q 212.2 502.2 212.5 501 Z " /><path fill="rgb(28,28,26)" stroke="rgb(28,28,26)" stroke-width="1" opacity="0.5843137254901961" d="M 402.5 502 Q 403.8 501.8 404 502.5 Q 403.2 504.2 400.5 504 Q 399.5 503.5 400.5 503 Q 402.2 503.2 402.5 502 Z " /><path fill="rgb(28,28,26)" stroke="rgb(28,28,26)" stroke-width="1" opacity="0.5843137254901961" d="M 206.5 503 Q 208.5 502.5 209 503.5 Q 207.3 505.3 203.5 505 Q 202.5 504.5 203.5 504 Q 206 504.5 206.5 503 Z " /><path fill="rgb(28,28,26)" stroke="rgb(28,28,26)" stroke-width="1" opacity="0.5843137254901961" d="M 315.5 503 Q 318.2 502.8 319 504.5 Q 318.8 505.3 317.5 505 Q 316.8 503.8 315 503.5 L 315.5 503 Z " /><path fill="rgb(28,28,26)" stroke="rgb(28,28,26)" stroke-width="1" opacity="0.5843137254901961" d="M 140.5 504 Q 142.5 503.5 143 504.5 Q 142.5 505.5 140.5 505 Q 139.5 504.5 140.5 504 Z " /><path fill="rgb(28,28,26)" stroke="rgb(28,28,26)" stroke-width="1" opacity="0.5843137254901961" d="M 397.5 504 Q 398.8 503.8 399 504.5 Q 398.2 506.2 395.5 506 Q 394.5 505.5 395.5 505 Q 397.2 505.2 397.5 504 Z " /><path fill="rgb(28,28,26)" stroke="rgb(28,28,26)" stroke-width="1" opacity="0.5843137254901961" d="M 147.5 506 Q 150.3 505.3 151 506.5 Q 150.3 507.8 147.5 507 Q 146.5 506.5 147.5 506 Z " /><path fill="rgb(28,28,26)" stroke="rgb(28,28,26)" stroke-width="1" opacity="0.5843137254901961" d="M 195.5 506 Q 198.3 505.3 199 506.5 Q 198.3 507.8 195.5 507 Q 194.5 506.5 195.5 506 Z " /><path fill="rgb(28,28,26)" stroke="rgb(28,28,26)" stroke-width="1" opacity="0.5843137254901961" d="M 391.5 506 Q 393.5 505.5 394 506.5 Q 393.5 507.5 391.5 507 Q 390.5 506.5 391.5 506 Z " /><path fill="rgb(28,28,26)" stroke="rgb(28,28,26)" stroke-width="1" opacity="0.5843137254901961" d="M 153.5 507 Q 156.3 506.3 157 507.5 Q 156.3 508.8 153.5 508 Q 152.5 507.5 153.5 507 Z " /><path fill="rgb(28,28,26)" stroke="rgb(28,28,26)" stroke-width="1" opacity="0.5843137254901961" d="M 189.5 507 Q 192.3 506.3 193 507.5 Q 192.3 508.8 189.5 508 Q 188.5 507.5 189.5 507 Z " /><path fill="rgb(28,28,26)" stroke="rgb(28,28,26)" stroke-width="1" opacity="0.5843137254901961" d="M 159.5 508 L 166.5 508 L 167 508.5 L 166.5 509 L 159.5 509 Q 158.5 508.5 159.5 508 Z " /><path fill="rgb(28,28,26)" stroke="rgb(28,28,26)" stroke-width="1" opacity="0.5843137254901961" d="M 180.5 508 Q 185.5 506.5 187 508.5 Q 185.5 510.5 180.5 509 Q 179.5 508.5 180.5 508 Z " /><path fill="rgb(28,28,26)" stroke="rgb(28,28,26)" stroke-width="1" opacity="0.5843137254901961" d="M 171.5 509 Q 173.5 508.5 174 509.5 Q 173.5 510.5 171.5 510 Q 170.5 509.5 171.5 509 Z " /><path fill="rgb(28,28,26)" stroke="rgb(28,28,26)" stroke-width="1" opacity="0.5843137254901961" d="M 333.5 509 Q 336.3 508.3 337 509.5 Q 336.3 510.8 333.5 510 Q 332.5 509.5 333.5 509 Z " /><path fill="rgb(28,28,26)" stroke="rgb(28,28,26)" stroke-width="1" opacity="0.5843137254901961" d="M 380.5 509 Q 382.5 508.5 383 509.5 Q 382.5 510.5 380.5 510 Q 379.5 509.5 380.5 509 Z " /><path fill="rgb(28,28,26)" stroke="rgb(28,28,26)" stroke-width="1" opacity="0.5843137254901961" d="M 339.5 510 Q 342.3 509.3 343 510.5 Q 342.3 511.8 339.5 511 Q 338.5 510.5 339.5 510 Z " /><path fill="rgb(28,28,26)" stroke="rgb(28,28,26)" stroke-width="1" opacity="0.5843137254901961" d="M 374.5 510 Q 377.3 509.3 378 510.5 Q 377.3 511.8 374.5 511 Q 373.5 510.5 374.5 510 Z " /><path fill="rgb(28,28,26)" stroke="rgb(28,28,26)" stroke-width="1" opacity="0.5843137254901961" d="M 346.5 511 L 353.5 511 L 354 511.5 L 353.5 512 L 346.5 512 Q 345.5 511.5 346.5 511 Z " /><path fill="rgb(28,28,26)" stroke="rgb(28,28,26)" stroke-width="1" opacity="0.5843137254901961" d="M 362.5 511 L 371.5 511 L 372 511.5 L 371.5 512 L 362.5 512 Q 361.5 511.5 362.5 511 Z " /><path fill="rgb(29,29,27)" stroke="rgb(29,29,27)" stroke-width="1" opacity="0.996078431372549" d="M 191.5 0 L 200.5 0 L 201 0.5 L 200.5 1 L 191.5 1 Q 190.5 0.5 191.5 0 Z " /><path fill="rgb(29,29,27)" stroke="rgb(29,29,27)" stroke-width="1" opacity="0.996078431372549" d="M 94.5 36 Q 96 37 93.5 38 Q 92 37 94.5 36 Z " /><path fill="rgb(29,29,27)" stroke="rgb(29,29,27)" stroke-width="1" opacity="0.996078431372549" d="M 89.5 40 Q 91 41 88.5 42 Q 87 41 89.5 40 Z " /><path fill="rgb(29,29,27)" stroke="rgb(29,29,27)" stroke-width="1" opacity="0.996078431372549" d="M 310.5 48 L 313 50.5 L 312.5 51 Q 308.5 49.5 310.5 48 Z " /><path fill="rgb(29,29,27)" stroke="rgb(29,29,27)" stroke-width="1" opacity="0.996078431372549" d="M 78.5 50 L 79 50.5 L 73.5 56 L 73 55.5 L 78.5 50 Z " /><path fill="rgb(29,29,27)" stroke="rgb(29,29,27)" stroke-width="1" opacity="0.996078431372549" d="M 319.5 57 Q 322 58 320.5 59 Q 318 58 319.5 57 Z " /><path fill="rgb(29,29,27)" stroke="rgb(29,29,27)" stroke-width="1" opacity="0.996078431372549" d="M 67.5 62 Q 69 63 66.5 64 Q 65 63 67.5 62 Z " /><path fill="rgb(29,29,27)" stroke="rgb(29,29,27)" stroke-width="1" opacity="0.996078431372549" d="M 62.5 68 Q 64 69 61.5 70 Q 60 69 62.5 68 Z " /><path fill="rgb(29,29,27)" stroke="rgb(29,29,27)" stroke-width="1" opacity="0.996078431372549" d="M 331.5 71 Q 334 72 332.5 73 Q 330 72 331.5 71 Z " /><path fill="rgb(29,29,27)" stroke="rgb(29,29,27)" stroke-width="1" opacity="0.996078431372549" d="M 58.5 73 Q 60 74 57.5 75 Q 56 74 58.5 73 Z " /><path fill="rgb(29,29,27)" stroke="rgb(29,29,27)" stroke-width="1" opacity="0.996078431372549" d="M 134.5 122 L 135 122.5 L 131.5 126 L 131 125.5 L 134.5 122 Z " /><path fill="rgb(29,29,27)" stroke="rgb(29,29,27)" stroke-width="1" opacity="0.996078431372549" d="M 259.5 124 Q 262 125 260.5 126 Q 258 125 259.5 124 Z " /><path fill="rgb(29,29,27)" stroke="rgb(29,29,27)" stroke-width="1" opacity="0.996078431372549" d="M 321.5 131 Q 323 132 320.5 133 Q 319 132 321.5 131 Z " /><path fill="rgb(29,29,27)" stroke="rgb(29,29,27)" stroke-width="1" opacity="0.996078431372549" d="M 317.5 136 Q 319 137 316.5 138 Q 315 137 317.5 136 Z " /><path fill="rgb(29,29,27)" stroke="rgb(29,29,27)" stroke-width="1" opacity="0.996078431372549" d="M 275.5 140 Q 278 141 276.5 142 Q 274 141 275.5 140 Z " /><path fill="rgb(29,29,27)" stroke="rgb(29,29,27)" stroke-width="1" opacity="0.996078431372549" d="M 313.5 141 Q 315 142 312.5 143 Q 311 142 313.5 141 Z " /><path fill="rgb(29,29,27)" stroke="rgb(29,29,27)" stroke-width="1" opacity="0.996078431372549" d="M 280.5 146 Q 283 147 281.5 148 Q 279 147 280.5 146 Z " /><path fill="rgb(29,29,27)" stroke="rgb(29,29,27)" stroke-width="1" opacity="0.996078431372549" d="M 309.5 146 Q 311 147 308.5 148 Q 307 147 309.5 146 Z " /><path fill="rgb(29,29,27)" stroke="rgb(29,29,27)" stroke-width="1" opacity="0.996078431372549" d="M 337.5 150 Q 339 151 336.5 152 Q 335 151 337.5 150 Z " /><path fill="rgb(29,29,27)" stroke="rgb(29,29,27)" stroke-width="1" opacity="0.996078431372549" d="M 305.5 151 Q 307 152 304.5 153 Q 303 152 305.5 151 Z " /><path fill="rgb(29,29,27)" stroke="rgb(29,29,27)" stroke-width="1" opacity="0.996078431372549" d="M 459.5 153 Q 462 154 460.5 155 Q 458 154 459.5 153 Z " /><path fill="rgb(29,29,27)" stroke="rgb(29,29,27)" stroke-width="1" opacity="0.996078431372549" d="M 334.5 154 Q 336 155 333.5 156 Q 332 155 334.5 154 Z " /><path fill="rgb(29,29,27)" stroke="rgb(29,29,27)" stroke-width="1" opacity="0.996078431372549" d="M 301.5 156 Q 303 157 300.5 158 Q 299 157 301.5 156 Z " /><path fill="rgb(29,29,27)" stroke="rgb(29,29,27)" stroke-width="1" opacity="0.996078431372549" d="M 315.5 179 Q 317 180 314.5 181 Q 313 180 315.5 179 Z " /><path fill="rgb(29,29,27)" stroke="rgb(29,29,27)" stroke-width="1" opacity="0.996078431372549" d="M 312.5 183 Q 314 184 311.5 185 Q 310 184 312.5 183 Z " /><path fill="rgb(29,29,27)" stroke="rgb(29,29,27)" stroke-width="1" opacity="0.996078431372549" d="M 293.5 208 Q 295 209 292.5 210 Q 291 209 293.5 208 Z " /><path fill="rgb(29,29,27)" stroke="rgb(29,29,27)" stroke-width="1" opacity="0.996078431372549" d="M 290.5 212 Q 292 213 289.5 214 Q 288 213 290.5 212 Z " /><path fill="rgb(29,29,27)" stroke="rgb(29,29,27)" stroke-width="1" opacity="0.996078431372549" d="M 396.5 212 Q 399 213 397.5 214 Q 395 213 396.5 212 Z " /><path fill="rgb(29,29,27)" stroke="rgb(29,29,27)" stroke-width="1" opacity="0.996078431372549" d="M 410.5 226 Q 413 227 411.5 228 Q 409 227 410.5 226 Z " /><path fill="rgb(29,29,27)" stroke="rgb(29,29,27)" stroke-width="1" opacity="0.996078431372549" d="M 1.5 231 Q 2.5 231.5 2 233.5 Q 1.5 234.5 1 233.5 Q 0.5 231.5 1.5 231 Z " /><path fill="rgb(29,29,27)" stroke="rgb(29,29,27)" stroke-width="1" opacity="0.996078431372549" d="M 271.5 237 Q 273 238 270.5 239 Q 269 238 271.5 237 Z " /><path fill="rgb(29,29,27)" stroke="rgb(29,29,27)" stroke-width="1" opacity="0.996078431372549" d="M 268.5 241 Q 270 242 267.5 243 Q 266 242 268.5 241 Z " /><path fill="rgb(29,29,27)" stroke="rgb(29,29,27)" stroke-width="1" opacity="0.996078431372549" d="M 0.5 250 L 1 250.5 L 1 270.5 Q 0.5 271.5 0 270.5 L 0 250.5 L 0.5 250 Z " /><path fill="rgb(29,29,27)" stroke="rgb(29,29,27)" stroke-width="1" opacity="0.996078431372549" d="M 76.5 270 Q 77.8 270.8 77 273.5 Q 76.5 274.5 76 273.5 Q 75.3 270.8 76.5 270 Z " /><path fill="rgb(29,29,27)" stroke="rgb(29,29,27)" stroke-width="1" opacity="0.996078431372549" d="M 1.5 285 Q 2.5 285.5 2 287.5 Q 1.5 288.5 1 287.5 Q 0.5 285.5 1.5 285 Z " /><path fill="rgb(29,29,27)" stroke="rgb(29,29,27)" stroke-width="1" opacity="0.996078431372549" d="M 436.5 290 Q 437.5 290.5 437 292.5 Q 436.5 293.5 436 292.5 Q 435.5 290.5 436.5 290 Z " /><path fill="rgb(29,29,27)" stroke="rgb(29,29,27)" stroke-width="1" opacity="0.996078431372549" d="M 511.5 301 Q 513.5 302.5 512 307.5 Q 511.5 308.5 511 307.5 Q 509.5 302.5 511.5 301 Z " /><path fill="rgb(29,29,27)" stroke="rgb(29,29,27)" stroke-width="1" opacity="0.996078431372549" d="M 511.5 309 Q 513 310 512 313.5 Q 511.5 314.5 511 313.5 Q 510 310 511.5 309 Z " /><path fill="rgb(29,29,27)" stroke="rgb(29,29,27)" stroke-width="1" opacity="0.996078431372549" d="M 113.5 373 L 116 375.5 L 115.5 376 Q 111.5 374.5 113.5 373 Z " /><path fill="rgb(29,29,27)" stroke="rgb(29,29,27)" stroke-width="1" opacity="0.996078431372549" d="M 360.5 379 Q 363 380 361.5 381 Q 359 380 360.5 379 Z " /><path fill="rgb(29,29,27)" stroke="rgb(29,29,27)" stroke-width="1" opacity="0.996078431372549" d="M 365.5 383 Q 368 384 366.5 385 Q 364 384 365.5 383 Z " /><path fill="rgb(29,29,27)" stroke="rgb(29,29,27)" stroke-width="1" opacity="0.996078431372549" d="M 410.5 385 Q 412 386 409.5 387 Q 408 386 410.5 385 Z " /><path fill="rgb(29,29,27)" stroke="rgb(29,29,27)" stroke-width="1" opacity="0.996078431372549" d="M 135.5 395 Q 138 396 136.5 397 Q 134 396 135.5 395 Z " /><path fill="rgb(29,29,27)" stroke="rgb(29,29,27)" stroke-width="1" opacity="0.996078431372549" d="M 282.5 443 Q 284 444 281.5 445 Q 280 444 282.5 443 Z " /><path fill="rgb(29,29,27)" stroke="rgb(29,29,27)" stroke-width="1" opacity="0.996078431372549" d="M 468.5 447 Q 470 448 467.5 449 Q 466 448 468.5 447 Z " /><path fill="rgb(29,29,27)" stroke="rgb(29,29,27)" stroke-width="1" opacity="0.996078431372549" d="M 278.5 448 Q 280 449 277.5 450 Q 276 449 278.5 448 Z " /><path fill="rgb(29,29,27)" stroke="rgb(29,29,27)" stroke-width="1" opacity="0.996078431372549" d="M 273.5 454 Q 275 455 272.5 456 Q 271 455 273.5 454 Z " /><path fill="rgb(29,29,27)" stroke="rgb(29,29,27)" stroke-width="1" opacity="0.996078431372549" d="M 71.5 458 L 74 460.5 L 73.5 461 Q 69.5 459.5 71.5 458 Z " /><path fill="rgb(29,29,27)" stroke="rgb(29,29,27)" stroke-width="1" opacity="0.996078431372549" d="M 267.5 461 Q 269 462 266.5 463 Q 265 462 267.5 461 Z " /><path fill="rgb(29,29,27)" stroke="rgb(29,29,27)" stroke-width="1" opacity="0.996078431372549" d="M 456.5 462 Q 458 463 455.5 464 Q 454 463 456.5 462 Z " /><path fill="rgb(29,29,27)" stroke="rgb(29,29,27)" stroke-width="1" opacity="0.996078431372549" d="M 83.5 470 Q 86 471 84.5 472 Q 82 471 83.5 470 Z " /><path fill="rgb(29,29,27)" stroke="rgb(29,29,27)" stroke-width="1" opacity="0.996078431372549" d="M 286.5 476 Q 288 477 285.5 478 Q 284 477 286.5 476 Z " /><path fill="rgb(29,29,27)" stroke="rgb(29,29,27)" stroke-width="1" opacity="0.996078431372549" d="M 442.5 476 Q 444.5 477.5 440.5 479 L 440 478.5 L 442.5 476 Z " /><path fill="rgb(29,29,27)" stroke="rgb(29,29,27)" stroke-width="1" opacity="0.996078431372549" d="M 247.5 480 Q 249 481 246.5 482 Q 245 481 247.5 480 Z " /><path fill="rgb(29,29,27)" stroke="rgb(29,29,27)" stroke-width="1" opacity="0.996078431372549" d="M 436.5 481 Q 438 482 435.5 483 Q 434 482 436.5 481 Z " /><path fill="rgb(29,29,27)" stroke="rgb(29,29,27)" stroke-width="1" opacity="0.996078431372549" d="M 99.5 483 Q 102 484 100.5 485 Q 98 484 99.5 483 Z " /><path fill="rgb(29,29,27)" stroke="rgb(29,29,27)" stroke-width="1" opacity="0.996078431372549" d="M 431.5 485 Q 433 486 430.5 487 Q 429 486 431.5 485 Z " /><path fill="rgb(29,29,27)" stroke="rgb(29,29,27)" stroke-width="1" opacity="0.996078431372549" d="M 177.5 508 Q 179.5 507.5 180 508.5 Q 179.5 509.5 177.5 509 Q 176.5 508.5 177.5 508 Z " /><path fill="rgb(29,29,27)" stroke="rgb(29,29,27)" stroke-width="1" opacity="0.996078431372549" d="M 354.5 511 L 361.5 511 L 362 511.5 L 361.5 512 L 354.5 512 Q 353.5 511.5 354.5 511 Z " /><path fill="rgb(29,29,27)" stroke="rgb(29,29,27)" stroke-width="1" opacity="1" d="M 179.5 1 L 212.5 1 L 213.5 2 L 219.5 2 L 220.5 3 Q 227.2 2.3 230.5 5 L 234.5 5 L 235.5 6 L 237.5 6 L 238.5 7 L 240.5 7 L 241.5 8 L 243.5 8 L 244.5 9 L 246.5 9 Q 248.2 11.3 252.5 11 Q 292.1 27.4 319 56.5 Q 335.9 74.1 349 95.5 Q 322.7 131.2 294.5 165 Q 292.3 165.8 293 163.5 Q 279.1 140.9 259.5 124 Q 244.4 111.1 223.5 104 L 220.5 104 L 219.5 103 Q 216.3 103.8 215.5 102 L 210.5 102 L 209.5 101 L 182.5 101 L 181.5 102 L 176.5 102 L 175.5 103 L 172.5 103 L 171.5 104 Q 167.6 103.6 165.5 105 L 162.5 107 L 160.5 107 L 159.5 108 L 158.5 108 L 157.5 109 L 156.5 109 Q 152.9 112.9 146.5 114 Q 127.8 124.8 115 141.5 Q 94.3 165.8 84 200.5 L 84 203.5 L 83 204.5 Q 81.6 206.6 82 210.5 L 81 211.5 L 81 214.5 L 80 215.5 L 80 220.5 L 79 221.5 Q 80 225.5 78 226.5 L 78 232.5 L 77 233.5 L 77 240.5 L 76 241.5 L 76 273.5 L 77 274.5 L 77 282.5 Q 79.8 284.3 78 290.5 L 79 291.5 L 79 295.5 L 80 296.5 L 80 300.5 L 81 301.5 L 81 305.5 L 82 306.5 L 82 309.5 Q 83.8 310.3 83 313.5 Q 86.5 327.5 93 338.5 L 93 340.5 Q 108.6 374.9 136.5 397 Q 146.8 404.7 160.5 409 Q 163.8 408.3 164.5 410 L 185.5 410 Q 199.5 407 209.5 400 Q 221.2 391.7 230 380.5 Q 256.2 342.2 285 306.5 Q 287.4 305.4 287 301.5 Q 278.8 288.2 272 273.5 Q 278.4 272.4 282.5 269 L 284.5 269 L 287.5 267 L 289.5 267 L 292.5 265 L 294.5 265 L 297.5 263 L 299.5 263 L 300.5 262 Q 304.4 262.4 305.5 260 L 307.5 260 L 310.5 258 L 312.5 258 L 315.5 256 L 317.5 256 L 320.5 254 Q 323.7 254.2 325.5 253 L 328.5 251 L 330.5 251 L 333.5 249 L 335.5 249 L 338.5 247 L 340.5 247 L 341.5 246 Q 346 245.5 348.5 243 Q 351.7 243.2 353.5 242 L 356.5 240 L 358.5 240 L 361.5 238 L 363.5 238 L 364.5 237 Q 369 236.5 371.5 234 Q 374.7 234.2 376.5 233 Q 381 229.5 387.5 228 Q 388.8 228.8 388 231.5 L 387 232.5 L 387 239.5 L 386 240.5 Q 387.5 246 385 247.5 L 385 254.5 L 384 255.5 L 384 262.5 Q 381.3 264.3 383 270.5 L 382 271.5 Q 383.5 277 381 278.5 L 381 285.5 L 380 286.5 L 380 293.5 L 379 294.5 L 379 301.5 Q 376.3 303.3 378 309.5 L 377 310.5 Q 378.5 316 376 317.5 L 376 324.5 L 375 325.5 L 375 332.5 Q 372.3 334.3 374 340.5 L 373 341.5 Q 374.5 347 372 348.5 L 372 355.5 L 371 356.5 L 371 363.5 L 370 364.5 L 370 371.5 L 369 372.5 L 369 378.5 L 368 379.5 Q 369.2 383.7 367.5 385 Q 358 379 350.5 371 L 349.5 371 L 345.5 367 Q 343.3 367.2 342.5 366 Q 335.7 368.7 332 374.5 Q 310 408 286 439.5 Q 272.2 458.2 255.5 474 Q 238.8 489.8 216.5 500 L 214.5 500 L 211.5 502 Q 207.2 501.7 205.5 504 L 202.5 504 Q 201.2 505.7 198.5 506 L 194.5 506 L 193.5 507 Q 188.7 505.8 187.5 508 L 177.5 508 L 176.5 509 L 169.5 509 L 168.5 508 L 158.5 508 L 157.5 507 L 152.5 507 Q 151.5 505 147.5 506 L 146.5 505 L 143.5 505 L 142.5 504 L 140.5 504 L 139.5 503 L 137.5 503 Q 135.8 500.7 131.5 501 L 128.5 499 L 126.5 499 Q 95.3 485.2 74 461.5 Q 33.9 418.1 14 354.5 L 14 351.5 Q 12.2 350.2 12 347.5 Q 12 340.5 9 336.5 L 9 332.5 Q 7.3 331.8 8 328.5 L 7 327.5 Q 8 323.5 6 322.5 L 6 317.5 L 5 316.5 L 5 311.5 L 4 310.5 L 4 305.5 L 3 304.5 L 3 296.5 L 2 295.5 L 2 285.5 L 1 284.5 L 1 234.5 L 2 233.5 L 2 221.5 L 3 220.5 L 3 213.5 L 4 212.5 L 4 205.5 L 5 204.5 L 5 199.5 L 6 198.5 Q 5 194.5 7 193.5 L 7 188.5 L 8 187.5 L 8 184.5 L 9 183.5 L 9 180.5 L 10 179.5 L 10 176.5 L 11 175.5 L 11 172.5 Q 12.7 171.8 12 168.5 Q 13.7 167.2 14 164.5 L 14 161.5 L 15 160.5 L 15 158.5 L 16 157.5 L 16 155.5 L 17 154.5 Q 16.7 150.2 19 148.5 L 19 146.5 L 21 143.5 L 21 141.5 Q 23.3 139.8 23 135.5 L 24 134.5 Q 25.5 128 29 123.5 L 29 121.5 Q 40.4 97.9 55 77.5 Q 69.5 58 87.5 42 Q 105.1 26.6 127.5 16 L 129.5 16 Q 131.3 13.8 134.5 13 Q 137.7 13.2 139.5 12 L 142.5 10 L 144.5 10 L 145.5 9 L 147.5 9 L 148.5 8 Q 152.8 8.3 154.5 6 L 157.5 6 L 158.5 5 L 161.5 5 Q 162.3 3.3 165.5 4 L 166.5 3 L 172.5 3 Q 173.8 0.7 178.5 2 L 179.5 1 Z " /><path fill="rgb(29,29,27)" stroke="rgb(29,29,27)" stroke-width="1" opacity="1" d="M 385.5 112 Q 389.5 111 390.5 113 L 397.5 113 L 398.5 114 L 402.5 114 Q 403.3 115.8 406.5 115 L 409.5 117 L 411.5 117 L 412.5 118 L 413.5 118 Q 417.1 121.9 423.5 123 Q 444 135 459 152.5 Q 471.5 166.5 481 183.5 L 481 184.5 L 482 185.5 L 482 186.5 L 483 187.5 L 483 188.5 L 484 189.5 L 484 190.5 L 485 191.5 L 485 192.5 L 486 193.5 L 486 194.5 Q 488.9 197.1 490 201.5 Q 492 211.5 497 218.5 L 497 221.5 L 498 222.5 L 498 224.5 L 499 225.5 L 499 227.5 L 500 228.5 Q 499.7 232.8 502 234.5 L 502 237.5 L 503 238.5 L 503 241.5 L 504 242.5 L 504 245.5 L 505 246.5 Q 504.2 249.8 506 250.5 L 506 254.5 L 507 255.5 L 507 260.5 L 508 261.5 Q 506.7 266.2 509 267.5 L 509 273.5 L 510 274.5 L 510 284.5 L 511 285.5 L 511 307.5 L 512 308.5 L 511 309.5 L 511 328.5 L 510 329.5 L 510 337.5 L 509 338.5 L 509 346.5 L 508 347.5 L 508 351.5 L 507 352.5 L 507 356.5 Q 505 357.5 506 361.5 L 505 362.5 L 505 365.5 L 504 366.5 L 504 369.5 L 503 370.5 L 503 373.5 L 502 374.5 L 502 377.5 Q 500.3 378.2 501 381.5 L 500 382.5 L 500 384.5 L 499 385.5 L 499 387.5 L 498 388.5 L 498 390.5 Q 495.7 392.2 496 396.5 L 494 399.5 L 494 401.5 Q 475.7 445.7 443.5 476 Q 424 494.5 396.5 505 Q 392.2 504.7 390.5 507 L 387.5 507 Q 386.2 508.7 383.5 509 Q 379.5 508 378.5 510 L 372.5 510 L 371.5 511 L 344.5 511 L 343.5 510 L 338.5 510 L 337.5 509 L 333.5 509 Q 332.7 507.3 329.5 508 L 328.5 507 L 326.5 507 L 325.5 506 L 323.5 506 Q 321.8 503.7 317.5 504 Q 315.7 501.8 312.5 501 L 310.5 501 Q 303 495.5 293.5 492 Q 288.8 486.2 282 484 L 282 482.5 Q 286.5 478.5 289 472.5 Q 296 466 301 457.5 Q 300.8 454.3 303 453.5 Q 320.2 432.7 335.5 410 Q 339.1 409.9 340.5 412 Q 343.8 411.2 344.5 413 L 350.5 413 L 351.5 414 L 364.5 414 L 365.5 413 L 370.5 413 Q 371.3 411.2 374.5 412 L 375.5 411 Q 382.3 410.2 386.5 407 Q 401.1 398.6 411 385.5 L 411 384.5 Q 417.3 378.8 421 370.5 L 421 369.5 L 422 368.5 L 422 367.5 L 423 366.5 L 423 365.5 L 424 364.5 L 424 363.5 Q 426.9 360.9 428 356.5 Q 429.2 348.2 433 342.5 L 433 338.5 L 434 337.5 Q 433.3 334.3 435 333.5 L 435 329.5 L 436 328.5 L 436 322.5 L 437 321.5 L 437 290.5 L 436 289.5 L 436 284.5 L 435 283.5 L 435 279.5 L 434 278.5 L 434 274.5 Q 432.3 273.8 433 270.5 L 432 269.5 L 432 267.5 Q 429.7 265.8 430 261.5 L 428 258.5 L 428 256.5 Q 424.5 252 423 245.5 Q 413.4 225.1 396.5 212 L 395.5 212 Q 392 208.5 386.5 207 Q 382.5 208 381.5 206 L 375.5 206 L 374.5 207 L 371.5 207 L 370.5 208 L 368.5 208 L 367.5 209 L 365.5 209 Q 363.8 211.3 359.5 211 L 356.5 213 L 354.5 213 L 353.5 214 L 351.5 214 L 350.5 215 L 348.5 215 Q 346.8 217.3 342.5 217 L 339.5 219 L 337.5 219 L 336.5 220 L 334.5 220 Q 332.8 222.3 328.5 222 L 325.5 224 L 323.5 224 L 322.5 225 L 320.5 225 L 319.5 226 L 317.5 226 Q 315.8 228.3 311.5 228 L 308.5 230 L 306.5 230 L 305.5 231 L 303.5 231 L 302.5 232 L 300.5 232 Q 298.8 234.3 294.5 234 L 291.5 236 L 289.5 236 L 288.5 237 L 286.5 237 Q 278 241.5 267.5 244 Q 265.7 242.7 269 241.5 L 269 240.5 Q 276.3 233.8 281 224.5 Q 307.1 192.6 331 158.5 L 335 154.5 L 335 153.5 L 338 150.5 L 338 149.5 Q 345.3 142.8 350 133.5 Q 354.2 127.7 359.5 123 L 360.5 123 Q 364.5 118.5 370.5 116 L 372.5 116 L 373.5 115 Q 377.8 115.3 379.5 113 L 384.5 113 L 385.5 112 Z " /></svg>