<?xml version="1.0" encoding="UTF-8"?>
<svg id="Camada_1" xmlns="http://www.w3.org/2000/svg" version="1.1" viewBox="0 0 454.14 340.86">
  <!-- Generator: Adobe Illustrator 30.2.1, SVG Export Plug-In . SVG Version: 2.1.1 Build 1)  -->
  <defs>
    <style>
      .st0 {
        fill: #64af00;
      }

      .st1 {
        fill: #1a0e4b;
      }

      .st2 {
        fill: #6b4fd6;
      }
    </style>
  </defs>
  <g>
    <path class="st1" d="M115.93,114.45c4.45-35.68,28.64-64.64,60.65-74.81,36.58-11.61,74-.27,98.19,29.37-8.42,8.85-16.47,16.95-25.23,25.17-12.3-15.38-27.31-23.19-44.84-23.22-17.53-.03-34.02,8.56-44.37,23.38-18.7,26.71-11.16,62.9,15.96,80.51,14.94,9.71,32.51,6.91,44.69-5.84l25.31-26.52-7.15-10.4-.02.02,53.53-16.28-9.21,56.38-10.97-6.8c-.19-.13-.42-.19-.64-.16-1.4.22-3.68,1.78-4.67,2.86-11.33,12.52-21.78,25.17-35.34,35.34-26.08,19.55-61.65,14.86-85.22-6.47-23.58-21.35-34.63-50.81-30.67-82.5"/>
    <path class="st0" d="M268.32,180.41c14.39,3.94,27.17-.33,36.36-10.83,9.19-10.5,12.84-23.84,8.19-37.52-3.57-10.51-15.24-26.7-28.52-23.05l-48.22,13.21,39.15-40.07c16.64-17.02,43.99-.61,55.94,13.26,24.32,28.27,23.77,70.39-1.05,97.81-22.09,24.39-57.02,31.63-86.59,13.32l24.75-26.13v-.02Z"/>
  </g>
  <g>
    <path class="st1" d="M44.26,293.35c-4.08,0-7.58-.71-10.5-2.13-2.92-1.42-5.33-3.29-7.23-5.62-1.89-2.33-3.29-4.85-4.2-7.57-.91-2.72-1.36-5.35-1.36-7.91v-1.36c0-2.84.46-5.63,1.39-8.37.93-2.74,2.35-5.22,4.26-7.44,1.91-2.22,4.31-3.99,7.2-5.31,2.88-1.32,6.26-1.98,10.13-1.98,4.12,0,7.77.77,10.96,2.32,3.19,1.54,5.75,3.71,7.69,6.48,1.75,2.51,2.84,5.39,3.28,8.63.07.55-.37,1.04-.92,1.04h-9.71c-.43,0-.79-.31-.9-.72-.33-1.26-.89-2.38-1.69-3.35-.95-1.15-2.16-2.05-3.64-2.69-1.48-.64-3.17-.96-5.06-.96-1.77,0-3.37.31-4.79.93s-2.62,1.49-3.58,2.62c-.97,1.13-1.71,2.5-2.22,4.11-.52,1.61-.77,3.42-.77,5.44s.26,3.83.77,5.44c.51,1.61,1.28,2.99,2.29,4.14,1.01,1.15,2.23,2.03,3.67,2.62,1.44.6,3.09.9,4.94.9,2.88,0,5.32-.7,7.32-2.1,1.79-1.25,2.94-2.88,3.46-4.89.11-.42.47-.73.9-.73h9.68c.56,0,1.01.5.92,1.06-.48,2.97-1.56,5.7-3.25,8.21-1.89,2.8-4.45,5.03-7.66,6.7-3.21,1.67-7,2.5-11.36,2.5Z"/>
    <path class="st1" d="M83.97,247.96v43.23c0,.51-.41.93-.92.93h-9.39c-.51,0-.93-.42-.93-.93v-36.01h-2.9c-.51,0-.93-.41-.93-.92v-6.3c0-.52.42-.93.93-.93h13.22c.51,0,.92.41.92.93Z"/>
    <path class="st1" d="M102.93,245.64c-.95-1.05-2.45-1.58-4.51-1.58s-3.51.53-4.47,1.58c-.97,1.05-1.46,2.4-1.46,4.05s.49,2.99,1.46,4.04c.96,1.05,2.48,1.58,4.54,1.58s3.49-.53,4.44-1.58c.95-1.05,1.42-2.4,1.42-4.04s-.47-3-1.42-4.05Z"/>
    <path class="st1" d="M105.09,258.95v32.24c0,.51-.41.93-.92.93h-9.39c-.51,0-.93-.42-.93-.93v-25.01h-3.39c-.52,0-.93-.42-.93-.93v-6.3c0-.51.41-.93.93-.93h13.71c.51,0,.92.42.92.93Z"/>
    <path class="st1" d="M128.93,293.35c-2.96,0-5.54-.48-7.72-1.45-2.18-.97-4-2.27-5.47-3.92-1.46-1.65-2.55-3.52-3.27-5.62-.72-2.1-1.08-4.28-1.08-6.55v-1.24c0-2.39.38-4.65,1.14-6.79.76-2.14,1.88-4.03,3.37-5.68,1.48-1.65,3.31-2.94,5.5-3.89,2.18-.95,4.69-1.42,7.54-1.42,3.13,0,5.89.62,8.28,1.85,2.39,1.24,4.29,2.93,5.71,5.1,1.25,1.9,2.01,4.04,2.29,6.43.06.54-.38,1.01-.92,1.01h-9.19c-.43,0-.81-.29-.9-.7-.21-1.06-.68-1.98-1.41-2.76-.89-.95-2.17-1.42-3.86-1.42-1.44,0-2.62.37-3.55,1.11-.93.74-1.62,1.77-2.07,3.09-.45,1.32-.68,2.88-.68,4.69,0,1.69.19,3.19.59,4.51.39,1.32,1.05,2.34,1.98,3.06.93.72,2.17,1.08,3.74,1.08,1.15,0,2.12-.21,2.9-.62.78-.41,1.4-1,1.85-1.76.34-.57.59-1.22.74-1.94.09-.43.44-.75.88-.75h9.23c.54,0,.99.47.92,1.01-.28,2.47-1.07,4.66-2.35,6.59-1.46,2.18-3.41,3.89-5.84,5.13-2.43,1.24-5.21,1.85-8.34,1.85Z"/>
    <path class="st1" d="M168.21,293.35c-3.01,0-5.68-.45-8.03-1.36-2.35-.91-4.33-2.16-5.96-3.77-1.63-1.61-2.86-3.46-3.71-5.56-.84-2.1-1.27-4.34-1.27-6.73v-1.48c0-2.47.44-4.78,1.33-6.92.88-2.14,2.15-4.01,3.8-5.62,1.65-1.61,3.64-2.86,5.99-3.77,2.35-.91,4.96-1.36,7.84-1.36s5.55.45,7.88,1.36c2.33.91,4.31,2.16,5.96,3.77s2.91,3.48,3.8,5.62c.88,2.14,1.33,4.45,1.33,6.92v1.48c0,2.39-.42,4.63-1.27,6.73-.84,2.1-2.08,3.95-3.71,5.56-1.63,1.61-3.61,2.86-5.96,3.77s-5.02,1.36-8.03,1.36ZM168.21,283.96c1.73,0,3.16-.37,4.29-1.11s1.99-1.78,2.56-3.12c.58-1.34.87-2.85.87-4.54s-.3-3.32-.9-4.66c-.6-1.34-1.47-2.4-2.62-3.18-1.15-.78-2.55-1.17-4.2-1.17s-3.05.39-4.2,1.17c-1.15.78-2.03,1.84-2.62,3.18-.6,1.34-.9,2.89-.9,4.66s.29,3.2.86,4.54c.58,1.34,1.44,2.38,2.59,3.12s2.57,1.11,4.26,1.11Z"/>
    <path class="st2" d="M239.36,247.96v43.23c0,.51-.41.93-.93.93h-17.41c-.37,0-.71-.23-.86-.57l-14.53-34.81c-.14-.35-.48-.57-.85-.57h-.31v35.02c0,.51-.42.93-.93.93h-8.77c-.51,0-.93-.42-.93-.93v-43.23c0-.52.42-.93.93-.93h17.29c.38,0,.71.22.86.57l14.53,34.8c.14.35.48.57.86.57h.3v-35.01c0-.52.42-.93.93-.93h8.89c.52,0,.93.41.93.93Z"/>
    <path class="st2" d="M278.83,265.77c-1.36-2.69-3.32-4.86-5.87-6.51-2.55-1.65-5.66-2.47-9.33-2.47-2.76,0-5.23.48-7.41,1.45-2.18.97-4.02,2.27-5.53,3.92-1.5,1.65-2.65,3.53-3.45,5.65-.81,2.12-1.21,4.34-1.21,6.64v1.24c0,2.22.4,4.38,1.21,6.48.8,2.1,1.96,4,3.49,5.68,1.52,1.69,3.39,3.03,5.61,4.02,2.23.99,4.78,1.48,7.66,1.48s5.51-.52,7.76-1.54c2.24-1.03,4.09-2.45,5.55-4.27,1.2-1.48,2.08-3.14,2.63-4.96.18-.6-.26-1.21-.89-1.21h-8.45c-.33,0-.66.15-.84.44-.42.7-1.06,1.27-1.9,1.72-1.01.54-2.29.8-3.86.8-1.77,0-3.21-.37-4.32-1.11s-1.93-1.8-2.47-3.18c-.22-.58-.4-1.21-.53-1.88h23.26c.51,0,.92-.42.92-.93v-2.65c0-3.18-.68-6.11-2.03-8.81ZM256.65,272.1c.14-.81.35-1.54.62-2.19.58-1.38,1.41-2.41,2.5-3.09,1.09-.68,2.38-1.01,3.86-1.01s2.79.35,3.8,1.04c1.01.71,1.77,1.72,2.29,3.06.25.66.44,1.39.56,2.19h-13.63Z"/>
    <path class="st2" d="M284.47,292.11c-.7,0-1.15-.75-.81-1.37l9.32-17.03-.25,1.61-8.75-15.92c-.34-.62.11-1.37.81-1.37h9.96c.35,0,.68.2.83.52l5.24,10.66h.99l4.94-10.64c.15-.33.48-.54.84-.54h9.25c.69,0,1.14.73.82,1.35l-8.38,16.25.25-1.36,9.85,16.45c.37.62-.08,1.4-.8,1.4h-9.93c-.34,0-.64-.18-.81-.47l-6.4-11.45h-.99l-5.92,11.42c-.16.31-.48.5-.82.5h-9.24Z"/>
    <path class="st1" d="M358.93,254.19c-1.52-2.42-3.7-4.29-6.52-5.59-2.82-1.29-6.16-1.94-10.03-1.94h-6.18c-.11,0-.21.02-.31.06-.09-.04-.2-.06-.31-.06h-9.63c-.51,0-.93.41-.93.93v43.6c0,.51.42.93.93.93h9.63c.52,0,.93-.42.93-.93v-11.06h5.87c3.87,0,7.21-.65,10.03-1.97s5-3.19,6.52-5.62,2.29-5.31,2.29-8.65v-.99c0-3.37-.77-6.28-2.29-8.71ZM348.74,267.04c-.58,1.03-1.38,1.82-2.41,2.38-1.03.55-2.24.83-3.64.83h-6.18v-13.71h6.18c1.4,0,2.61.27,3.64.8,1.03.54,1.83,1.32,2.41,2.35.58,1.03.86,2.27.86,3.71s-.28,2.61-.86,3.64Z"/>
    <path class="st1" d="M393.36,263.58c-1.3-2.06-3.17-3.6-5.62-4.63-2.45-1.03-5.42-1.54-8.92-1.54-1.24,0-2.59.02-4.05.06-1.46.04-2.87.1-4.23.18-.99.06-1.87.12-2.66.18-.49.04-.86.44-.86.93v7.55c0,.53.45.95.98.92,1.13-.06,2.35-.13,3.65-.19,1.69-.08,3.3-.14,4.82-.19,1.52-.04,2.68-.06,3.46-.06,1.65,0,2.83.38,3.55,1.15.7.74,1.06,1.85,1.08,3.36h-5.37c-3.09,0-5.83.37-8.22,1.11-2.38.74-4.26,1.91-5.62,3.49-1.36,1.59-2.04,3.66-2.04,6.21,0,2.26.53,4.21,1.58,5.84,1.05,1.62,2.5,2.87,4.35,3.73,1.86.87,3.98,1.3,6.36,1.3s4.4-.43,6.03-1.3c1.62-.86,2.9-2.11,3.83-3.73.38-.66.69-1.39.95-2.17v5.41c0,.51.42.93.93.93h7.04c.51,0,.93-.42.93-.93v-19.76c0-3.17-.65-5.79-1.95-7.85ZM383.7,283.1c-.5.86-1.13,1.47-1.89,1.82-.76.35-1.63.52-2.62.52-1.53,0-2.7-.38-3.52-1.14-.83-.76-1.24-1.76-1.24-2.99s.41-2.3,1.24-3.06c.82-.76,1.99-1.14,3.52-1.14h5.37v3.72c-.1.12-.18.27-.22.44-.14.72-.36,1.33-.64,1.83Z"/>
    <path class="st1" d="M407.77,290.71l-9.39-31.5c-.18-.59.27-1.19.89-1.19h9.29c.42,0,.78.28.89.68l8.81,31.5c.17.59-.28,1.18-.89,1.18h-8.71c-.41,0-.77-.27-.89-.66ZM402.35,304.77v-7.53c0-.51.41-.93.93-.93h6.92c.95,0,1.75-.12,2.41-.37s1.2-.65,1.61-1.2c.41-.56.72-1.33.93-2.32l7.5-33.68c.09-.42.47-.73.9-.73h8.7c.6,0,1.04.56.9,1.15l-8.67,35.42c-.66,2.8-1.58,5.01-2.75,6.64-1.17,1.63-2.78,2.78-4.82,3.46-2.04.68-4.68,1.02-7.94,1.02h-5.68c-.51,0-.93-.41-.93-.93ZM413.16,290.44v-6.79c0-.51.41-.93.93-.93h5.31c.51,0,.93.41.93.93v6.79c0,.51-.41.93-.93.93h-5.31c-.51,0-.93-.41-.93-.93Z"/>
  </g>
</svg>